<svg width="16" height="16" viewBox="0 0 16 16" fill="none" xmlns="http://www.w3.org/2000/svg">
<path d="M7.0844 3.69413L8.90438 1.87416C9.61461 1.15504 10.5645 0.799927 11.5056 0.799927C12.4555 0.799927 13.3966 1.15504 14.1157 1.87416C14.8348 2.59327 15.1988 3.54321 15.1988 4.48427C15.1988 5.4342 14.8348 6.37526 14.1157 7.09438L11.1061 10.104C10.387 10.8231 9.44593 11.1782 8.49599 11.1782C7.55493 11.1782 6.60499 10.8231 5.88588 10.104C5.68169 9.8998 5.50413 9.66898 5.36208 9.42927L6.63163 8.15973C6.72041 8.43494 6.88021 8.68353 7.09328 8.8966C7.47503 9.28722 7.98995 9.48254 8.49599 9.48254C9.01091 9.48254 9.51695 9.28722 9.8987 8.8966L12.9172 5.88698C13.2989 5.50523 13.4943 4.99919 13.4943 4.48427C13.4943 3.97822 13.2989 3.4633 12.9172 3.08155C12.5266 2.6998 12.0205 2.50449 11.5056 2.50449C10.9996 2.50449 10.4935 2.6998 10.1029 3.08155L9.19735 3.9871C8.65579 3.78291 8.07873 3.67638 7.49278 3.67638C7.35962 3.67638 7.21757 3.68525 7.0844 3.69413ZM1.87306 8.90547L4.88267 5.88698C5.60179 5.17674 6.55172 4.81275 7.49278 4.81275C8.44272 4.81275 9.38378 5.17674 10.1029 5.88698C10.3071 6.10005 10.4846 6.322 10.6356 6.5617L9.36603 7.83124C9.26837 7.56491 9.11745 7.30745 8.8955 7.09438C8.51375 6.71263 8.0077 6.51731 7.49278 6.51731C6.98674 6.51731 6.47182 6.71263 6.09007 7.09438L3.08046 10.104C2.6987 10.4946 2.50339 11.0007 2.50339 11.5067C2.50339 12.0216 2.6987 12.5277 3.08046 12.9183C3.46221 13.3 3.97713 13.4954 4.48317 13.4954C4.99809 13.4954 5.50413 13.3 5.88588 12.9183L6.79143 12.0127C7.33298 12.2081 7.91005 12.3146 8.49599 12.3146C8.63804 12.3146 8.77121 12.3146 8.91325 12.2968L7.09328 14.1168C6.37417 14.8359 5.43311 15.1999 4.48317 15.1999C3.54211 15.1999 2.59217 14.8359 1.87306 14.1168C1.15395 13.3977 0.798828 12.4566 0.798828 11.5067C0.798828 10.5656 1.15395 9.61571 1.87306 8.90547Z" fill="#31347A"/>
</svg>
