<svg width="19" height="16" viewBox="0 0 19 16" fill="none" xmlns="http://www.w3.org/2000/svg">
<path d="M6.06983 15.4401C13.1658 15.4401 17.0458 9.56008 17.0458 4.46408C17.0458 4.29608 17.0458 4.12808 17.0378 3.96808C17.7898 3.42408 18.4458 2.74408 18.9658 1.96808C18.2778 2.27208 17.5338 2.48008 16.7498 2.57608C17.5498 2.09608 18.1578 1.34408 18.4458 0.44008C17.7018 0.88008 16.8778 1.20008 15.9978 1.37608C15.2938 0.62408 14.2938 0.16008 13.1818 0.16008C11.0538 0.16008 9.32583 1.88808 9.32583 4.01608C9.32583 4.32008 9.35783 4.61608 9.42983 4.89608C6.22183 4.73608 3.38183 3.20008 1.47783 0.86408C1.14983 1.43208 0.957828 2.09608 0.957828 2.80008C0.957828 4.13608 1.63783 5.32008 2.67783 6.00808C2.04583 5.99208 1.45383 5.81608 0.933828 5.52808C0.933828 5.54408 0.933828 5.56008 0.933828 5.57608C0.933828 7.44808 2.26183 9.00008 4.02983 9.36008C3.70983 9.44808 3.36583 9.49608 3.01383 9.49608C2.76583 9.49608 2.52583 9.47208 2.28583 9.42408C2.77383 10.9601 4.19783 12.0721 5.88583 12.1041C4.56583 13.1361 2.90183 13.7521 1.09383 13.7521C0.781828 13.7521 0.477828 13.7361 0.173828 13.6961C1.86183 14.8001 3.89383 15.4401 6.06983 15.4401Z" fill="#31347A"/>
</svg>
