<?xml version="1.0" encoding="UTF-8"?>
<svg version="1.1" viewBox="0 0 300 300" xml:space="preserve" xmlns="http://www.w3.org/2000/svg" xmlns:cc="http://creativecommons.org/ns#" xmlns:dc="http://purl.org/dc/elements/1.1/" xmlns:rdf="http://www.w3.org/1999/02/22-rdf-syntax-ns#"><metadata><rdf:RDF><cc:Work rdf:about=""><dc:format>image/svg+xml</dc:format><dc:type rdf:resource="http://purl.org/dc/dcmitype/StillImage"/><dc:title/></cc:Work></rdf:RDF></metadata>
	<g transform="translate(-50.05,-50)">
		<g>
			<path class="st1" d="m153.6 301.6c94.3 0 145.9-78.2 145.9-145.9 0-2.2 0-4.4-0.1-6.6 10-7.2 18.7-16.3 25.6-26.6-9.2 4.1-19.1 6.8-29.5 8.1 10.6-6.3 18.7-16.4 22.6-28.4-9.9 5.9-20.9 10.1-32.6 12.4-9.4-10-22.7-16.2-37.4-16.2-28.3 0-51.3 23-51.3 51.3 0 4 0.5 7.9 1.3 11.7-42.6-2.1-80.4-22.6-105.7-53.6-4.4 7.6-6.9 16.4-6.9 25.8 0 17.8 9.1 33.5 22.8 42.7-8.4-0.3-16.3-2.6-23.2-6.4v0.7c0 24.8 17.7 45.6 41.1 50.3-4.3 1.2-8.8 1.8-13.5 1.8-3.3 0-6.5-0.3-9.6-0.9 6.5 20.4 25.5 35.2 47.9 35.6-17.6 13.8-39.7 22-63.7 22-4.1 0-8.2-0.2-12.2-0.7 22.6 14.4 49.6 22.9 78.5 22.9"/>
			</g>
		</g>
	</svg>
