<?xml version="1.0" standalone="no"?>
<!DOCTYPE svg PUBLIC "-//W3C//DTD SVG 20010904//EN"
 "http://www.w3.org/TR/2001/REC-SVG-20010904/DTD/svg10.dtd">
<svg version="1.0" xmlns="http://www.w3.org/2000/svg"
 width="1280.000000pt" height="1280.000000pt" viewBox="0 0 1280.000000 1280.000000"
 preserveAspectRatio="xMidYMid meet">
<metadata>
Created by potrace 1.15, written by Peter Selinger 2001-2017
</metadata>
<g transform="translate(0.000000,1280.000000) scale(0.100000,-0.100000)"
fill="#000000" stroke="none">
<path d="M6238 12785 c-140 -27 -278 -90 -388 -178 -30 -24 -242 -224 -470
-443 -229 -220 -1466 -1406 -2750 -2637 -1284 -1231 -2367 -2274 -2406 -2318
-83 -94 -151 -217 -190 -344 -25 -81 -27 -105 -27 -240 0 -134 2 -159 26 -238
94 -307 304 -517 614 -614 l88 -28 1472 -3 1473 -2 2 -2513 3 -2512 28 -85
c114 -341 383 -571 724 -620 56 -8 628 -10 2013 -8 2061 4 1936 1 2075 46 231
75 445 280 535 514 64 165 60 -7 60 2704 l0 2474 1473 2 1472 3 88 28 c308 96
521 309 613 612 25 81 27 105 27 240 0 134 -2 159 -26 238 -46 148 -119 275
-219 379 -29 30 -766 739 -1638 1574 -872 836 -2107 2021 -2745 2633 -638 612
-1187 1135 -1220 1162 -78 63 -219 133 -320 160 -106 27 -283 34 -387 14z"/>
</g>
</svg>
