<svg id="Layer_1" data-name="Layer 1" xmlns="http://www.w3.org/2000/svg" viewBox="0 0 119.6 57.9"><title>vox-temp</title><path d="M55.1,0.9h1.7L57,0.1H35.6l-0.2.8h3.1c2.7,0,4.9,1.9,4.9,5.6,0,2.1-.9,4.8-2.4,8.1L27.1,45.3,23.7,5.4C23.4,2.3,25,.9,28.5.9h2l0.2-.8H0.5l-0.3.8H2.1c2.4,0,3.3,1.5,3.5,4.3L11,56.8H23.7L45,11.7C48.3,5,51.7.9,55.1,0.9ZM52.6,57c-1.9,0-3.1-.6-3.1-3.8,0-4,1.5-11.9,3.1-19.1,0.2,3.3,2.5,6.6,5.9,6.6a15,15,0,0,0,2.2-.2C57.5,54.2,56.3,57,52.6,57Zm60.6-27.1c4,0,6.6-3.3,6.6-7.1a5.41,5.41,0,0,0-5.6-5.6c-5.9,0-8.7,4.7-13.6,13.3-1-5.4-3.5-12.4-9.7-12.4-7,0-15.1,10-22.5,16.2C65,37.2,61.3,39,58.3,39s-4.9-3.1-4.9-8.6c2.2-9,3.3-11.3,6.7-11.3,2.3,0,3.3,1.3,3.3,4a73.68,73.68,0,0,1-1.9,13.8c3.3-1,8.3-5.2,12.5-9.7-2.2-5.3-7-8.9-13.8-8.9-12.7,0-23.9,11.4-23.9,24.2,0,8.8,6.3,15.5,16.1,15.5,16.2,0,23-14,23-23.8,0-1.4-.1-2.4-0.2-3.7,2.5-2.7,5.7-5.3,8.3-5.3,3,0,5.4,7.5,7.7,18.8-2.1,2.3-4.2,6.7-5.2,7.5-0.4-4-3.1-6.5-6.6-6.5-4,0-6.7,3.8-6.7,7a5.67,5.67,0,0,0,5.8,6c6.9,0,8.8-6.5,13.1-12.3C92.9,51.9,96,58,101.3,58c6.3,0,12.1-5.4,15.1-9.2l-0.6-.9c-1.9,1.9-3.8,3.1-6,3.1-3.9,0-6.7-8.4-8.8-18.6,1.3-1.7,3.3-6.1,4.7-7.7C106.6,26.5,108.6,29.9,113.2,29.9Z" transform="translate(-0.2 -0.1)"/></svg>