<svg width="33" height="29" viewBox="0 0 33 29" fill="none" xmlns="http://www.w3.org/2000/svg">
<path d="M13.9019 2.5L13.0359 2L13.0359 2L13.9019 2.5ZM19.0981 2.5L18.2321 3L18.2321 3L19.0981 2.5ZM30.7894 22.75L31.6555 22.25L31.6555 22.25L30.7894 22.75ZM2.2106 22.75L1.34457 22.25L1.34457 22.25L2.2106 22.75ZM13.1213 11.2929C12.7308 10.9024 12.0976 10.9024 11.7071 11.2929C11.3166 11.6834 11.3166 12.3166 11.7071 12.7071L13.1213 11.2929ZM20.6968 21.6968C21.0874 22.0873 21.7205 22.0873 22.111 21.6968C22.5016 21.3063 22.5016 20.6731 22.111 20.2826L20.6968 21.6968ZM21.3471 12.7071C21.7376 12.3166 21.7376 11.6834 21.3471 11.2929C20.9566 10.9024 20.3234 10.9024 19.9329 11.2929L21.3471 12.7071ZM10.9432 20.2826C10.5526 20.6731 10.5526 21.3063 10.9432 21.6968C11.3337 22.0873 11.9669 22.0873 12.3574 21.6968L10.9432 20.2826ZM14.768 3C15.5378 1.66667 17.4623 1.66667 18.2321 3L19.9641 2C18.4245 -0.666669 14.5755 -0.666664 13.0359 2L14.768 3ZM18.2321 3L29.9234 23.25L31.6555 22.25L19.9641 2L18.2321 3ZM29.9234 23.25C30.6932 24.5833 29.731 26.25 28.1914 26.25V28.25C31.2706 28.25 33.1951 24.9167 31.6555 22.25L29.9234 23.25ZM28.1914 26.25H4.80867V28.25H28.1914V26.25ZM4.80867 26.25C3.26907 26.25 2.30682 24.5833 3.07662 23.25L1.34457 22.25C-0.195027 24.9167 1.72947 28.25 4.80867 28.25V26.25ZM3.07662 23.25L14.768 3L13.0359 2L1.34457 22.25L3.07662 23.25ZM11.7071 12.7071L20.6968 21.6968L22.111 20.2826L13.1213 11.2929L11.7071 12.7071ZM19.9329 11.2929L10.9432 20.2826L12.3574 21.6968L21.3471 12.7071L19.9329 11.2929Z" fill="#323678"/>
</svg>
