<?xml version="1.0" encoding="UTF-8"?>
<svg viewBox="0 0 24 21" xmlns="http://www.w3.org/2000/svg">
<path d="m10.262 0.98824c0.7722-1.3176 2.7028-1.3176 3.475 1e-6l9.9907 17.047c0.7722 1.3176-0.193 2.9647-1.7375 2.9647h-19.981c-1.5445 0-2.5097-1.6471-1.7375-2.9647l9.9907-17.047z" fill="#E35942"/>
<path d="m10.391 5.5918 0.2412 8.9804h2.4771l0.2505-8.9804h-2.9688zm1.4844 13.666c1.0483 0 1.6885-0.5938 1.6885-1.5493 0-0.9649-0.6402-1.5586-1.6885-1.5586-1.0391 0-1.6885 0.5937-1.6885 1.5586 0 0.9555 0.6494 1.5493 1.6885 1.5493z" fill="#fff"/>
</svg>
