<?xml version="1.0" standalone="no"?>
<!DOCTYPE svg PUBLIC "-//W3C//DTD SVG 20010904//EN"
 "http://www.w3.org/TR/2001/REC-SVG-20010904/DTD/svg10.dtd">
<svg version="1.0" xmlns="http://www.w3.org/2000/svg"
 width="600.000000pt" height="278.000000pt" viewBox="0 0 600.000000 278.000000"
 preserveAspectRatio="xMidYMid meet">
<g transform="translate(0.000000,278.000000) scale(0.100000,-0.100000)"
fill="#000000" stroke="none">
<path d="M253 2722 c-110 -39 -185 -120 -225 -243 -30 -92 -29 -259 1 -348 40
-117 109 -193 211 -233 80 -32 241 -31 322 1 80 31 151 109 178 198 11 36 20
71 20 78 0 8 -26 14 -77 19 -43 4 -92 9 -109 12 -31 6 -32 5 -44 -46 -25 -103
-100 -151 -177 -114 -50 25 -79 70 -92 147 -29 166 3 325 73 368 84 51 174 0
192 -109 5 -33 10 -41 23 -38 9 2 48 7 86 11 116 11 118 12 110 54 -18 100
-89 196 -174 234 -66 30 -244 35 -318 9z"/>
<path d="M1520 2310 l0 -420 110 0 110 0 0 420 0 420 -110 0 -110 0 0 -420z"/>
<path d="M3550 2310 l0 -420 110 0 110 0 0 32 0 32 28 -27 c109 -105 284 -57
353 96 21 45 24 67 24 172 0 138 -17 190 -83 258 -35 36 -107 67 -156 67 -42
0 -97 -22 -131 -52 l-35 -30 0 146 0 146 -110 0 -110 0 0 -420z m365 46 c30
-31 38 -72 33 -190 -4 -120 -22 -151 -88 -151 -34 0 -47 5 -61 25 -55 73 -43
294 18 329 31 18 72 13 98 -13z"/>
<path d="M4250 2635 l0 -85 110 0 110 0 0 85 0 85 -110 0 -110 0 0 -85z"/>
<path d="M1043 2510 c-94 -20 -175 -86 -214 -175 -31 -70 -32 -210 -2 -277 35
-78 71 -116 139 -149 123 -61 286 -45 381 36 116 99 135 321 40 454 -64 89
-216 138 -344 111z m136 -149 c27 -27 41 -83 41 -166 0 -126 -30 -185 -93
-185 -64 0 -96 63 -97 185 0 118 35 185 97 185 19 0 41 -8 52 -19z"/>
<path d="M2843 2509 c-18 -5 -48 -24 -67 -43 l-36 -33 0 33 0 34 -110 0 -110
0 0 -305 0 -305 110 0 110 0 0 205 c0 205 0 206 25 230 29 30 68 32 95 5 19
-19 20 -33 20 -230 l0 -210 110 0 110 0 0 195 c0 204 7 244 45 259 30 11 62 6
78 -12 15 -16 17 -47 17 -230 l0 -212 110 0 110 0 0 243 c0 214 -3 247 -19
283 -33 72 -112 112 -199 100 -60 -8 -98 -30 -132 -78 -17 -23 -30 -34 -30
-25 0 8 -15 31 -33 50 -47 51 -126 68 -204 46z"/>
<path d="M4748 2507 c-76 -22 -123 -59 -153 -122 -15 -31 -26 -58 -23 -60 5
-6 134 -25 169 -25 18 0 29 8 37 25 14 31 52 50 86 41 27 -7 39 -23 49 -67 l7
-26 -88 -6 c-200 -15 -292 -77 -292 -199 0 -58 13 -95 48 -132 38 -41 82 -56
157 -56 68 0 111 15 153 53 l22 20 0 -31 0 -32 105 0 105 0 0 216 c0 143 -4
231 -12 258 -17 54 -81 118 -137 135 -65 19 -179 23 -233 8z m167 -393 c-8
-56 -21 -79 -52 -93 -35 -16 -61 -13 -83 9 -23 23 -26 58 -7 83 15 21 80 46
121 47 28 0 28 0 21 -46z"/>
<path d="M1832 2253 c3 -242 4 -249 28 -291 31 -55 75 -82 145 -89 70 -7 133
15 175 63 l30 35 0 -41 0 -40 110 0 110 0 0 305 0 305 -110 0 -110 0 0 -187
c0 -159 -3 -193 -18 -223 -29 -59 -112 -68 -132 -14 -6 14 -10 115 -10 225 l0
199 -111 0 -111 0 4 -247z"/>
<path d="M4250 2195 l0 -305 110 0 110 0 0 305 0 305 -110 0 -110 0 0 -305z"/>
<path d="M280 1487 c0 -337 -1 -341 -66 -353 -31 -6 -77 2 -129 22 -14 6 -71
-148 -61 -165 16 -25 113 -46 216 -46 115 1 158 15 212 72 61 64 63 77 66 441
l3 332 -120 0 -121 0 0 -303z"/>
<path d="M3810 1370 l0 -420 105 0 105 0 0 420 0 420 -105 0 -105 0 0 -420z"/>
<path d="M4130 1695 l0 -85 110 0 110 0 0 85 0 85 -110 0 -110 0 0 -85z"/>
<path d="M827 1570 c-102 -26 -186 -104 -213 -198 -24 -82 -15 -212 19 -278
43 -85 109 -133 212 -154 151 -31 292 28 360 151 28 51 30 61 30 164 0 100 -2
115 -27 161 -31 60 -84 109 -146 136 -51 23 -177 32 -235 18z m142 -144 c45
-36 61 -229 24 -303 -34 -72 -112 -70 -148 2 -28 57 -28 203 0 260 30 60 80
77 124 41z"/>
<path d="M2794 1569 c-18 -5 -48 -27 -68 -49 l-36 -40 0 40 0 40 -110 0 -110
0 0 -305 0 -305 109 0 110 0 3 204 c3 201 3 205 27 230 24 26 72 35 98 18 26
-17 33 -69 33 -258 l0 -194 111 0 111 0 -4 243 c-4 264 -8 287 -64 338 -50 46
-133 61 -210 38z"/>
<path d="M3315 1563 c-75 -27 -111 -57 -141 -119 -15 -30 -25 -57 -23 -59 3
-2 47 -9 99 -16 78 -10 95 -10 98 1 9 26 51 60 75 60 33 0 64 -28 72 -66 l6
-31 -83 -5 c-181 -12 -279 -65 -293 -160 -21 -138 57 -227 198 -228 63 0 119
19 154 52 l23 21 0 -31 0 -32 105 0 105 0 0 218 c0 120 -5 234 -11 255 -14 50
-64 106 -117 129 -64 29 -202 34 -267 11z m182 -388 c-8 -56 -24 -81 -61 -96
-50 -22 -105 23 -92 75 8 32 71 65 125 66 l34 0 -6 -45z"/>
<path d="M4601 1565 c-107 -30 -161 -93 -161 -188 0 -107 54 -166 177 -192 43
-9 95 -21 115 -26 83 -21 61 -89 -27 -89 -58 0 -102 19 -153 64 -22 20 -44 36
-49 36 -5 0 -31 -23 -58 -51 l-50 -51 48 -43 c128 -117 383 -126 500 -16 42
38 57 73 57 131 0 122 -63 175 -253 210 -76 14 -112 36 -102 62 9 24 66 38
111 28 21 -5 57 -23 81 -39 24 -17 47 -31 51 -31 12 0 92 84 92 96 0 19 -44
52 -103 80 -74 33 -195 42 -276 19z"/>
<path d="M5392 1568 c-18 -6 -48 -28 -67 -50 l-35 -38 0 40 0 40 -110 0 -110
0 0 -305 0 -305 110 0 110 0 0 191 c0 155 3 197 16 225 28 58 103 60 123 3 7
-19 11 -111 11 -225 l0 -194 110 0 110 0 0 204 c0 191 1 205 21 230 15 19 30
26 54 26 61 0 65 -17 65 -252 l0 -208 100 0 100 0 0 260 c0 290 -2 301 -64
339 -82 51 -190 36 -254 -33 l-41 -45 -20 32 c-11 18 -34 40 -51 51 -38 22
-132 29 -178 14z"/>
<path d="M2305 1556 c-31 -14 -64 -46 -83 -81 -10 -17 -11 -11 -12 33 l0 52
-110 0 -110 0 0 -305 0 -305 110 0 110 0 0 165 c0 223 13 245 140 245 l60 0 0
105 0 105 -37 0 c-21 -1 -51 -7 -68 -14z"/>
<path d="M1300 1345 c0 -122 5 -237 11 -267 32 -147 222 -198 331 -88 l38 38
0 -39 0 -39 110 0 110 0 0 305 0 305 -109 0 -110 0 -3 -206 -3 -206 -28 -24
c-38 -32 -80 -31 -106 2 -20 25 -21 39 -21 230 l0 204 -110 0 -110 0 0 -215z"/>
<path d="M4130 1255 l0 -305 110 0 110 0 0 305 0 305 -110 0 -110 0 0 -305z"/>
<path d="M20 431 l0 -421 115 0 115 0 0 155 0 155 48 0 47 0 78 -155 77 -155
130 0 131 0 -17 33 c-9 17 -36 66 -59 107 -23 41 -58 105 -78 141 l-37 66 54
36 c77 51 100 102 94 207 -7 112 -38 162 -132 210 l-69 35 -248 3 -249 4 0
-421z m395 245 c18 -8 38 -23 44 -34 12 -23 15 -91 5 -117 -12 -29 -60 -45
-139 -45 l-75 0 0 105 0 105 65 0 c36 0 81 -6 100 -14z"/>
<path d="M2060 755 l0 -85 110 0 110 0 0 85 0 85 -110 0 -110 0 0 -85z"/>
<path d="M946 623 c-71 -24 -150 -101 -175 -169 -27 -70 -28 -199 -4 -270 22
-66 101 -145 167 -167 66 -23 206 -23 272 0 51 17 154 108 154 136 0 13 -119
67 -147 67 -6 0 -18 -11 -27 -25 -38 -58 -118 -81 -165 -49 -25 18 -51 71 -51
104 0 19 6 20 195 20 l195 0 0 70 c0 183 -103 290 -284 297 -57 2 -96 -2 -130
-14z m149 -119 c20 -8 45 -56 45 -89 0 -25 -1 -25 -85 -25 -52 0 -85 4 -85 10
0 24 30 79 51 94 25 17 47 20 74 10z"/>
<path d="M2555 623 c-68 -23 -155 -110 -178 -177 -22 -65 -22 -197 0 -262 22
-66 101 -145 167 -167 66 -23 206 -23 272 0 51 17 154 108 154 136 0 12 -118
67 -144 67 -5 0 -25 -18 -45 -41 -67 -76 -166 -61 -191 29 -18 65 -28 62 185
62 l195 0 0 70 c0 183 -103 290 -284 297 -57 2 -96 -2 -131 -14z m149 -119
c20 -8 37 -37 47 -81 l7 -33 -89 0 c-55 0 -89 4 -89 10 0 24 30 79 51 94 25
17 47 20 73 10z"/>
<path d="M1370 614 c0 -5 83 -284 151 -507 l30 -98 136 3 135 3 89 290 c48
160 88 296 89 303 0 9 -26 12 -100 12 -88 0 -100 -2 -100 -17 -1 -10 -22 -105
-49 -212 l-48 -194 -42 176 c-23 97 -47 192 -52 211 l-10 36 -114 0 c-63 0
-115 -3 -115 -6z"/>
<path d="M2060 315 l0 -305 110 0 110 0 0 305 0 305 -110 0 -110 0 0 -305z"/>
<path d="M3000 613 c0 -5 30 -142 67 -306 l67 -297 120 0 121 0 40 175 c21 96
42 172 45 167 4 -4 17 -52 29 -107 12 -55 29 -131 38 -168 l15 -68 121 3 121
3 68 295 c37 162 67 298 68 303 0 4 -42 7 -94 7 l-93 0 -27 -172 c-38 -245
-35 -239 -62 -118 -13 58 -33 147 -45 198 l-21 92 -102 0 -103 0 -43 -195
c-24 -107 -45 -193 -46 -192 -2 2 -15 75 -28 162 -14 88 -28 175 -31 193 l-6
32 -109 0 c-61 0 -110 -3 -110 -7z"/>
<path d="M3960 120 l0 -110 110 0 110 0 0 110 0 110 -110 0 -110 0 0 -110z"/>
</g>
</svg>
