<?xml version="1.0" encoding="UTF-8" standalone="no"?>
<svg xmlns:dc="http://purl.org/dc/elements/1.1/" xmlns:cc="http://creativecommons.org/ns#" xmlns:rdf="http://www.w3.org/1999/02/22-rdf-syntax-ns#" xmlns:svg="http://www.w3.org/2000/svg" xmlns="http://www.w3.org/2000/svg" viewBox="0 0 912.30664 130.90668" height="130.90668" width="912.30664" xml:space="preserve" id="svg2" version="1.1"><metadata id="metadata8"><rdf:RDF><cc:Work rdf:about=""><dc:format>image/svg+xml</dc:format><dc:type rdf:resource="http://purl.org/dc/dcmitype/StillImage"/></cc:Work></rdf:RDF></metadata><defs id="defs6"/><g transform="matrix(1.3333333,0,0,-1.3333333,0,130.90667)" id="g10"><g transform="scale(0.1)" id="g12"><path id="path14" style="fill:#100f0d;fill-opacity:1;fill-rule:nonzero;stroke:none" d="m 1121.32,117.23 v 747.993 c 0,38.843 8.86,68.007 26.58,87.422 17.7,19.421 40.63,29.152 68.7,29.152 28.96,0 52.39,-9.629 70.34,-28.836 17.92,-19.211 26.91,-48.441 26.91,-87.738 V 117.23 c 0,-39.2769 -8.99,-68.6402 -26.91,-88.0659 C 1268.99,9.71875 1245.56,0 1216.6,0 c -27.66,0 -50.45,9.83203 -68.39,29.4805 -17.93,19.6484 -26.89,48.914 -26.89,87.7495"/><path id="path16" style="fill:#100f0d;fill-opacity:1;fill-rule:nonzero;stroke:none" d="m 6351.68,782.59 c -161.01,0 -292,-131.004 -292,-292.008 0,-160.988 130.99,-291.984 292,-291.984 160.99,0 291.99,130.996 291.99,291.984 0,161.004 -131,292.008 -291.99,292.008 m 0,-782.59 c -270.51,0 -490.6,220.086 -490.6,490.582 0,270.531 220.09,490.606 490.6,490.606 270.53,0 490.58,-220.075 490.58,-490.606 C 6842.26,220.086 6622.21,0 6351.68,0"/><path id="path18" style="fill:#100f0d;fill-opacity:1;fill-rule:nonzero;stroke:none" d="m 4149.33,782.59 c -160.99,0 -291.98,-131.004 -291.98,-292.008 0,-160.988 130.99,-291.984 291.98,-291.984 161.02,0 291.98,130.996 291.98,291.984 0,161.004 -130.96,292.008 -291.98,292.008 m 0,-782.59 c -270.51,0 -490.58,220.086 -490.58,490.582 0,270.531 220.07,490.606 490.58,490.606 270.52,0 490.6,-220.075 490.6,-490.606 C 4639.93,220.086 4419.85,0 4149.33,0"/><path id="path20" style="fill:#100f0d;fill-opacity:1;fill-rule:nonzero;stroke:none" d="m 5248.07,201 c -23.74,-1.547 -49.28,-1.816 -76.75,-1.816 h -128.8 v 583.425 h 128.8 c 27.47,0 53.01,-0.304 76.75,-1.812 85.15,-10.18 159.13,-57.055 205.61,-124.457 32.38,-46.93 51.45,-103.664 51.58,-164.856 0,-0.16 0.02,-0.316 0.02,-0.484 v -0.215 c 0,-0.156 -0.02,-0.316 -0.02,-0.472 -0.13,-61.192 -19.2,-117.93 -51.58,-164.872 C 5407.2,258.043 5333.22,211.191 5248.07,201 m 455.83,289.898 v 0.133 c -0.06,108.27 -35.36,208.399 -94.94,289.641 -86.67,118.152 -224.8,196.141 -381.09,200.738 -4.85,0.149 -9.69,0.387 -14.59,0.387 -0.27,0 -246.35,-0.317 -246.35,-0.317 -42.06,0 -72.52,-9.582 -91.34,-28.734 -18.85,-19.156 -28.27,-50.109 -28.27,-92.891 V 121.941 c 0,-42.7808 9.42,-73.7262 28.27,-92.9019 18.82,-19.1641 49.28,-28.734412 91.34,-28.734412 0,0 246.08,-0.304688 246.35,-0.304688 4.9,0 9.74,0.238281 14.59,0.371094 156.29,4.613286 294.42,82.597706 381.09,200.753906 59.58,81.242 94.88,181.371 94.94,289.637 v 0.136"/><path id="path22" style="fill:#100f0d;fill-opacity:1;fill-rule:nonzero;stroke:none" d="m 3380.91,977.422 c -35.85,11.137 -74.58,-2.953 -95.46,-34.766 L 2989.65,492.07 2693.86,942.656 c -20.86,31.813 -59.61,45.903 -95.46,34.766 -35.84,-11.149 -60.31,-44.934 -60.31,-83.231 V 93.3633 c 0,-48.0547 38.11,-87.00392 85.09,-87.00392 47.01,0 85.11,38.94922 85.11,87.00392 V 608.387 L 2918.31,288.5 c 0.14,-0.223 0.28,-0.426 0.42,-0.652 l 0.26,-0.383 c 0.25,-0.395 0.55,-0.746 0.81,-1.141 1.31,-1.914 2.66,-3.82 4.15,-5.644 0.65,-0.813 1.33,-1.535 2,-2.301 1.18,-1.344 2.32,-2.695 3.57,-3.969 1.12,-1.148 2.32,-2.222 3.51,-3.324 0.86,-0.781 1.72,-1.613 2.62,-2.379 1.68,-1.41 3.38,-2.672 5.14,-3.914 0.5,-0.348 0.94,-0.766 1.45,-1.105 0.06,-0.055 0.13,-0.079 0.22,-0.133 1.87,-1.274 3.81,-2.426 5.79,-3.551 0.54,-0.316 1.08,-0.688 1.63,-0.969 1.47,-0.812 2.99,-1.48 4.53,-2.199 8.61,-4.023 17.63,-6.539 26.71,-7.477 0.08,0 0.13,-0.007 0.18,-0.031 1.81,-0.156 3.61,-0.191 5.39,-0.269 0.99,-0.036 1.99,-0.125 2.96,-0.125 1.01,0 1.98,0.089 2.97,0.125 1.81,0.078 3.6,0.113 5.4,0.269 0.05,0.024 0.12,0.031 0.17,0.031 9.1,0.938 18.11,3.454 26.73,7.477 1.52,0.719 3.06,1.387 4.52,2.199 0.57,0.281 1.08,0.653 1.65,0.969 1.97,1.125 3.9,2.277 5.77,3.551 0.09,0.054 0.17,0.078 0.24,0.133 0.5,0.339 0.94,0.757 1.43,1.105 1.76,1.242 3.49,2.504 5.15,3.914 0.91,0.766 1.75,1.598 2.65,2.41 1.16,1.071 2.35,2.145 3.47,3.27 1.27,1.297 2.41,2.66 3.58,4.004 0.68,0.754 1.37,1.496 2,2.289 1.48,1.824 2.83,3.73 4.15,5.644 0.26,0.395 0.56,0.746 0.82,1.141 l 0.24,0.383 c 0.15,0.226 0.28,0.429 0.44,0.652 l 209.99,319.887 V 93.3633 c 0,-48.0547 38.08,-87.00392 85.14,-87.00392 46.96,0 85.1,38.94922 85.1,87.00392 V 894.191 c 0,38.297 -24.5,72.082 -60.35,83.231"/><path id="path24" style="fill:#100f0d;fill-opacity:1;fill-rule:nonzero;stroke:none" d="m 2248.45,29.8516 h -636.17 c -33.46,0 -70.64,20.9336 -84.41,53.5117 -13.78,32.5467 -16.6,76.8637 13.03,112.1797 l 520.39,603.797 h -429.92 c -47,0 -85.12,40.707 -85.12,90.93 0,50.222 38.12,80.894 85.12,80.894 h 579.74 c 33.45,0 68.1,-5.32 98.37,-38.484 27.66,-30.305 26.44,-95.711 -4.54,-134.715 L 1802.13,211.688 h 446.32 c 47.01,0 81.23,-40.708 81.23,-90.907 0,-50.2107 -34.22,-90.9294 -81.23,-90.9294"/><path id="path26" style="fill:#100f0d;fill-opacity:1;fill-rule:nonzero;stroke:none" d="M 487.047,0 C 345.879,0 217.852,55.9727 126.551,157.609 46.1133,247.152 0,365.137 0,481.316 0,845.91 303.078,981.785 494.133,981.785 c 187.84,0 325.73,-92.113 331.504,-96.015 42.304,-28.711 53.625,-86.723 25.285,-129.571 -28.274,-42.703 -85.274,-54.246 -127.539,-25.859 -2.465,1.578 -100.281,64.672 -229.25,64.672 -119.754,0 -284.895,-79.035 -284.895,-313.696 0,-133.496 99.301,-290.949 281.367,-290.949 102.438,0 174.458,27.293 216.325,53.934 V 383.148 H 565.066 c -50.921,0 -92.207,41.801 -92.207,93.387 0,51.574 41.286,93.387 92.207,93.387 h 234.079 c 50.918,0 92.203,-41.813 92.203,-93.387 V 198.77 c 0,-25.266 -10.102,-49.422 -27.985,-67.02 C 801.543,70.9766 665.895,0 487.047,0"/></g></g></svg>