<svg enable-background="new 0 0 234.2 42.1" viewBox="0 0 234.2 42.1" xmlns="http://www.w3.org/2000/svg"><g fill="#cf1c23"><path d="m6.5 17.7h1.7c3.6 0 6-.4 7.2-1.2s1.8-2.2 1.8-4.1c0-2.1-.6-3.6-1.9-4.5s-3.7-1.3-7.1-1.3h-1.7zm-.4 5.3v18h-6.1v-40h9.8c2.9 0 5.1.2 6.4.5 1.4.3 2.6.8 3.6 1.6 1.3.9 2.2 2.2 2.9 3.8s1.1 3.3 1.1 5.2-.4 3.6-1.1 5.2-1.7 2.9-2.9 3.8c-1 .7-2.2 1.2-3.6 1.6-1.4.3-3.5.5-6.4.5h-3.7z"/><path d="m62.3 21.1c0-2-.4-3.9-1.1-5.8-.7-1.8-1.8-3.4-3.2-4.9-1.3-1.4-2.9-2.5-4.7-3.2s-3.6-1.1-5.6-1.1-3.8.4-5.6 1.1c-1.7.8-3.3 1.8-4.7 3.3-1.4 1.4-2.4 3-3.2 4.8-.7 1.8-1.1 3.8-1.1 5.8s.4 3.9 1.1 5.7 1.8 3.4 3.2 4.8 3 2.5 4.7 3.2 3.6 1.1 5.6 1.1c1.9 0 3.8-.4 5.6-1.1s3.3-1.8 4.7-3.2 2.4-3 3.2-4.8c.7-1.8 1.1-3.7 1.1-5.7m6.8 0c0 2.8-.5 5.5-1.6 8.1-1.1 2.5-2.6 4.8-4.7 6.8s-4.4 3.5-7 4.6-5.2 1.4-8.1 1.4-5.6-.5-8.2-1.6-4.9-2.6-6.9-4.5c-2-2-3.6-4.2-4.6-6.7s-1.6-5.2-1.6-8.1.5-5.5 1.6-8.1c1.1-2.5 2.6-4.8 4.6-6.8s4.3-3.5 6.9-4.5 5.3-1.6 8.2-1.6 5.6.5 8.2 1.6c2.6 1 4.9 2.5 6.9 4.5s3.6 4.3 4.7 6.8c1 2.6 1.6 5.2 1.6 8.1"/><path d="m74.8 41v-40h6.5v34.1h14.5v5.9z"/><path d="m99.6 1h6.5v40h-6.5z"/><path d="m126.6 6.5v34.5h-6.5v-34.5h-10.6v-5.5h27.7v5.5z"/><path d="m140.6 1h6.5v40h-6.5z"/><path d="m186.8 10.7c-1.9-1.5-3.8-2.7-5.8-3.5s-4.2-1.2-6.5-1.2c-4.4 0-7.9 1.4-10.7 4.2s-4.1 6.4-4.1 10.9c0 4.3 1.3 7.9 4 10.7s6 4.2 10.1 4.2c2.4 0 4.6-.4 6.8-1.3 2.1-.8 4.2-2.1 6.2-3.8v7.3c-1.7 1.3-3.6 2.2-5.7 2.8s-4.3.9-6.7.9c-3.1 0-5.9-.5-8.5-1.5s-4.9-2.5-6.8-4.4-3.4-4.2-4.5-6.8c-1-2.6-1.6-5.4-1.6-8.3s.5-5.7 1.6-8.3c1-2.6 2.6-4.8 4.5-6.8 2-2 4.3-3.5 6.8-4.5 2.6-1 5.3-1.5 8.3-1.5 2.3 0 4.6.3 6.7 1s4.2 1.7 6.2 3.1z"/><path d="m227.4 21.1c0-2-.4-3.9-1.1-5.8-.7-1.8-1.8-3.4-3.2-4.9-1.3-1.4-2.9-2.5-4.7-3.2s-3.6-1.1-5.6-1.1-3.8.4-5.6 1.1-3.4 1.8-4.7 3.2c-1.4 1.4-2.4 3-3.2 4.8-.7 1.8-1.1 3.8-1.1 5.8s.4 3.9 1.1 5.7 1.8 3.4 3.2 4.8 3 2.5 4.7 3.2 3.6 1.1 5.6 1.1c1.9 0 3.8-.4 5.6-1.1s3.3-1.8 4.7-3.2 2.4-3 3.2-4.8c.7-1.7 1.1-3.6 1.1-5.6m6.7 0c0 2.8-.5 5.5-1.6 8.1-1.1 2.5-2.6 4.8-4.7 6.8s-4.4 3.5-7 4.6-5.3 1.6-8.1 1.6c-2.9 0-5.6-.5-8.2-1.6s-4.9-2.6-6.9-4.5c-2-2-3.6-4.2-4.6-6.7s-1.6-5.2-1.6-8.1.5-5.5 1.6-8.1c1.1-2.5 2.6-4.8 4.6-6.8s4.3-3.5 6.9-4.5 5.3-1.6 8.2-1.6 5.6.5 8.2 1.6c2.6 1 4.9 2.5 6.9 4.5s3.6 4.3 4.7 6.8c1.1 2.4 1.6 5 1.6 7.9"/></g></svg>