<svg xmlns="http://www.w3.org/2000/svg" data-name="ProPublica-wordmark" width="475" height="56"><rect id="backgroundrect" width="100%" height="100%" x="0" y="0" fill="none" stroke="none" class="" style=""/><defs><style>.cls-1{fill:#304154;}</style></defs><title>ProPublica wordmark</title><g class="currentLayer" style=""><title>Layer 1</title><path class="cls-1" d="M17.140000133514405,49.660000000000004 l9.15,1.08 v4.2 H1.335144048653092e-7 v-4.2 l5.28,-1.36 v-44 l-5.28,-1.36 V3.5527137052702805e-15 H23.610000133514404 c15.31,0 22.9,5.28 22.9,16.13 c0,11.18 -8.33,17.41 -23.1,17.41 h-6.3 zm0,-21.14 h6.84 c6.44,0 10.5,-4.61 10.5,-12.06 c0,-7.18 -3.73,-11.45 -10.09,-11.45 h-7.25 z" id="svg_2"/><path class="cls-1" d="M101.35000013351441,50.74 v4.2 H86.51000013351441 l-16,-20.6 h-2.51 v15 l5.28,1.36 v4.2 H50.880000133514415 v-4.2 l5.28,-1.36 V12.940000000000005 l-5,-1.36 V7.520000000000003 H75.8100001335144 c10.5,0 17.55,5.08 17.55,12.67 c0,8.4 -5.76,12.2 -11,13.55 l13.48,15.79 zM68.0200001335144,29.330000000000005 h4.47 c5.76,0 8.81,-3.18 8.81,-8.88 c0,-5.35 -2.85,-7.93 -8.81,-7.93 h-4.47 z" id="svg_3"/><path class="cls-1" d="M100.20000013351441,31.230000000000004 c0,-14.77 9.82,-24.73 25.68,-24.73 s25.68,10 25.68,24.73 s-9.82,24.73 -25.68,24.73 S100.20000013351441,46.07 100.20000013351441,31.230000000000004 zm38.89,0 c0,-9.69 -3.25,-19.17 -13.21,-19.17 S112.66000013351442,21.590000000000003 112.66000013351442,31.230000000000004 s3.25,19.17 13.21,19.17 S139.0900001335144,40.92 139.0900001335144,31.230000000000004 z" id="svg_4"/><path class="cls-1" d="M171.40000013351442,49.660000000000004 l9.15,1.08 v4.2 H153.9200001335144 v-4.2 l5.62,-1.36 v-44 l-5.62,-1.36 V3.5527137052702805e-15 h24 c15.31,0 22.9,5.28 22.9,16.13 c0,11.18 -8.33,17.41 -23.1,17.41 h-6.3 zm0,-21.14 h6.84 c6.44,0 10.5,-4.61 10.5,-12.06 c0,-7.18 -3.73,-11.45 -10.1,-11.45 h-7.25 z" id="svg_5"/><path class="cls-1" d="M254.8700001335144,11.590000000000003 l-4.95,1.36 V36.59 c0,12.870000000000001 -7.79,19.38 -20.05,19.38 c-13.620000000000001,0 -20.73,-7.86 -20.73,-20 v-23 L204.1900001335144,11.590000000000003 V7.520000000000003 h22 V11.590000000000003 l-5.08,1.36 V37.330000000000005 c0,7.25 4.34,12.06 11.45,12.06 c6.84,0 11.25,-4.47 11.25,-11.31 V12.940000000000005 L238.7500001335144,11.590000000000003 V7.520000000000003 h16.12 z" id="svg_6"/><path class="cls-1" d="M304.4600001335144,41.800000000000004 c0,8.88 -7.11,13.14 -22,13.14 H258.1900001335144 v-4.2 l5.5600000000000005,-1.36 V12.940000000000005 L258.8700001335144,11.590000000000003 V7.520000000000003 h23.92 c12.6,0 19.51,3.79 19.51,11.72 c0,6.17 -4.06,9.08 -10.91,9.89 v0.27 C299.9200001335144,30.35 304.4600001335144,34.690000000000005 304.4600001335144,41.800000000000004 zM275.6100001335144,27.910000000000004 h5.76 c6.1,0 9,-2.7800000000000002 9,-7.79 c0,-5.22 -3.12,-7.59 -9,-7.59 H275.6100001335144 zm16.8,13.41 c0,-5.62 -3.79,-8.67 -11.25,-8.67 H275.6100001335144 V49.93000000000001 h6.6400000000000015 C288.6800001335144,49.93000000000001 292.4000001335144,46.88 292.4000001335144,41.330000000000005 z" id="svg_7"/><path class="cls-1" d="M351.6800001335144,38.21 l-4.4,16.73 H308.6100001335144 v-4.2 l5.28,-1.36 V12.940000000000005 L308.2600001335144,11.590000000000003 V7.520000000000003 h22.76 V11.590000000000003 l-5.28,1.36 v37 l14.16,-0.81 L347.6100001335144,36.85 z" id="svg_8"/><path class="cls-1" d="M376.0100001335144,50.74 v4.2 H353.6100001335144 v-4.2 l5.28,-1.36 V12.940000000000005 L353.6100001335144,11.590000000000003 V7.520000000000003 H376.0100001335144 V11.590000000000003 l-5.28,1.36 V49.39 z" id="svg_9"/><path class="cls-1" d="M378.6100001335144,31.370000000000005 c0,-15.85 12.13,-24.86 27,-24.86 a35.6,35.6 0 0 1 18.29,5.15 l-2,13.21 h-4.2 l-1.6900000000000004,-9.08 a13.23,13.23 0 0 0 -10.09,-4.13 c-9.15,0 -14.7,6.57 -14.7,18.22 c0,13.21 6.84,19.31 15.24,19.31 c6.17,0 10.23,-3.39 13.41,-9.55 l4.27,2 c-4.27,10 -11.65,14.36 -21.07,14.36 C389.0100001335144,55.96000000000001 378.6100001335144,46.07 378.6100001335144,31.370000000000005 z" id="svg_10"/><path class="cls-1" d="M474.85000013351447,50.74 v4.2 H452.0900001335144 v-4.2 L457.6100001335144,49.59 l-2.85,-8.13 h-16.6 l-3.12,8.2 l5.42,1.15 l-0.07,4.2 l-16.53,-0.07 v-4.2 l4.27,-1.08 l14.9,-37.33 l-4,-1.29 V7.520000000000003 h13.69 L469.91000013351436,49.59 zm-27.57,-31 l-0.4700000000000001,-1.56 l-0.4700000000000001,1.56 l-6.23,16.73 h12.94 z" id="svg_11"/></g></svg>