<svg id="Layer_1" data-name="Layer 1" xmlns="http://www.w3.org/2000/svg" viewBox="0 0 475 56"><defs><style>.cls-1{fill:none;}</style></defs><title>pro-publica-copy</title><rect id="backgroundrect" class="cls-1" width="475" height="56"/><path id="svg_2" data-name="svg 2" d="M17.14,49.66l9.15,1.08v4.2H0v-4.2l5.28-1.36v-44L0,4V0H23.61c15.31,0,22.9,5.28,22.9,16.13,0,11.18-8.33,17.41-23.1,17.41h-6.3Zm0-21.14H24c6.44,0,10.5-4.61,10.5-12.06C34.48,9.28,30.75,5,24.39,5H17.14V28.52Z"/><path id="svg_3" data-name="svg 3" d="M101.35,50.74v4.2H86.51l-16-20.6H68v15l5.28,1.36v4.2H50.88V50.7l5.28-1.36V12.94l-5-1.36V7.52H75.81c10.5,0,17.55,5.08,17.55,12.67,0,8.4-5.76,12.2-11,13.55L95.84,49.53ZM68,29.33h4.47c5.76,0,8.81-3.18,8.81-8.88,0-5.35-2.85-7.93-8.81-7.93H68V29.33Z"/><path id="svg_4" data-name="svg 4" d="M100.2,31.23C100.2,16.46,110,6.5,125.88,6.5s25.68,10,25.68,24.73S141.74,56,125.88,56,100.2,46.07,100.2,31.23Zm38.89,0c0-9.69-3.25-19.17-13.21-19.17s-13.22,9.53-13.22,19.17,3.25,19.17,13.21,19.17S139.09,40.92,139.09,31.23Z"/><path id="svg_5" data-name="svg 5" d="M171.4,49.66l9.15,1.08v4.2H153.92v-4.2l5.62-1.36v-44L153.92,4V0h24c15.31,0,22.9,5.28,22.9,16.13,0,11.18-8.33,17.41-23.1,17.41h-6.3Zm0-21.14h6.84c6.44,0,10.5-4.61,10.5-12.06C188.74,9.28,185,5,178.64,5h-7.25V28.52Z"/><path id="svg_6" data-name="svg 6" d="M254.87,11.59l-4.95,1.36V36.59c0,12.87-7.79,19.38-20.05,19.38-13.62,0-20.73-7.86-20.73-20V13l-4.95-1.38V7.52h22v4.07l-5.08,1.36V37.33c0,7.25,4.34,12.06,11.45,12.06,6.84,0,11.25-4.47,11.25-11.31V12.94l-5.06-1.35V7.52h16.12v4.07Z"/><path id="svg_7" data-name="svg 7" d="M304.46,41.8c0,8.88-7.11,13.14-22,13.14H258.19v-4.2l5.56-1.36V12.94l-4.88-1.35V7.52h23.92c12.6,0,19.51,3.79,19.51,11.72,0,6.17-4.06,9.08-10.91,9.89V29.4C299.92,30.35,304.46,34.69,304.46,41.8ZM275.61,27.91h5.76c6.1,0,9-2.78,9-7.79,0-5.22-3.12-7.59-9-7.59h-5.76V27.91Zm16.8,13.41c0-5.62-3.79-8.67-11.25-8.67h-5.55V49.93h6.64c6.43,0,10.15-3,10.15-8.6h0Z"/><path id="svg_8" data-name="svg 8" d="M351.68,38.21l-4.4,16.73H308.61v-4.2l5.28-1.36V12.94l-5.63-1.35V7.52H331v4.07l-5.28,1.36V50l14.16-.81,7.71-12.29Z"/><path id="svg_9" data-name="svg 9" d="M376,50.74v4.2h-22.4v-4.2l5.28-1.36V12.94l-5.28-1.35V7.52H376v4.07l-5.28,1.36V49.39Z"/><path id="svg_10" data-name="svg 10" d="M378.61,31.37c0-15.85,12.13-24.86,27-24.86a35.6,35.6,0,0,1,18.29,5.15l-2,13.21h-4.2L416,15.79a13.23,13.23,0,0,0-10.09-4.13c-9.15,0-14.7,6.57-14.7,18.22,0,13.21,6.84,19.31,15.24,19.31,6.17,0,10.23-3.39,13.41-9.55l4.27,2C419.87,51.64,412.49,56,403.07,56,389,56,378.61,46.07,378.61,31.37Z"/><path id="svg_11" data-name="svg 11" d="M474.85,50.74v4.2H452.09v-4.2l5.52-1.15-2.85-8.13h-16.6L435,49.66l5.42,1.15L440.39,55l-16.53-.07v-4.2l4.27-1.08L443,12.33,439,11V7.52h13.69l17.19,42.07Zm-27.57-31-0.47-1.56-0.47,1.56-6.23,16.73H453Z"/></svg>