<?xml version="1.0" encoding="UTF-8" standalone="no"?>
<!-- Created with Inkscape (http://www.inkscape.org/) -->

<svg
   xmlns:dc="http://purl.org/dc/elements/1.1/"
   xmlns:cc="http://creativecommons.org/ns#"
   xmlns:rdf="http://www.w3.org/1999/02/22-rdf-syntax-ns#"
   xmlns:svg="http://www.w3.org/2000/svg"
   xmlns="http://www.w3.org/2000/svg"
   version="1.1"
   width="892.91339"
   height="105.59055"
   id="svg5172">
  <defs
     id="defs5174" />
  <metadata
     id="metadata5177">
    <rdf:RDF>
      <cc:Work
         rdf:about="">
        <dc:format>image/svg+xml</dc:format>
        <dc:type
           rdf:resource="http://purl.org/dc/dcmitype/StillImage" />
        <dc:title></dc:title>
      </cc:Work>
    </rdf:RDF>
  </metadata>
  <g
     transform="translate(-197.56958,-377.86556)"
     id="layer1">
    <g
       transform="matrix(3.5351745,0,0,3.5351745,-497.33005,-1229.1214)"
       id="g5289">
      <g
         transform="matrix(1.25,0,0,-1.25,226.69658,466.19517)"
         id="g4465">
        <path
           d="m 0,0 c 0.504,-0.252 0.906,-0.755 0.906,-1.686 l 0,-4.828 c 0,-0.831 0.73,-1.509 1.634,-2.088 L 2.968,-8.15 C 2.289,-7.647 1.51,-7.268 1.51,-6.288 l 0,4.726 c 0,1.21 -0.528,1.813 -1.031,2.015 L 0,0 z m 4.352,0 c 0.553,-0.278 1.182,-0.629 1.182,-1.786 l 0,-3.949 c 0,-1.383 0.956,-2.213 1.912,-2.867 l 0.452,0.48 c -0.729,0.475 -1.76,1.204 -1.76,2.412 l 0,4.177 c 0,1.206 -0.781,1.809 -1.257,2.01 L 4.352,0 z M 1.912,2.24 C 2.767,1.961 3.798,0.929 3.873,-0.126 L 6.338,2.24 c 0,0 0.73,-0.453 1.333,-1.109 0.504,-0.529 0.831,-1.281 0.831,-2.112 l 0,-4.427 c 0,-0.93 0.704,-1.132 0.98,-1.359 L 7.47,-8.879 c 0,0 -0.729,0.428 -1.357,1.107 C 5.61,-7.218 5.308,-6.59 5.308,-5.76 l 0,3.872 c 0,1.209 -0.654,1.486 -1.133,1.687 l -0.302,-0.251 0,-5.081 c 0,-0.905 0.529,-1.032 0.755,-1.258 L 2.54,-8.879 c 0,0 -1.86,1.033 -1.86,2.314 l 0,4.906 c 0,1.03 -0.503,1.307 -0.981,1.608 L 1.912,2.24 z"
           id="path4467"
           style="fill:#000000;fill-opacity:1;fill-rule:nonzero;stroke:none" />
      </g>
      <g
         transform="matrix(1.25,0,0,-1.25,217.54908,466.38267)"
         id="g4469">
        <path
           d="M 0,0 C -0.378,0.099 -0.805,0.528 -0.805,0.528 L -1.309,0.049 c 0.151,-0.251 0.705,-0.528 1.359,-0.552 0.453,-0.026 1.006,0.225 1.208,0.326 L 1.232,-0.102 C 0.981,-0.177 0.452,-0.128 0,0 M 2.263,0.276 C 2.816,0 2.867,-0.427 2.867,-1.359 l 0,-4.829 c 0,-0.88 0.88,-1.711 1.786,-2.263 l 0.503,0.502 C 4.477,-7.546 3.47,-7.018 3.47,-6.038 l 0,4.627 c 0,1.209 -0.1,1.837 -0.729,2.114 L 2.263,0.276 z M -1.61,-3.597 c -0.126,-0.227 -0.201,-0.831 -0.201,-1.232 0.025,-2.089 1.433,-3.143 1.961,-3.572 l 0.58,0.603 c -0.58,0.377 -1.309,1.03 -1.661,1.66 -0.302,0.528 -0.755,1.585 -0.629,2.591 l -0.05,-0.05 z m 4.25,-2.24 0,4.051 C 2.413,-1.813 1.533,-1.685 1.107,-1.962 0.804,-2.165 0.201,-2.793 0.452,-3.951 0.703,-5.132 1.911,-5.937 2.314,-6.138 L 2.64,-5.837 z M 0.175,-8.703 c -0.829,0.652 -2.213,1.735 -2.213,3.974 0,1.76 1.484,3.497 4.451,3.22 l 0.227,0 c 0,0.401 0.101,1.484 -0.603,1.634 -0.026,-0.026 -0.855,-0.831 -1.938,-0.831 -1.055,0 -1.483,0.478 -1.709,0.73 L 0.855,2.39 C 1.232,1.76 1.81,1.206 2.615,1.206 c 0.427,0 1.006,0.426 1.585,1.184 -0.051,0 1.634,-0.304 1.634,-3.12 l 0,-4.199 c 0,-0.908 0.78,-1.411 1.056,-1.56 L 4.677,-8.703 c 0,0 -2.012,1.031 -2.012,2.388 l 0,0.177 -2.49,-2.565 z"
           id="path4471"
           style="fill:#000000;fill-opacity:1;fill-rule:nonzero;stroke:none" />
      </g>
      <g
         transform="matrix(1.25,0,0,-1.25,271.34158,468.1773)"
         id="g4473">
        <path
           d="M 0,0 0.503,0.477 -0.881,1.913 -1.358,1.436 0,0 z m -5.231,1.534 c 0.478,-0.251 0.904,-0.752 0.904,-1.683 l 0,-4.755 c 0,-0.98 1.083,-1.735 1.862,-2.161 l 0.478,0.476 c -0.679,0.379 -1.736,0.881 -1.736,1.862 l 0,4.704 c 0,1.207 -0.502,1.633 -1.106,1.961 L -5.231,1.534 z m 3.873,-0.453 0,-4.727 c 0,-0.931 0.905,-1.333 1.132,-1.485 L -2.44,-7.344 c 0,0 -2.113,1.031 -2.113,2.314 l 0,4.905 c 0,0.981 -0.553,1.333 -0.98,1.61 L -3.32,3.798 C -2.565,3.547 -1.61,2.716 -1.409,1.787 L 0.68,3.798 2.44,1.963 -0.026,-0.302 -1.358,1.081 z"
           id="path4475"
           style="fill:#000000;fill-opacity:1;fill-rule:nonzero;stroke:none" />
      </g>
      <g
         transform="matrix(1.25,0,0,-1.25,303.37833,465.8188)"
         id="g4477">
        <path
           d="m 0,0 0,-0.779 c 0.277,-0.099 0.452,-0.151 0.755,-0.151 0.402,0 0.98,0.227 1.282,0.428 l 0,0.051 C 1.584,-0.476 1.334,-0.529 0.905,-0.427 0.553,-0.352 0.201,-0.125 0,0 m -3.395,-1.383 c 0.477,-0.277 0.427,-0.73 0.427,-1.005 l 0,-3.673 c 0,-1.384 0.805,-2.164 2.138,-2.842 l 0.427,0.452 c -0.829,0.478 -1.961,1.032 -1.961,2.39 l 0,3.974 c 0,0.224 -0.101,0.93 -0.629,1.107 L -3.395,-1.383 z M 0.604,1.939 C 0.956,1.61 1.283,1.157 2.213,1.081 2.541,1.056 2.993,1.181 3.295,1.434 L 3.37,1.383 C 3.32,0.553 2.716,-0.377 1.987,-0.805 1.584,-1.031 0.604,-1.358 0,-1.005 l 0,-4.729 c 0,-0.376 0.378,-0.905 0.905,-0.905 0.478,0 0.729,0.302 1.082,0.628 l 0.175,-0.176 -2.967,-2.967 c 0,0 -0.955,0.401 -1.585,1.081 -0.502,0.554 -0.805,1.032 -0.805,2.037 l 0,3.623 c 0,0.426 -0.075,0.805 -0.527,0.93 l 0,0.073 1.383,1.36 c -0.025,0.025 1.81,-0.201 2.943,1.989"
           id="path4479"
           style="fill:#000000;fill-opacity:1;fill-rule:nonzero;stroke:none" />
      </g>
      <g
         transform="matrix(1.25,0,0,-1.25,248.80008,458.93205)"
         id="g4481">
        <path
           d="m 0,0 c 0.351,0.199 0.829,0.252 1.232,0.275 1.081,0.051 2.44,-0.552 3.773,-0.552 1.132,0 1.987,0.402 2.288,0.529 L 7.268,0.351 C 6.589,0.301 5.885,0.351 4.979,0.503 3.672,0.728 2.238,1.005 1.71,1.005 0.729,1.005 0.075,0.603 -0.076,0 L 0,0 z m 9.833,2.338 c -0.98,-1.61 -2.64,-2.841 -4.828,-2.841 -1.836,0 -2.239,0.552 -3.748,0.552 -1.358,0 -2.188,-0.805 -2.087,-1.61 l -0.051,0 c -0.251,0.352 -0.427,0.855 -0.427,1.435 0.025,1.282 1.282,2.439 3.043,2.591 1.61,0.125 4.527,-0.605 5.961,-0.579 0.88,0.025 1.685,0.25 2.037,0.528 l 0.1,-0.076 z"
           id="path4483"
           style="fill:#000000;fill-opacity:1;fill-rule:nonzero;stroke:none" />
      </g>
      <g
         transform="matrix(1.25,0,0,-1.25,261.12508,466.82555)"
         id="g4485">
        <path
           d="M 0,0 0.376,0 1.056,0.755 0,0.755 0,0 z m -11.671,-7.67 0.025,-0.051 c 0.629,0.68 1.812,0.906 2.565,0.932 2.213,0.05 4.326,-1.712 4.855,-2.188 l 0.755,0.552 c -1.108,1.157 -2.918,2.313 -5.459,2.313 -0.956,0 -2.263,-0.527 -2.741,-1.558 M 0.2,6.968 l -0.227,-0.2 0,-0.857 C 0.326,5.786 1.056,5.686 1.735,5.786 2.438,5.911 3.118,6.214 3.244,6.315 L 3.268,6.389 C 2.136,6.29 1.231,6.44 0.2,6.968 m -2.767,-1.761 -0.679,-0.653 0,-9.759 c 0,0 0.227,-0.151 0.353,-0.252 0.125,-0.101 0.326,-0.326 0.326,-0.326 l 0,10.99 z M 5.406,8.879 C 5.054,6.943 3.47,5.86 1.735,5.559 1.131,5.459 0.653,5.484 0,5.609 l 0,-2.439 3.571,0 -3.094,-3.396 -0.477,0 0,-2.588 c 0,-1.008 -0.454,-2.442 -1.309,-3.725 -0.755,-1.157 -1.962,-2.062 -2.967,-2.74 0,0 -2.265,2.238 -4.805,2.238 -1.182,0 -3.194,-0.629 -3.194,-2.465 0,-1.51 1.76,-2.994 4.225,-2.994 1.661,0 2.44,0.528 2.994,0.805 l 0.151,-0.201 c -0.378,-0.251 -1.51,-0.93 -3.195,-0.93 -2.791,0 -5.03,1.484 -5.03,4.176 0,2.841 2.792,4.678 5.634,4.678 1.282,0 2.013,-0.176 4.025,-1.083 l 0,9.734 1.382,1.334 c 0.478,0.125 1.107,0.277 1.912,0.955 0.83,0.705 1.408,1.761 1.408,1.761 C 1.735,8.252 2.891,7.798 3.445,7.822 4.577,7.899 4.954,8.376 5.281,8.931 L 5.406,8.879 z"
           id="path4487"
           style="fill:#000000;fill-opacity:1;fill-rule:nonzero;stroke:none" />
      </g>
      <g
         transform="matrix(1.25,0,0,-1.25,308.09296,466.2593)"
         id="g4489">
        <path
           d="m 0,0 c 0.479,-0.252 0.906,-0.752 0.906,-1.683 l 0,-4.78 c 0,-0.88 1.107,-1.66 1.862,-2.087 l 0.478,0.502 C 2.567,-7.545 1.51,-7.092 1.51,-6.112 l 0,4.554 c 0,1.131 -0.528,1.735 -1.082,1.962 L 0,0 z m 3.874,-5.13 c 0,-0.982 0.906,-1.333 1.132,-1.483 L 2.793,-8.802 c 0,0 -2.112,1.007 -2.112,2.289 l 0,4.854 c 0,0.98 -0.554,1.333 -0.982,1.61 l 2.213,2.34 C 2.768,1.962 3.874,1.107 3.874,-0.15 l 0,-4.98 z"
           id="path4491"
           style="fill:#000000;fill-opacity:1;fill-rule:nonzero;stroke:none" />
      </g>
      <g
         transform="matrix(1.25,0,0,-1.25,320.79558,473.93018)"
         id="g4493">
        <path
           d="m 0,0 c 0.15,-0.075 0.276,-0.201 0.276,-0.201 l 0,3.07 C 0.276,2.993 0.301,3.196 0.202,3.27 0.15,3.295 0.101,3.346 0.05,3.346 l -0.377,-0.15 0,-3.044 c 0,0 0.201,-0.076 0.327,-0.152 m -4.351,5.634 c 0.252,-0.176 0.252,-0.352 0.252,-0.628 l 0,-1.41 c 0,-0.477 0,-0.779 0.151,-0.955 0.301,-0.352 1.03,-0.126 1.03,-0.126 -0.478,0.276 -0.578,0.529 -0.578,1.057 l 0,1.635 c 0,0.226 0,0.703 -0.452,0.806 L -4.351,5.634 z m 3.093,1.082 0,-0.831 c 0.352,-0.125 0.88,-0.175 1.182,-0.175 0.403,0 1.007,0.126 1.308,0.352 l 0,0.051 c -0.528,0 -0.931,-0.075 -1.433,0.075 -0.428,0.126 -0.881,0.401 -1.057,0.528 m -0.201,-9.03 c 0,0 0.101,0.177 0.176,0.301 0.076,0.127 0.201,0.302 0.201,0.302 -0.251,0.203 -0.679,0.632 -1.458,0.632 -1.006,0 -1.333,-0.48 -1.384,-0.605 l 0.051,-0.027 c 0.453,0.203 1.031,0.103 1.534,-0.049 0.427,-0.126 0.729,-0.377 0.88,-0.554 m 0.05,-0.351 c -0.025,0.025 -0.05,0 -0.05,0 -0.276,0.326 -0.729,0.754 -1.609,0.83 -0.328,0.025 -1.182,0.05 -1.51,-0.83 l -0.075,0 c -0.302,1.157 0.678,2.464 1.811,2.866 1.258,0.454 2.288,0.078 2.288,0.078 l 0,2.817 C -1.61,2.742 -2.842,2.087 -3.697,2.265 -4.05,2.341 -4.326,2.567 -4.326,3.143 l 0,1.912 c 0,0.177 0,0.227 -0.05,0.33 -0.076,0.124 -0.226,0.174 -0.226,0.174 l 0,0.075 1.056,1.031 c 0,0 1.886,-0.125 3.37,1.763 C 0.176,8.124 0.502,7.646 1.434,7.571 1.76,7.545 2.54,7.646 2.842,7.948 L 2.918,7.9 C 2.868,7.069 1.785,6.038 1.03,5.71 -0.176,5.181 -1.258,5.634 -1.258,5.634 l 0,-1.886 C 0.15,3.975 1.61,4.78 2.138,4.602 2.465,4.502 2.666,4.376 2.666,3.723 l 0,-2.691 0,-0.753 c 0,0 -0.604,-0.027 -0.956,-0.127 C 1.434,0.076 1.131,-0.05 0.679,-0.326 -0.68,-1.157 -1.409,-2.64 -1.409,-2.665"
           id="path4495"
           style="fill:#000000;fill-opacity:1;fill-rule:nonzero;stroke:none" />
      </g>
      <g
         transform="matrix(1.25,0,0,-1.25,308.91145,460.22192)"
         id="g4497">
        <path
           d="M 0,0 1.258,-1.259 1.786,-0.753 0.503,0.529 0,0 z M 2.037,2.364 3.647,0.755 1.258,-1.584 -0.327,0 2.037,2.364 z"
           id="path4499"
           style="fill:#000000;fill-opacity:1;fill-rule:nonzero;stroke:none" />
      </g>
      <g
         transform="matrix(1.25,0,0,-1.25,286.0547,466.19517)"
         id="g4501">
        <path
           d="m 0,0 c 0.503,-0.252 0.906,-0.755 0.906,-1.686 l 0,-4.828 c 0,-0.831 0.729,-1.509 1.635,-2.088 L 2.968,-8.15 C 2.29,-7.647 1.509,-7.268 1.509,-6.288 l 0,4.726 c 0,1.21 -0.528,1.813 -1.031,2.015 L 0,0 z m 4.352,0 c 0.553,-0.278 1.181,-0.629 1.181,-1.786 l 0,-3.949 c 0,-1.383 0.956,-2.213 1.912,-2.867 l 0.453,0.48 C 7.169,-7.647 6.137,-6.918 6.137,-5.71 l 0,4.177 c 0,1.206 -0.779,1.809 -1.257,2.01 L 4.352,0 z M 1.911,2.24 C 2.767,1.961 3.798,0.929 3.874,-0.126 L 6.339,2.24 c 0,0 0.729,-0.453 1.332,-1.109 0.503,-0.529 0.83,-1.281 0.83,-2.112 l 0,-4.427 c 0,-0.93 0.706,-1.132 0.982,-1.359 L 7.47,-8.879 c 0,0 -0.729,0.428 -1.358,1.107 -0.503,0.554 -0.804,1.182 -0.804,2.012 l 0,3.872 c 0,1.209 -0.655,1.486 -1.133,1.687 l -0.301,-0.251 0,-5.081 c 0,-0.905 0.527,-1.032 0.754,-1.258 L 2.541,-8.879 c 0,0 -1.861,1.033 -1.861,2.314 l 0,4.906 c 0,1.03 -0.503,1.307 -0.982,1.608 L 1.911,2.24 z"
           id="path4503"
           style="fill:#000000;fill-opacity:1;fill-rule:nonzero;stroke:none" />
      </g>
      <g
         transform="matrix(1.25,0,0,-1.25,276.9062,466.38267)"
         id="g4505">
        <path
           d="M 0,0 C -0.377,0.099 -0.804,0.528 -0.804,0.528 L -1.307,0.049 c 0.151,-0.251 0.703,-0.528 1.357,-0.552 0.453,-0.026 1.006,0.225 1.207,0.326 L 1.232,-0.102 C 0.98,-0.177 0.453,-0.128 0,0 M 2.264,0.276 C 2.817,0 2.867,-0.427 2.867,-1.359 l 0,-4.829 c 0,-0.88 0.881,-1.711 1.786,-2.263 l 0.503,0.502 c -0.679,0.403 -1.684,0.931 -1.684,1.911 l 0,4.627 c 0,1.209 -0.102,1.837 -0.73,2.114 L 2.264,0.276 z m -3.873,-3.873 c -0.125,-0.227 -0.202,-0.831 -0.202,-1.232 0.025,-2.089 1.434,-3.143 1.962,-3.572 l 0.579,0.603 c -0.579,0.377 -1.308,1.03 -1.661,1.66 -0.301,0.528 -0.754,1.585 -0.629,2.591 l -0.049,-0.05 z m 4.25,-2.24 0,4.051 C 2.414,-1.813 1.534,-1.685 1.107,-1.962 0.805,-2.165 0.201,-2.793 0.453,-3.951 0.704,-5.132 1.911,-5.937 2.313,-6.138 l 0.328,0.301 z M 0.176,-8.703 c -0.829,0.652 -2.213,1.735 -2.213,3.974 0,1.76 1.484,3.497 4.451,3.22 l 0.227,0 c 0,0.401 0.101,1.484 -0.604,1.634 -0.024,-0.026 -0.855,-0.831 -1.936,-0.831 -1.057,0 -1.484,0.478 -1.71,0.73 L 0.855,2.39 c 0.377,-0.63 0.956,-1.184 1.76,-1.184 0.429,0 1.007,0.426 1.585,1.184 -0.05,0 1.635,-0.304 1.635,-3.12 l 0,-4.199 c 0,-0.908 0.78,-1.411 1.057,-1.56 L 4.678,-8.703 c 0,0 -2.012,1.031 -2.012,2.388 l 0,0.177 -2.49,-2.565 z"
           id="path4507"
           style="fill:#000000;fill-opacity:1;fill-rule:nonzero;stroke:none" />
      </g>
      <g
         transform="matrix(1.25,0,0,-1.25,371.78733,461.0073)"
         id="g4509">
        <path
           d="m 0,0 c 0.428,-0.253 0.654,-0.88 0.654,-1.811 l 0,-8.729 c 0,-0.878 0.73,-1.558 1.635,-2.137 l 0.478,0.504 c -0.679,0.503 -1.509,0.879 -1.509,1.86 l 0,8.627 c 0,1.207 -0.302,1.861 -0.855,2.09 L 0,0 z m 4.125,-4.1 c 0.553,-0.252 1.158,-0.754 1.158,-1.863 l 0,-9.127 c 0,-1.109 0,-1.434 -0.278,-1.963 l 0.051,0 c 0.376,0.226 0.83,0.704 0.83,2.289 l 0,9.005 c 0,1.207 -0.704,1.91 -1.282,2.111 L 4.125,-4.1 z M 1.987,2.338 C 2.816,2.062 3.623,0.904 3.623,-0.603 l 0,-3.673 2.464,2.366 c 0,0 0.729,-0.48 1.333,-1.134 0.503,-0.527 0.831,-1.282 0.831,-2.113 l 0,-7.644 c 0,-0.279 -0.077,-5.158 -4,-5.158 -1.535,0 -2.013,1.233 -2.013,1.233 l 0.177,0.125 c 0,0 0.426,-0.855 1.433,-0.855 1.308,0 1.208,1.485 1.208,2.291 l 0,9.104 c 0,1.181 -0.704,1.608 -1.132,1.761 l -0.301,-0.278 0,-5.055 c 0,-0.907 0.528,-1.032 0.754,-1.257 l -2.088,-2.088 c 0,0 -1.861,1.032 -1.861,2.313 l 0,8.88 c 0,0.981 -0.327,1.483 -0.754,1.76 l 2.313,2.363 z"
           id="path4511"
           style="fill:#000000;fill-opacity:1;fill-rule:nonzero;stroke:none" />
      </g>
      <g
         transform="matrix(1.25,0,0,-1.25,360.6262,461.0073)"
         id="g4513">
        <path
           d="m 0,0 c 0,0 0.152,-0.15 0.202,-0.253 0.1,-0.199 0.1,-0.326 0.1,-0.551 l 0,-5.107 C 0,-6.061 -0.251,-6.237 -0.452,-6.44 -0.729,-6.742 -1.031,-7.242 -0.98,-7.798 l 0.049,-0.076 c 0,0 0.428,0.705 1.057,1.007 0.353,0.176 0.806,0.252 0.956,0.277 l 0,5.987 c 0,0.326 -0.076,0.578 -0.202,0.855 C 0.805,0.427 0.504,0.628 0.504,0.628 L 0,0 z m 3.547,0.779 c 0,0 0.427,-0.201 1.383,-0.177 0.729,0.026 1.585,0.302 1.911,0.454 l 0.025,0.051 c -0.551,0 -1.257,0.15 -1.81,0.301 C 4.578,1.56 4.126,1.836 3.924,1.935 l -0.377,-0.251 0,-0.905 z m -7.697,0.328 -0.075,0.05 c -1.358,-1.359 -2.514,-3.849 -2.514,-6.514 0,-4.151 2.589,-7.144 5.557,-8.2 2.39,-0.855 4.552,-0.227 4.981,-0.075 l 0.075,0.1 c -1.107,-0.075 -3.748,0.1 -5.332,0.981 -1.887,1.056 -2.868,2.138 -3.697,3.899 -0.68,1.433 -0.831,3.698 -0.604,5.256 0.452,2.992 1.609,4.503 1.609,4.503 M 3.773,3.873 3.748,3.772 c -1.057,0 -2.49,-0.125 -3.999,-1.157 -2.012,-1.383 -3.194,-3.898 -3.219,-6.288 -0.025,-3.569 2.012,-5.91 2.591,-6.16 -0.227,0.451 -0.404,1.257 -0.404,1.91 0,1.282 0.906,1.987 1.359,2.187 l 0,4.728 c 0,0.253 0.025,0.405 -0.076,0.655 -0.075,0.203 -0.301,0.303 -0.301,0.303 l 0,0.05 1.333,1.61 C 1.963,1.585 2.893,1.735 3.396,1.987 4.05,2.314 5.106,3.899 5.106,3.899 5.861,3.269 6.363,2.917 7.421,2.867 8.425,2.816 9.105,3.52 9.357,4.049 L 9.483,3.998 C 9.155,2.464 8.402,1.308 6.691,0.704 4.754,0.024 3.547,0.503 3.547,0.503 l 0,-7.496 c 0,-0.352 0.025,-0.678 -0.177,-0.881 -0.376,-0.35 -1.281,0.126 -2.112,-0.123 -0.83,-0.254 -1.885,-1.232 -1.81,-2.063 0,0 1.383,-1.057 4.149,-1.057 2.163,0 3.219,0.654 4.553,1.685 l 0.101,-0.076 c -1.283,-3.144 -3.975,-4.754 -6.918,-4.754 -4.326,0 -8.35,3.674 -8.35,8.93 0,4.729 3.42,8.5 7.169,9.231 2.489,0.478 3.621,-0.026 3.621,-0.026"
           id="path4515"
           style="fill:#000000;fill-opacity:1;fill-rule:nonzero;stroke:none" />
      </g>
      <g
         transform="matrix(1.25,0,0,-1.25,338.11558,465.8188)"
         id="g4517">
        <path
           d="M 0,0 0,-0.753 C 0.252,-0.905 0.504,-1.005 0.73,-1.207 1.107,-1.533 1.333,-1.96 1.333,-2.565 l 0,-3.848 0.554,-0.428 0.05,0.05 0,4.327 c 0,0.78 -0.226,1.233 -0.628,1.659 C 0.781,-0.226 0,0 0,0 m -3.244,-1.459 c 0.327,-0.201 0.278,-0.703 0.278,-0.98 l 0,-3.27 c 0,-1.332 1.583,-2.388 2.942,-3.168 l 0.427,0.454 c -0.83,0.475 -2.766,1.458 -2.766,2.814 l 0,3.472 c 0,0.227 0,0.956 -0.453,1.106 l -0.428,-0.428 z m 4.351,-4.804 0,3.647 c 0,0.932 -0.553,1.285 -1.107,1.585 l 0,-3.673 c 0,-0.377 0.252,-0.854 0.655,-1.207 0.176,-0.15 0.276,-0.227 0.452,-0.352 m 3.194,0.756 c 0,0 -1.458,-0.957 -2.263,-1.636 C 1.208,-7.821 0,-9.154 0,-9.154 c 0,0 -1.558,0.83 -2.188,1.508 -0.502,0.554 -1.005,1.057 -1.005,2.037 l 0,3.221 c 0,0.553 -0.101,0.755 -0.353,0.855 l 0,0.074 1.383,1.359 C -2.188,-0.076 -0.251,0.301 1.484,1.911 1.862,1.635 2.264,1.358 2.793,0.957 3.295,0.58 4.301,0.1 4.301,-1.056 l 0,-4.451 z"
           id="path4519"
           style="fill:#000000;fill-opacity:1;fill-rule:nonzero;stroke:none" />
      </g>
      <g
         transform="matrix(1.25,0,0,-1.25,329.78583,465.8188)"
         id="g4521">
        <path
           d="m 0,0 0,-0.779 c 0.276,-0.099 0.452,-0.151 0.753,-0.151 0.404,0 0.982,0.227 1.283,0.428 l 0,0.051 C 1.584,-0.476 1.331,-0.529 0.904,-0.427 0.552,-0.352 0.2,-0.125 0,0 m -3.396,-1.383 c 0.478,-0.277 0.428,-0.73 0.428,-1.005 l 0,-3.673 c 0,-1.384 0.805,-2.139 2.137,-2.842 l 0.429,0.452 c -0.83,0.478 -1.963,1.032 -1.963,2.39 l 0,3.974 c 0,0.224 -0.1,0.93 -0.629,1.107 L -3.396,-1.383 z M 0.603,1.939 C 0.956,1.61 1.282,1.157 2.213,1.081 2.539,1.056 2.992,1.181 3.294,1.434 L 3.37,1.383 C 3.319,0.553 2.716,-0.377 1.987,-0.805 1.584,-1.031 0.603,-1.358 0,-1.005 l 0,-4.729 c 0,-0.376 0.377,-0.905 0.904,-0.905 0.479,0 0.73,0.302 1.083,0.628 l 0.175,-0.176 -2.967,-2.967 c 0,0 -0.957,0.401 -1.585,1.081 -0.503,0.554 -0.805,1.032 -0.805,2.037 l 0,3.623 c 0,0.426 -0.075,0.805 -0.528,0.93 l 0,0.073 1.382,1.36 c -0.024,0.025 1.813,-0.201 2.944,1.989"
           id="path4523"
           style="fill:#000000;fill-opacity:1;fill-rule:nonzero;stroke:none" />
      </g>
      <g
         transform="matrix(1.25,0,0,-1.25,390.11583,468.02005)"
         id="g4525">
        <path
           d="M 0,0 0.506,0.479 -0.879,1.913 -1.357,1.435 0,0 z m -5.23,1.535 c 0.478,-0.25 0.906,-0.754 0.906,-1.684 l 0,-4.753 c 0,-0.983 1.08,-1.737 1.861,-2.165 l 0.476,0.478 c -0.678,0.377 -1.734,0.881 -1.734,1.861 l 0,4.704 c 0,1.206 -0.502,1.635 -1.107,1.961 L -5.23,1.535 z m 3.873,-0.453 0,-4.729 c 0,-0.929 0.906,-1.331 1.132,-1.483 L -2.44,-7.344 c 0,0 -2.111,1.032 -2.111,2.314 l 0,4.904 c 0,0.982 -0.553,1.334 -0.982,1.61 l 2.214,2.315 c 0.754,-0.252 1.71,-1.081 1.911,-2.012 l 2.087,2.012 1.76,-1.837 -2.463,-2.263 -1.333,1.383 z"
           id="path4527"
           style="fill:#000000;fill-opacity:1;fill-rule:nonzero;stroke:none" />
      </g>
      <g
         transform="matrix(1.25,0,0,-1.25,396.96971,465.75467)"
         id="g4529">
        <path
           d="m 0,0 0,-0.754 c 0.251,-0.152 0.503,-0.252 0.73,-0.454 0.377,-0.326 0.603,-0.753 0.603,-1.358 l 0,-3.849 0.555,-0.428 0.051,0.053 0,4.325 c 0,0.781 -0.227,1.233 -0.63,1.661 C 0.78,-0.227 0,0 0,0 m -3.244,-1.461 c 0.328,-0.198 0.276,-0.704 0.276,-0.979 l 0,-3.27 c 0,-1.334 1.585,-2.389 2.942,-3.169 l 0.429,0.453 c -0.829,0.477 -2.767,1.458 -2.767,2.817 l 0,3.47 c 0,0.225 0,0.955 -0.45,1.108 l -0.43,-0.43 z m 4.351,-4.801 0,3.645 c 0,0.933 -0.554,1.284 -1.107,1.586 L 0,-4.703 C 0,-5.081 0.251,-5.558 0.655,-5.911 0.83,-6.062 0.932,-6.137 1.107,-6.262 m 3.195,0.754 c 0,0 -1.457,-0.956 -2.263,-1.636 C 1.208,-7.822 0,-9.156 0,-9.156 c 0,0 -1.559,0.83 -2.187,1.51 -0.503,0.554 -1.006,1.055 -1.006,2.037 l 0,3.219 c 0,0.554 -0.103,0.754 -0.353,0.856 l 0,0.073 1.384,1.359 c -0.025,0.026 1.91,0.405 3.648,2.013 0.376,-0.278 0.78,-0.552 1.306,-0.955 0.503,-0.379 1.51,-0.855 1.51,-2.012 l 0,-4.452 z"
           id="path4531"
           style="fill:#000000;fill-opacity:1;fill-rule:nonzero;stroke:none" />
      </g>
      <g
         transform="matrix(1.25,0,0,-1.25,432.3317,461.0388)"
         id="g4533">
        <path
           d="m 0,0 c 0.428,-0.252 0.68,-0.779 0.68,-1.71 l 0,-8.805 c 0,-0.98 0.955,-1.583 1.86,-2.161 l 0.454,0.452 c -0.68,0.502 -1.711,0.906 -1.711,1.936 l 0,8.653 c 0,1.208 -0.328,1.835 -0.905,2.036 L 0,0 z m 3.647,-9.257 c 0,-1.056 0.904,-1.358 1.131,-1.484 l -2.212,-2.212 c 0,0 -2.112,1.032 -2.112,2.314 l 0,8.954 c 0,0.981 -0.327,1.383 -0.806,1.66 L 1.862,2.289 C 2.717,2.012 3.647,0.83 3.647,-0.277 l 0,-8.98 z"
           id="path4535"
           style="fill:#000000;fill-opacity:1;fill-rule:nonzero;stroke:none" />
      </g>
      <g
         transform="matrix(1.25,0,0,-1.25,443.42845,465.85017)"
         id="g4537">
        <path
           d="M 0,0 0,-0.929 1.133,-2.388 1.661,-1.987 0.052,0.051 0,0 z m -3.419,-1.409 c 0.478,-0.275 0.452,-0.728 0.452,-1.004 l 0,-3.573 c 0,-1.408 0.829,-2.189 2.139,-2.866 l 0.477,0.454 c -0.831,0.45 -2.013,0.929 -2.013,2.463 l 0,3.824 c 0,0.226 -0.124,0.979 -0.653,1.105 L -3.419,-1.409 z M 0.932,-2.54 0,-1.358 0,-3.219 0.932,-2.54 z M 0,-3.546 0,-5.66 c 0,-0.376 0.379,-0.904 0.907,-0.904 0.477,0 0.727,0.301 1.08,0.629 l 0.229,-0.202 -3.019,-2.992 c 0,0 -0.982,0.427 -1.611,1.106 -0.502,0.554 -0.779,1.257 -0.779,2.064 l 0,3.596 c 0,0.428 -0.176,0.78 -0.528,0.855 l 0,0.074 1.381,1.359 c -0.024,0.025 2.267,-0.025 3.598,2.011 0,0 0.403,-0.527 1.083,-1.207 0.577,-0.577 1.206,-1.283 1.432,-1.483 0,0 -3.118,-2.288 -3.773,-2.792"
           id="path4539"
           style="fill:#000000;fill-opacity:1;fill-rule:nonzero;stroke:none" />
      </g>
      <g
         transform="matrix(1.25,0,0,-1.25,427.7097,465.8188)"
         id="g4541">
        <path
           d="m 0,0 0,-0.779 c 0.276,-0.099 0.452,-0.151 0.755,-0.151 0.402,0 0.981,0.227 1.283,0.428 l 0,0.051 C 1.586,-0.476 1.334,-0.529 0.905,-0.427 0.555,-0.352 0.202,-0.125 0,0 m -3.395,-1.383 c 0.479,-0.277 0.429,-0.73 0.429,-1.005 l 0,-3.673 c 0,-1.384 0.828,-2.164 2.136,-2.842 l 0.43,0.452 c -0.831,0.478 -1.963,1.032 -1.963,2.39 l 0,3.974 c 0,0.224 -0.099,0.93 -0.628,1.107 L -3.395,-1.383 z M 0.604,1.939 C 0.956,1.61 1.284,1.157 2.214,1.081 2.541,1.056 2.993,1.181 3.295,1.434 L 3.371,1.383 C 3.321,0.553 2.715,-0.377 1.987,-0.805 1.586,-1.031 0.604,-1.358 0,-1.005 l 0,-4.729 c 0,-0.376 0.377,-0.905 0.905,-0.905 0.479,0 0.731,0.302 1.082,0.628 l 0.177,-0.176 -2.968,-2.967 c 0,0 -0.956,0.401 -1.586,1.081 -0.502,0.554 -0.804,1.032 -0.804,2.037 l 0,3.623 c 0,0.426 -0.074,0.805 -0.528,0.93 l 0,0.073 1.383,1.36 c -0.024,0.025 1.812,-0.201 2.943,1.989"
           id="path4543"
           style="fill:#000000;fill-opacity:1;fill-rule:nonzero;stroke:none" />
      </g>
      <g
         transform="matrix(1.25,0,0,-1.25,416.33046,466.2593)"
         id="g4545">
        <path
           d="m 0,0 c 0.477,-0.252 0.905,-0.752 0.905,-1.683 l 0,-4.78 c 0,-0.88 1.106,-1.66 1.862,-2.087 l 0.477,0.502 c -0.68,0.503 -1.737,0.956 -1.737,1.936 l 0,4.554 c 0,1.131 -0.529,1.735 -1.081,1.962 L 0,0 z m 3.871,-5.13 c 0,-0.982 0.907,-1.333 1.132,-1.483 L 2.792,-8.802 c 0,0 -2.114,1.007 -2.114,2.289 l 0,4.854 c 0,0.98 -0.553,1.333 -0.98,1.61 l 2.211,2.34 C 2.767,1.962 3.871,1.107 3.871,-0.15 l 0,-4.98 z"
           id="path4547"
           style="fill:#000000;fill-opacity:1;fill-rule:nonzero;stroke:none" />
      </g>
      <g
         transform="matrix(1.25,0,0,-1.25,417.14695,460.22192)"
         id="g4549">
        <path
           d="M 0,0 1.256,-1.259 1.785,-0.753 0.504,0.529 0,0 z M 2.036,2.364 3.645,0.755 1.256,-1.584 -0.327,0 2.036,2.364 z"
           id="path4551"
           style="fill:#000000;fill-opacity:1;fill-rule:nonzero;stroke:none" />
      </g>
      <g
         transform="matrix(1.25,0,0,-1.25,404.00445,466.19517)"
         id="g4553">
        <path
           d="m 0,0 c 0.505,-0.252 0.905,-0.755 0.905,-1.686 l 0,-4.828 c 0,-0.831 0.73,-1.509 1.636,-2.088 l 0.427,0.452 c -0.679,0.503 -1.459,0.882 -1.459,1.862 l 0,4.726 c 0,1.21 -0.529,1.813 -1.032,2.015 L 0,0 z m 4.351,0 c 0.554,-0.278 1.184,-0.629 1.184,-1.786 l 0,-3.949 c 0,-1.383 0.954,-2.213 1.91,-2.867 l 0.453,0.48 c -0.73,0.475 -1.759,1.204 -1.759,2.412 l 0,4.177 c 0,1.206 -0.781,1.809 -1.26,2.01 L 4.351,0 z M 1.911,2.24 C 2.768,1.961 3.797,0.929 3.873,-0.126 L 6.338,2.24 c 0,0 0.73,-0.453 1.334,-1.109 0.503,-0.529 0.83,-1.281 0.83,-2.112 l 0,-4.427 c 0,-0.93 0.703,-1.132 0.98,-1.359 L 7.47,-8.879 c 0,0 -0.729,0.428 -1.356,1.107 -0.505,0.554 -0.805,1.182 -0.805,2.012 l 0,3.872 c 0,1.209 -0.656,1.486 -1.134,1.687 l -0.302,-0.251 0,-5.081 c 0,-0.905 0.529,-1.032 0.755,-1.258 L 2.541,-8.879 c 0,0 -1.863,1.033 -1.863,2.314 l 0,4.906 c 0,1.03 -0.502,1.307 -0.978,1.608 L 1.911,2.24 z"
           id="path4555"
           style="fill:#000000;fill-opacity:1;fill-rule:nonzero;stroke:none" />
      </g>
      <g
         transform="matrix(1.25,0,0,-1.25,250.36696,466.77605)"
         id="g4557">
        <path
           d="m 0,0 c 0.326,0.177 0.777,0.177 1.481,0.151 l 0,-3.164 c 0,0 0.251,0.052 0.351,0.077 0.101,0.024 0.327,0.124 0.327,0.124 l 0,3.641 -0.929,0 C 0.928,0.829 0.577,0.755 0.426,0.678 0.15,0.553 -0.076,0.302 -0.076,0.026 L 0,0 z m 1.456,4.069 0,-1.056 0.627,0 0,1.657 -0.627,-0.601 z m 0.627,0.878 2.336,0 0,-4.418 c 0,-2.286 -1.281,-3.49 -3.164,-3.819 l 0,3.215 c 0,0 -0.653,0 -0.804,-0.026 -0.804,-0.151 -0.804,-0.376 -0.903,-0.727 l -0.051,0 c -0.402,0.377 -0.652,0.979 -0.652,1.532 0,1.254 1.029,2.259 2.41,2.309 l 0,1.13 0.828,0.804 z"
           id="path4559"
           style="fill:#000000;fill-opacity:1;fill-rule:nonzero;stroke:none" />
      </g>
      <g
         transform="matrix(1.25,0,0,-1.25,199.92196,465.25243)"
         id="g4561">
        <path
           d="M 0,0 C -0.049,-0.326 -0.1,-1.206 0.427,-2.06 1.005,-2.988 2.662,-3.566 4.319,-3.816 5.926,-4.068 7.358,-4.37 8.161,-4.82 8.613,-5.072 9.065,-5.625 9.014,-6.077 l 0.051,0 C 9.467,-5.75 9.643,-4.445 8.286,-3.767 7.383,-3.315 5.951,-3.089 4.445,-2.863 3.34,-2.687 2.512,-2.612 1.607,-2.06 0.905,-1.633 0.302,-1.181 0.051,0 L 0,0 z m 0.678,1.079 c 1.181,-1.154 2.813,-1.632 4.62,-1.883 2.486,-0.351 4.947,-0.879 4.847,-3.44 -0.051,-1.179 -0.829,-1.908 -1.255,-2.26 l -0.077,0.05 c 0.051,0.127 0.026,0.327 -0.024,0.477 -0.904,2.763 -9.241,0.628 -9.065,5.626 0.025,0.701 0.377,1.405 0.678,1.782 0,0 0.051,-0.151 0.276,-0.352"
           id="path4563"
           style="fill:#000000;fill-opacity:1;fill-rule:nonzero;stroke:none" />
      </g>
      <g
         transform="matrix(1.25,0,0,-1.25,204.75583,457.62618)"
         id="g4565">
        <path
           d="M 0,0 C 0.829,-0.1 1.557,-0.301 2.185,-0.578 3.164,-1.029 3.943,-1.582 4.269,-1.782 L 4.771,-1.13 C 4.344,-0.854 3.339,-0.277 2.486,0.049 1.883,0.277 0.753,0.502 0,0.049 L 0,0 z m -4.319,-14.462 0.051,-0.076 c 0.251,0.301 1.406,0.754 2.335,0.704 2.762,-0.127 4.143,-1.809 4.795,-2.437 l 0.729,0.628 c -1.03,1.08 -2.988,2.41 -4.997,2.41 -1.531,0 -2.51,-0.577 -2.913,-1.229 m 0.804,12.98 c 0.803,2.487 3.44,3.165 5.298,3.139 C 3.516,1.632 5.574,0.628 6.101,0.175 L 4.294,-2.084 c -0.603,0.402 -2.813,1.883 -4.696,1.883 -1.23,0 -2.587,-0.377 -2.611,-1.431 -0.05,-1.532 3.842,-1.631 5.725,-2.059 4.896,-1.13 5.147,-3.39 4.971,-5.297 -0.325,-3.492 -3.49,-6.53 -4.871,-7.61 0,0 -1.883,2.488 -4.871,2.488 -1.305,0 -2.963,-0.755 -2.963,-2.211 0,-1.932 1.984,-3.088 3.917,-3.164 1.155,-0.049 2.26,0.529 2.461,0.627 l 0.101,-0.225 c -0.704,-0.301 -1.482,-0.678 -2.662,-0.678 -1.984,0 -4.544,1.306 -4.544,3.917 0,3.214 3.037,4.796 5.272,4.796 3.439,0 4.871,-1.883 5.374,-2.359 0.075,-0.052 1.732,1.329 1.883,2.912 0.352,3.816 -3.867,4.017 -5.073,4.218 -2.083,0.351 -6.503,0.854 -5.222,4.795"
           id="path4567"
           style="fill:#000000;fill-opacity:1;fill-rule:nonzero;stroke:none" />
      </g>
    </g>
  </g>
</svg>
