<?xml version="1.0" encoding="UTF-8" standalone="no"?>
<!-- Created with Inkscape (http://www.inkscape.org/) -->
<svg xmlns:svg="http://www.w3.org/2000/svg" xmlns="http://www.w3.org/2000/svg" version="1.0" width="602.36218" height="67.641731" id="svg7412">
  <defs id="defs7414"/>
  <g id="layer1">
    <path d="M 154.36039,8.8582671 L 145.84937,53.193117 C 145.30022,56.057338 144.08848,56.570149 141.94755,56.570149 L 141.3771,56.570149 L 141.3771,58.395558 L 151.85044,58.395558 L 151.85044,56.570149 L 151.59944,56.570149 C 149.07214,56.570149 148.47341,55.985449 148.47341,54.470921 C 148.47341,54.038188 148.57162,53.608165 148.67878,53.010576 L 149.81965,46.507518 L 158.14813,46.507518 L 159.31183,53.010576 C 159.40971,53.556634 159.49438,54.069093 159.49438,54.470921 C 159.49438,55.882407 158.71827,56.570149 156.18581,56.570149 L 155.82073,56.570149 L 155.82073,58.395558 L 169.71673,58.395558 L 193.219,58.395558 L 193.219,41.487619 L 191.57611,41.487619 L 191.57611,41.670171 C 191.57611,48.779192 189.84564,56.250677 183.24763,56.250698 L 179.64244,56.250698 L 179.64244,13.946611 C 179.64244,11.927243 180.68131,11.185659 182.33493,11.185669 L 183.49864,11.185669 L 183.49864,9.3374281 L 168.91811,9.3374281 L 168.91811,11.185669 L 170.26435,11.185669 C 171.91695,11.185669 172.95684,11.927254 172.95684,13.946611 L 172.95684,53.809197 C 172.95684,55.838867 171.91695,56.570149 170.26435,56.570149 L 169.71673,56.570149 L 169.28319,56.570149 C 168.12102,56.570149 166.75312,55.668752 166.22561,53.010576 L 157.48641,8.8582671 L 154.36039,8.8582671 z M 546.14087,8.8582671 L 537.62986,53.193117 C 537.07761,56.057338 535.84719,56.570149 533.70522,56.570149 L 533.15759,56.570149 L 533.15759,58.395558 L 543.63094,58.395558 L 543.63094,56.570149 L 543.37993,56.570149 C 540.85159,56.570149 540.25389,55.985449 540.2539,54.470921 C 540.2539,54.038188 540.3293,53.608165 540.43644,53.010576 L 541.60015,46.507518 L 549.92862,46.507518 L 551.09233,53.010576 C 551.1902,53.556634 551.27488,54.069093 551.27488,54.470921 C 551.27488,55.882407 550.5008,56.570149 547.9663,56.570149 L 547.60121,56.570149 L 547.60121,58.395558 L 561.49722,58.395558 L 584.99947,58.395558 L 584.99947,41.533252 L 583.33379,41.533252 L 583.33379,41.715804 C 583.33379,48.763001 581.62822,56.250677 575.02812,56.250698 L 571.40011,56.250698 L 571.40011,13.946611 C 571.40011,11.927243 572.45973,11.185659 574.11542,11.185669 L 575.2563,11.185669 L 575.2563,9.3374281 L 560.69859,9.3374281 L 560.69859,11.185669 L 562.04484,11.185669 C 563.69743,11.185669 564.73731,11.927254 564.73733,13.946611 L 564.73733,53.809197 C 564.73733,55.838867 563.69744,56.570149 562.04484,56.570149 L 561.49722,56.570149 L 561.06368,56.570149 C 559.90047,56.570149 558.53462,55.668752 558.0061,53.010576 L 549.26691,8.8582671 L 546.14087,8.8582671 z M 242.2543,8.9723551 C 236.82052,8.9723551 232.26013,12.81147 232.26013,20.198682 C 232.26013,27.369526 236.52052,31.664115 241.13624,35.167114 C 246.22897,39.030711 249.78415,43.130754 249.78415,48.766476 C 249.78415,53.938547 247.7739,56.570149 243.23547,56.570149 C 240.24349,56.570149 234.29091,53.850499 234.29091,42.012423 L 234.29091,41.533252 L 232.64804,41.533252 L 232.64804,58.395558 L 233.92582,58.395558 L 235.08952,55.839971 C 237.23048,57.31329 239.25759,58.783454 243.71464,58.783464 C 249.84798,58.783464 255.10068,55.192911 255.10068,46.507518 C 255.10068,37.595487 250.77564,33.011889 245.17497,28.664057 C 240.12138,24.728334 237.41695,22.099084 237.41695,17.483364 C 237.41695,13.609464 239.21354,11.185659 242.66501,11.185669 C 248.11116,11.185669 250.87941,16.702602 250.87941,25.903116 L 250.87941,26.382287 L 252.52229,26.382287 L 252.52229,9.4515261 L 251.31295,9.4515261 L 250.08078,11.847383 C 248.87224,10.796486 246.77317,8.9723761 242.2543,8.9723551 z M 436.63857,8.9723551 C 428.28806,8.9723551 423.90626,19.802227 423.90627,33.752412 C 423.90627,47.692282 428.47762,58.783454 436.63857,58.783464 C 444.99116,58.783464 449.55341,47.692272 449.55341,33.752412 C 449.55341,19.802238 444.89638,8.9723761 436.63857,8.9723551 z M 8.8517018,9.3374281 L 8.8517018,26.313833 L 10.517391,26.313833 L 10.517391,26.154102 C 10.517391,17.808723 13.497721,11.48233 16.997637,11.48231 L 18.27542,11.48231 L 18.27542,53.740743 C 18.27542,55.76011 17.238609,56.570149 15.582934,56.570149 L 14.168231,56.570149 L 14.168231,58.395558 L 29.227939,58.395558 L 29.227939,56.570149 L 27.699149,56.570149 C 26.044505,56.570149 25.006652,55.770412 25.006662,53.740743 L 25.006662,11.48231 L 26.48981,11.48231 C 29.989715,11.48231 32.970045,18.241447 32.970045,26.154102 L 32.970045,26.313833 L 34.612923,26.313833 L 34.612923,9.3374281 L 8.8517018,9.3374281 z M 35.411546,9.3374281 L 35.411546,11.185669 L 36.712151,11.185669 C 38.367847,11.185669 39.404647,11.972897 39.404647,13.992254 L 39.404647,53.740743 C 39.404647,55.76011 38.367847,56.570149 36.712151,56.570149 L 35.411546,56.570149 L 35.411546,58.395558 L 50.10617,58.395558 L 50.10617,56.570149 L 48.828376,56.570149 C 47.173722,56.570149 46.135869,55.770412 46.135879,53.740743 L 46.135879,34.482579 L 56.837401,34.482579 L 56.837401,53.740743 C 56.837401,55.76011 55.799549,56.570149 54.144895,56.570149 L 52.912744,56.570149 L 52.912744,58.395558 L 67.538914,58.395558 L 67.538914,56.570149 L 66.26112,56.570149 C 64.606466,56.570149 63.568633,55.770412 63.568633,53.740743 L 63.568633,13.992254 C 63.568633,11.972887 64.606476,11.185659 66.26112,11.185669 L 67.538914,11.185669 L 67.538914,9.3374281 L 52.912744,9.3374281 L 52.912744,11.185669 L 54.144895,11.185669 C 55.799549,11.185669 56.837401,11.972897 56.837401,13.992254 L 56.837401,31.835716 L 46.135879,31.835716 L 46.135879,13.992254 C 46.135879,11.972887 47.173722,11.185659 48.828376,11.185669 L 50.10617,11.185669 L 50.10617,9.3374281 L 35.411546,9.3374281 z M 69.136159,9.3374281 L 69.136159,11.185669 L 70.482397,11.185669 C 72.134999,11.185669 73.106429,11.962585 73.106439,13.992254 L 73.106439,53.740743 C 73.106439,55.76011 72.134999,56.570149 70.482397,56.570149 L 69.204614,56.570149 L 69.204614,58.395558 L 94.167211,58.395558 L 94.167211,41.601707 L 92.524331,41.601707 L 92.524331,41.784259 C 92.524331,50.92296 89.166804,56.250677 83.693864,56.250698 L 79.837671,56.250698 L 79.837671,34.04904 L 80.88729,34.04904 C 84.071921,34.04904 85.473662,37.235064 85.473662,43.427126 L 85.473662,43.564035 L 87.139351,43.564035 L 87.139351,22.343543 L 85.473662,22.343543 L 85.473662,22.526084 C 85.473662,28.852096 84.007025,31.835705 80.88729,31.835716 L 79.837671,31.835716 L 79.837671,11.48231 L 83.944871,11.48231 C 89.484749,11.48231 92.524331,16.013066 92.524331,26.017193 L 92.524331,26.199735 L 94.167211,26.199735 L 94.167211,9.3374281 L 69.136159,9.3374281 z M 105.53044,9.3374281 L 105.53044,11.185669 L 105.71297,11.185669 C 108.19702,11.185669 109.01179,11.727181 109.56918,14.53988 L 118.30838,58.783464 L 121.06932,58.783464 L 126.75092,30.557932 L 126.81939,30.557932 L 132.38691,58.783464 L 135.14786,58.783464 L 144.06959,15.657954 C 144.90825,11.608896 146.11919,11.185659 148.47341,11.185669 L 148.9754,11.185669 L 148.9754,9.3374281 L 137.88599,9.3374281 L 137.88599,11.185669 L 138.27388,11.185669 C 140.86714,11.185669 141.51401,12.024408 141.51401,13.992254 C 141.51401,14.352862 141.45437,14.743841 141.3771,15.15596 L 136.12901,43.815031 L 135.99211,43.815031 L 130.42458,15.224415 C 130.3164,14.657762 130.241,14.148943 130.24204,13.695625 C 130.24616,12.005949 130.73961,11.185659 133.18553,11.185669 L 133.43652,11.185669 L 133.43652,9.3374281 L 120.33915,9.3374281 L 120.33915,11.185669 L 120.63578,11.185669 C 122.60673,11.185669 123.17687,12.087789 123.64771,14.53988 L 125.54159,24.488413 L 121.91357,44.180105 L 121.79948,44.180105 L 116.23196,14.243251 C 116.16397,13.882632 116.16351,13.436481 116.16351,13.147998 C 116.16351,11.860119 116.65023,11.185659 118.55936,11.185669 L 118.81037,11.185669 L 118.81037,9.3374281 L 105.53044,9.3374281 z M 194.45115,9.3374281 L 194.45115,11.185669 L 195.79739,11.185669 C 197.45102,11.185669 198.48988,11.927254 198.48988,13.946611 L 198.48988,53.809197 C 198.48988,55.838867 197.45102,56.570149 195.79739,56.570149 L 194.08606,56.570149 L 194.08606,58.395558 L 218.75204,58.395558 L 218.75204,41.533252 L 217.08634,41.533252 L 217.08634,41.715804 C 217.08634,48.701188 215.35689,56.250677 208.75787,56.250698 L 205.15266,56.250698 L 205.15266,13.946611 C 205.15266,11.927243 206.19154,11.185659 207.84516,11.185669 L 209.00887,11.185669 L 209.00887,9.3374281 L 194.45115,9.3374281 z M 255.16914,9.3374281 L 255.16914,26.336654 L 256.81201,26.336654 L 256.81201,26.154102 C 256.81201,17.808723 259.79028,11.48233 263.29225,11.48231 L 264.59287,11.48231 L 264.59287,53.740743 C 264.59287,55.76011 263.55398,56.570149 261.90037,56.570149 L 260.48566,56.570149 L 260.48566,58.395558 L 275.54537,58.395558 L 275.54537,56.570149 L 274.01659,56.570149 C 272.3609,56.570149 271.3241,55.770412 271.3241,53.740743 L 271.3241,11.48231 L 272.78442,11.48231 C 276.28536,11.48231 279.26467,18.241447 279.26467,26.154102 L 279.26467,26.336654 L 280.93036,26.336654 L 280.93036,9.3374281 L 255.16914,9.3374281 z M 282.5276,9.3374281 L 282.5276,11.185669 L 283.91948,11.185669 C 285.57517,11.185669 286.61197,11.962585 286.61197,13.992254 L 286.61197,53.740743 C 286.61197,55.76011 285.57517,56.570149 283.91948,56.570149 L 282.5276,56.570149 L 282.5276,58.395558 L 297.4504,58.395558 L 297.4504,56.570149 L 295.73908,56.570149 C 294.08339,56.570149 293.29757,55.7601 293.29757,53.740743 L 293.29757,34.414124 L 295.05454,34.414124 C 297.82396,34.414124 299.66318,35.72001 299.89189,40.552087 L 300.32543,49.702008 C 300.61185,55.791038 302.31762,58.783454 306.32649,58.783464 C 310.33949,58.783464 311.89402,55.820852 311.89402,51.709959 L 311.89402,49.200015 L 309.86325,49.200015 L 309.86325,50.979802 C 309.86325,54.163412 309.62588,55.086981 308.40291,55.086991 C 307.42516,55.086991 307.16792,54.448481 307.05666,52.32604 L 306.50904,41.601707 C 306.27207,36.975683 302.57277,33.934159 298.50001,33.501415 L 298.50001,33.387327 C 303.46603,32.408544 309.08743,29.333876 309.08744,21.225479 C 309.08744,13.487972 304.01662,9.3374181 295.92161,9.3374281 L 282.5276,9.3374281 z M 312.25911,9.3374281 L 312.25911,11.185669 L 313.60536,11.185669 C 315.25897,11.185669 316.22939,11.962585 316.22939,13.992254 L 316.22939,53.740743 C 316.22939,55.76011 315.25898,56.570149 313.60536,56.570149 L 312.32756,56.570149 L 312.32756,58.395558 L 337.29016,58.395558 L 337.29016,41.601707 L 335.64729,41.601707 L 335.64729,41.784259 C 335.64729,50.92296 332.28871,56.250677 326.81682,56.250698 L 322.96063,56.250698 L 322.96063,34.04904 L 324.01024,34.04904 C 327.19281,34.04904 328.5966,37.235064 328.5966,43.427126 L 328.5966,43.564035 L 330.2623,43.564035 L 330.2623,22.343543 L 328.5966,22.343543 L 328.5966,22.526084 C 328.5966,28.852096 327.12791,31.835705 324.01024,31.835716 L 322.96063,31.835716 L 322.96063,11.48231 L 327.06782,11.48231 C 332.60667,11.48231 335.64729,16.013066 335.64729,26.017193 L 335.64729,26.199735 L 337.29016,26.199735 L 337.29016,9.3374281 L 312.25911,9.3374281 z M 338.95585,9.3374281 L 338.95585,11.185669 L 340.3021,11.185669 C 341.95469,11.185669 342.92613,11.962585 342.92613,13.992254 L 342.92613,53.740743 C 342.92613,55.76011 341.95469,56.570149 340.3021,56.570149 L 339.00149,56.570149 L 339.00149,58.395558 L 363.98691,58.395558 L 363.98691,41.601707 L 362.32121,41.601707 L 362.32121,41.784259 C 362.32121,50.92296 358.98547,56.250677 353.51357,56.250698 L 349.65736,56.250698 L 349.65736,34.04904 L 350.70699,34.04904 C 353.88854,34.04904 355.29335,37.235064 355.29335,43.427126 L 355.29335,43.564035 L 356.93624,43.564035 L 356.93624,22.343543 L 355.29335,22.343543 L 355.29335,22.526084 C 355.29335,28.852096 353.82569,31.835705 350.70699,31.835716 L 349.65736,31.835716 L 349.65736,11.48231 L 353.76457,11.48231 C 359.30342,11.48231 362.32121,16.013066 362.32121,26.017193 L 362.32121,26.199735 L 363.98691,26.199735 L 363.98691,9.3374281 L 338.95585,9.3374281 z M 366.10895,9.3374281 L 366.10895,26.336654 L 367.77466,26.336654 L 367.77466,26.154102 C 367.77466,17.808723 370.75396,11.48233 374.25489,11.48231 L 375.53268,11.48231 L 375.53268,53.740743 C 375.53268,55.76011 374.4938,56.570149 372.84019,56.570149 L 371.44831,56.570149 L 371.44831,58.395558 L 386.50801,58.395558 L 386.50801,56.570149 L 384.97922,56.570149 C 383.32354,56.570149 382.26392,55.770412 382.26391,53.740743 L 382.26391,11.48231 L 383.74707,11.48231 C 387.24696,11.48231 390.2273,18.241447 390.2273,26.154102 L 390.2273,26.336654 L 391.893,26.336654 L 391.893,9.3374281 L 366.10895,9.3374281 z M 409.5311,9.3374281 L 409.5311,11.185669 L 410.80891,11.185669 C 412.46561,11.185669 413.45575,11.962585 413.45576,13.992254 L 413.45576,49.519466 C 413.45576,54.804862 412.35375,56.570149 409.16603,56.570149 C 405.84228,56.570149 403.89512,53.618117 403.89512,51.09389 C 406.14426,50.764198 407.88823,49.532924 407.88823,46.575972 C 407.88823,44.25781 406.49393,42.87952 404.57967,42.8795 C 402.73234,42.8795 400.404,44.489181 400.40401,48.21885 C 400.40401,55.163026 404.83511,58.783454 409.23448,58.783464 C 415.38121,58.783464 420.187,55.894534 420.18699,48.21885 L 420.18699,13.992254 C 420.18699,11.962574 421.21967,11.185659 422.87948,11.185669 L 424.08882,11.185669 L 424.08882,9.3374281 L 409.5311,9.3374281 z M 449.43932,9.3374281 L 449.43932,11.185669 L 450.78556,11.185669 C 452.44331,11.185669 453.40961,11.962585 453.40961,13.992254 L 453.40961,47.420238 C 453.40961,54.178974 457.77192,58.783454 465.2292,58.783464 C 472.24446,58.783464 474.40192,53.93172 474.40192,47.420238 L 474.40192,14.722422 C 474.40192,12.455771 475.31551,11.185659 476.84343,11.185669 L 479.42183,11.185669 C 481.03602,11.208285 482.04586,11.99182 482.04586,13.992254 L 482.04586,53.740743 C 482.04586,55.76011 481.00905,56.570149 479.35337,56.570149 L 477.96149,56.570149 L 477.96149,58.395558 L 492.88429,58.395558 L 492.88429,56.570149 L 491.17296,56.570149 C 489.51624,56.570149 488.73146,55.7601 488.73145,53.740743 L 488.73145,34.414124 L 490.51123,34.414124 C 493.28069,34.414124 495.11987,35.689103 495.3486,40.552087 L 495.75933,49.702008 C 496.04471,55.791038 497.75153,58.783454 501.76039,58.783464 C 505.77339,58.783464 507.32792,55.820852 507.32791,51.709959 L 507.32791,49.200015 L 505.31995,49.200015 L 505.31995,50.979802 C 505.31995,54.163412 505.05975,55.086981 503.8368,55.086991 C 502.85698,55.086991 502.60182,54.458783 502.49055,52.32604 L 501.94293,41.601707 C 501.70389,36.944776 498.0087,33.934159 493.9339,33.501415 L 493.9339,33.387327 C 498.90094,32.408544 504.52135,29.333876 504.52134,21.225479 C 504.52134,13.487972 499.45052,9.3374181 491.3555,9.3374281 L 479.42183,9.3374281 L 468.35522,9.3374281 L 468.35522,11.185669 L 469.74711,11.185669 C 471.27606,11.185669 472.14297,12.45575 472.14297,14.722422 L 472.14297,47.853777 C 472.14297,53.870681 469.83608,56.570149 466.07345,56.570149 C 462.3747,56.570149 460.20928,53.386467 460.20928,47.853777 L 460.20928,13.992254 C 460.20928,11.962574 461.17559,11.185659 462.83332,11.185669 L 463.74603,11.185669 L 463.74603,9.3374281 L 449.43932,9.3374281 z M 507.46481,9.3374281 L 507.46481,11.185669 L 509.22178,11.185669 C 510.9434,11.185669 511.61766,12.522657 511.61765,14.243251 L 511.61765,53.010576 C 511.61765,55.411155 510.38875,56.570149 508.8567,56.570149 L 507.46481,56.570149 L 507.46481,58.395558 L 517.80126,58.395558 L 517.80126,56.570149 L 516.5691,56.570149 C 515.03909,56.570149 513.83097,55.411176 513.83097,53.010576 L 513.83097,19.947675 L 513.94505,19.947675 L 529.23293,58.600922 L 531.62881,58.600922 L 531.62881,14.722422 C 531.62881,12.332134 532.86079,11.185659 534.38975,11.185669 L 535.66754,11.185669 L 535.66754,9.3374281 L 525.37674,9.3374281 L 525.37674,11.185669 L 526.67735,11.185669 C 528.2063,11.185669 529.41548,12.311499 529.41548,14.722422 L 529.41548,40.917181 L 529.30139,40.917181 L 516.88855,9.3374281 L 507.46481,9.3374281 z M 436.63857,11.185669 C 440.08285,11.185669 441.97793,13.750116 441.97793,22.229455 L 441.97793,45.412276 C 441.97793,53.345536 440.21061,56.570149 436.63857,56.570149 C 433.00575,56.570149 431.43613,53.514064 431.43613,45.343822 L 431.43613,22.343543 C 431.43613,13.616961 433.19533,11.185659 436.63857,11.185669 z M 293.29757,11.48231 L 294.872,11.48231 C 299.00965,11.48231 302.03676,13.697007 302.03677,21.362378 C 302.03677,29.223522 299.44405,32.155187 295.12299,32.155166 L 293.29757,32.155166 L 293.29757,11.48231 z M 488.73145,11.48231 L 490.3287,11.48231 C 494.46636,11.48231 497.47066,13.697007 497.47065,21.362378 C 497.47065,29.223522 494.87896,32.155187 490.55687,32.155166 L 488.73145,32.155166 L 488.73145,11.48231 z M 153.88122,22.526084 L 153.99531,22.526084 L 157.66896,44.24857 L 150.20756,44.24857 L 153.88122,22.526084 z M 545.63889,22.526084 L 545.77579,22.526084 L 549.44945,44.24857 L 541.96523,44.24857 L 545.63889,22.526084 z M 590.6811,52.097865 C 589.22528,52.097865 587.87451,53.562233 587.87451,55.406432 C 587.87451,57.250662 589.22528,58.783454 590.6811,58.783464 C 592.1338,58.783464 593.5105,57.250673 593.51048,55.406432 C 593.51048,53.562213 592.1338,52.097865 590.6811,52.097865 z" id="path3443" style="fill:#000000;fill-opacity:1;fill-rule:nonzero;stroke:none"/>
  </g>
</svg>