<svg height="72" width="463" xmlns="http://www.w3.org/2000/svg"><path d="m26.536 22.732v25.039c3.383-1.827 5.752-5.008 6.902-8.595l.271.136c-.745 8.933-6.835 17.865-16.309 17.865-9.542 0-16.58-7.105-16.58-18.475 0-8.526 5.549-13.873 12.655-18.678a12.407 12.407 0 0 0 -3.181-.406c-4.873 0-7.715 3.316-7.715 6.7h-.406c-.068-.474-.068-.947-.068-1.421 0-6.023 3.181-13.332 10.896-13.332 4.94 0 8.73 4.534 14.482 4.534 2.301 0 5.143-1.083 6.293-3.587h.203c-.067 4.4-1.42 8.934-7.443 10.22zm3.654 25.648c-3.384 3.586-7.038 6.632-11.775 6.632-8.797 0-15.564-6.903-15.564-16.919 0-5.887 2.436-9.067 5.143-12.79h-.271c-1.692 1.692-6.158 5.955-6.158 13.196 0 11.099 6.97 17.934 16.106 17.934 6.361 0 10.692-4.398 12.655-7.985zm2.706-32.821c-1.15 2.165-3.586 4.939-8.526 4.939s-9.474-3.384-13.467-3.384c-3.655 0-6.158 2.437-7.106 4.264l.068.136c1.286-1.286 3.248-2.572 6.429-2.572 5.278 0 8.662 3.249 14.008 3.249 5.685 0 8.256-3.723 8.73-6.564zm-18.813 4.669c-3.451 3.587-6.632 7.512-6.632 15.159 0 4.195 1.421 8.526 4.602 11.233l1.962-1.016v-18.135l-1.827.947-.338-.677 9.474-5.144c-2.571-.54-4.872-1.69-7.241-2.367zm11.708 2.639c-.474.067-.947.067-1.489.067-.947 0-1.827-.067-2.707-.271v19.76l-8.865 4.807c1.827 1.353 4.06 2.165 6.902 2.165 2.301 0 4.331-.474 6.158-1.286v-25.242zm-9.745 3.452-1.286.744v18.137l1.286-.677zm38.912 2.571v23.415c0 6.496-5.752 10.896-12.181 12.181l-.135-.271c3.181-1.557 5.008-4.737 5.008-8.121v-24.227l-3.654-3.315-1.421 1.556v18.881l2.03 1.827v.136l-5.481 5.955-6.293-5.752v-.271l2.436-2.572v-29.911l7.173-7.646.135.067v18.136l5.888-6.361 6.158 5.55 1.15-1.219.542.475zm-18.948 22.129v-.135l1.421-1.422v-32.212l-1.421 1.49v30.046l-2.166 2.166v.135l5.278 4.737.947-1.083zm13.805-20.235-4.399-3.789-.947 1.015 3.925 3.52v24.362c0 1.624-.338 3.315-.947 4.263l.068.068c1.692-1.219 2.301-3.046 2.301-5.414v-24.025zm15.903 11.708v3.451l6.564 5.143 3.79-4.06.542.541-8.797 9.406-8.933-7.173-1.353 1.421-.542-.541 1.557-1.624v-17.121l12.79-9.339 6.7 10.828zm-5.008 5.956v-17.19l-1.421 1.016v16.851l8.392 6.835 1.083-1.15zm5.144-20.844-.136.068v13.873l6.023-4.399zm1.759-1.353-1.218.879 5.956 9.542 1.218-.88zm54.534 30.655-9.407-8.121-7.173 8.121-9.745-8.392v-13.263h-1.895c-1.692 0-2.571 1.083-2.978 2.368h-.203a10.753 10.753 0 0 1 -.338-2.571c0-1.76.474-6.361 5.414-6.361v-11.64c0-2.233-2.639-3.113-2.639-6.091 0-3.856 3.654-7.646 10.354-10.016l.271.203c-2.436 1.422-3.722 2.775-3.722 5.685 0 4.467 4.331 3.316 4.331 10.354v2.707l7.918-8.324 8.324 8.188 7.85-8.188 7.579 7.444v25.039zm-24.159-9.474v-14.278h-3.79c-1.963 0-2.842 1.285-2.978 2.436l.067.068c.677-.744 1.354-1.15 2.91-1.15h2.368v13.67l8.933 7.715 1.015-1.219zm0-31.062c0-2.774-2.436-3.722-2.436-5.481 0-2.437.947-4.466 2.436-6.361l-.135-.067c-2.03 1.557-3.925 4.061-3.925 6.496 0 2.437 2.639 3.587 2.639 5.753v11.978h1.421zm14.279 6.768-5.143-5.008-2.707 2.774v23.956l6.158 5.211 1.692-1.895zm2.165 24.159v-25.106l-5.752-5.685-1.083 1.083 5.414 5.21v25.242l9.136 7.918 1.083-1.016zm13.129-25.039-4.263-4.061-2.436 2.504v24.092l6.632 5.819.067-.067zm2.165-.947-4.94-4.805-1.015 1.083 4.534 4.331v28.287l1.421-1.354zm28.755 35.595-6.429-5.82-5.752 5.82-7.038-6.226-.948 1.015-.541-.541 1.218-1.286v-18.135l12.723-9.204 7.309 5.685 1.286-1.354.542.542-1.489 1.556v18.746l3.586 3.315 1.151-1.218.541.474zm-17.324-7.511v-18.272l-1.421 1.015v17.934l6.497 5.82 1.083-1.083zm10.895-17.798-5.549-4.331-.203.136v19.692l4.602 3.992 1.15-1.15zm2.166 18.407v-19.422l-5.752-4.67-1.353.947 5.684 4.467v19.354l5.685 5.143 1.015-1.083zm23.956-15.159h6.97v14.482l-10.76 7.579c-1.421-1.624-3.452-2.774-5.955-2.774-2.03 0-3.655.677-5.82 2.504l-.338-.136 9.204-13.399h-5.685v-12.587l11.302-7.85c1.353 1.083 2.368 1.691 4.128 1.691 1.354 0 3.316-.271 4.805-1.488l.271.135zm-7.579 17.324c-1.963 0-3.519.677-4.873 1.624v.136c1.083-.474 2.166-.609 3.181-.609 1.556 0 3.993.745 5.617 2.64l1.557-1.15c-1.287-1.49-2.843-2.641-5.482-2.641zm7.24-11.369h-3.79l-7.918 11.438.068.135c1.962-1.421 3.857-2.368 6.158-2.368 2.03 0 4.128.947 5.414 2.571l.068-.067zm-9.88 0v-10.894l-1.421 1.015v11.369h5.481l1.083-1.489h-5.143zm14.144-13.264c-1.421 1.016-2.233 1.557-4.602 1.557-1.354 0-2.978-.609-4.263-1.963l-.135.068v9.88h2.571l6.497-9.475zm-3.248-.609c-1.218 0-2.774-.608-3.79-1.962l-1.692 1.15c1.286 1.557 2.504 2.233 4.398 2.233 1.218 0 2.978-.339 4.805-1.896l.067-.202c-1.149.475-2.57.677-3.788.677zm1.15 11.641h-4.399l-1.015 1.421h3.993v13.128l1.421-1.015zm28.49-9.678v23.415c0 6.496-5.752 10.896-12.181 12.181l-.135-.271c3.181-1.557 5.008-4.737 5.008-8.121v-24.227l-3.654-3.315-1.421 1.556v18.881l2.03 1.827v.136l-5.481 5.955-6.293-5.752v-.271l2.436-2.572v-29.911l7.173-7.646.135.067v18.136l5.888-6.361 6.158 5.55 1.15-1.219.542.475zm-18.948 22.129v-.135l1.421-1.422v-32.212l-1.421 1.489v30.046l-2.166 2.166v.135l5.278 4.737.947-1.083zm13.805-20.235-4.399-3.789-.947 1.015 3.925 3.52v24.362c0 1.624-.338 3.315-.947 4.263l.068.068c1.692-1.219 2.301-3.046 2.301-5.414v-24.025zm17.46 26.122-5.82-5.346-1.354 1.421-.542-.542 1.557-1.691v-19.557l-2.842-2.707-1.083 1.219-.542-.542 6.09-6.632 5.414 4.873 1.354-1.489.609.474-1.692 1.827v19.761l3.249 3.045 1.489-1.557.541.542zm-3.993-6.631v-20.167l-3.519-3.248-.947 1.083 3.045 2.91v20.099l5.414 4.872 1.015-1.083zm2.03-28.287-5.549-5.075 5.076-5.414 5.549 5.075zm-3.451-6.159-1.015 1.015 4.398 4.128 1.015-1.15zm34.029 41.077-5.888-5.346v-19.76l-3.587-3.248-1.895 2.03v18.271l2.098 1.962v.271l-5.549 5.82-6.294-5.752v-.203l2.437-2.571v-17.054l-3.181-2.91-1.286 1.421-.541-.541 6.158-6.7 6.158 5.482v1.353l6.429-6.835 6.022 5.414 1.354-1.421.609.541-1.624 1.692v19.354l3.045 2.842 1.489-1.624.541.541zm-17.866-5.887v-.135c0 .135 1.354-1.354 1.354-1.354v-19.22l-3.858-3.519-.948 1.015 3.384 3.113v17.865l-2.098 2.166v.135l5.211 4.737 1.082-1.15zm14.143-.541v-19.828l-4.195-3.79-1.083 1.15 3.857 3.451v19.693l5.075 4.737 1.083-1.151zm22.806 18.609c-2.232-2.436-3.789-3.451-5.887-3.451-2.233 0-4.805.88-7.444 2.301l-.203-.202 9.339-10.828-6.632-5.278-1.286 1.354-.541-.474 1.488-1.624v-19.152l12.858-9.204 7.173 5.685 1.219-1.354.541.542-1.421 1.556v23.145c0 3.519 1.962 3.384 1.962 6.022 0 3.045-4.399 5.887-11.166 10.962zm-9-18.745v-19.151l-1.421 1.016v18.745l6.699 5.414 1.016-1.219zm4.737 13.535c-2.233 0-4.264.677-6.158 1.962v.136c1.218-.474 2.571-1.083 4.872-1.083 2.098 0 3.857 1.15 5.617 3.181l1.354-1.083c-1.693-1.962-3.723-3.113-5.685-3.113zm8.256-6.497c-1.691-1.083-2.098-2.233-2.098-5.143v-1.219l-11.234 12.993.068.067c2.165-1.285 4.128-2.232 7.309-2.232 2.707 0 4.534 1.082 6.632 2.842 1.286-1.083 2.165-2.165 2.165-3.857 0-1.353-1.151-2.368-2.842-3.451zm-2.098-25.783-5.617-4.398-.136.135v20.775l4.332 3.384 1.421-1.624zm4.128 24.836c-1.76-1.354-1.963-2.504-1.963-5.414v-20.572l-5.685-4.602-1.285.88 5.549 4.398v20.843c0 2.91.136 3.723 1.963 4.94 1.624 1.083 2.909 2.233 2.909 3.79 0 .405-.067 1.082-.067 1.082l.067.068c.339-.339.745-.88.745-1.76.001-1.488-.744-2.503-2.233-3.653zm16.242.473-6.226-4.872-1.286 1.421-.541-.542 1.488-1.624v-23.685h-3.925l-.136-.135 2.369-3.52h1.691v-4.533l7.174-7.647.135.136v12.045h5.414l.136.136-2.369 3.519h-3.181v20.505l3.723 2.843 1.421-1.557.541.541zm-4.399-38.641-1.421 1.557v4.128h1.421zm0 32.348v-23.009h-1.421v23.821l5.752 4.467 1.015-1.083zm32.956-21.046v18.948l-11.437 8.459-8.595-6.496-1.015 1.15-.541-.542 1.218-1.353v-18.542l11.979-8.595 7.985 6.227 1.285-1.354.542.541zm-18.203 19.49v-18.475l-1.422 1.015v18.204l8.121 6.226 1.286-.947zm10.895-17.257-5.685-4.467-.067.068v20.166l5.752 4.331zm2.166-1.218-6.294-4.873-1.285.947 6.158 4.737v21.047l1.421-1.082zm30.994 26.324-5.888-5.346v-19.76l-3.587-3.248-1.895 2.03v18.271l2.098 1.962v.271l-5.549 5.82-6.294-5.752v-.203l2.437-2.571v-17.054l-3.181-2.91-1.286 1.421-.541-.541 6.158-6.7 6.158 5.482v1.353l6.429-6.835 6.023 5.414 1.353-1.421.609.541-1.624 1.692v19.354l3.045 2.842 1.489-1.624.541.541zm-17.867-5.887v-.135c0 .135 1.354-1.354 1.354-1.354v-19.22l-3.857-3.519-.947 1.015 3.384 3.113v17.865l-2.098 2.166v.135l5.211 4.737 1.083-1.15zm14.144-.541v-19.828l-4.195-3.79-1.083 1.15 3.857 3.451v19.693l5.075 4.737 1.083-1.151zm45.529 6.428c-1.895-2.03-2.571-2.707-4.805-3.316v13.264l-.136.067-2.707-2.437-7.85 7.241-.136-.067v-18.203c-2.368.541-4.872 1.76-7.309 4.195l-.135-.067c.474-5.211 3.045-9.068 7.443-10.557v-13.196h-1.421c-1.962 0-3.045 1.015-3.992 2.842h-.203c-.203-.608-.339-1.557-.339-3.112 0-2.843 2.098-5.82 5.55-5.82h.405v-7.309l-2.774-2.504-1.354 1.354-.474-.474 6.835-7.241 6.361 5.82v6.158l1.489-1.624v-7.783h.744v7.106l9-9.678 7.647 6.971v29.438zm-15.632-5.955c-2.774.541-4.736 2.233-6.022 4.466l.067.136c1.896-1.624 3.654-2.368 5.955-2.91zm2.166-19.421h-3.722c-2.572 0-3.587 1.624-3.654 3.519l.067.067c.812-1.354 1.624-1.827 3.248-2.029h2.64v36.881l1.421-1.354zm0-12.182-3.384-3.112-1.083 1.15 3.046 2.706v7.647h1.421zm7.918 3.857-1.489 1.557v39.183l1.489 1.354zm8.865-1.556-3.993-3.654-4.128 4.467v23.82c3.519.339 5.955 1.354 8.053 3.654l.068-.067zm-8.121 29.302v1.76c2.301.541 3.248 1.218 4.872 3.112l1.557-1.218c-1.625-2.03-3.249-3.247-6.429-3.654zm10.286-30.384-4.602-4.264-1.083 1.15 4.264 3.925v31.468l1.421-1.083zm29.979 9v18.948l-11.438 8.459-8.594-6.496-1.016 1.15-.541-.542 1.218-1.353v-18.542l11.979-8.595 7.985 6.227 1.285-1.354.542.541zm-18.204 19.49v-18.475l-1.422 1.015v18.204l8.121 6.226 1.286-.947zm10.895-17.257-5.684-4.467-.068.068v20.166l5.752 4.331zm2.166-1.218-6.294-4.873-1.285.947 6.158 4.737v21.047l1.421-1.082zm20.842 4.263h6.971v14.482l-10.76 7.579c-1.421-1.624-3.451-2.774-5.955-2.774-2.03 0-3.654.677-5.82 2.504l-.338-.136 9.203-13.399h-5.685v-12.587l11.302-7.85c1.354 1.083 2.368 1.691 4.128 1.691 1.354 0 3.315-.271 4.805-1.488l.271.135zm-7.579 17.324c-1.962 0-3.519.677-4.872 1.624v.136c1.083-.474 2.165-.609 3.181-.609 1.557 0 3.992.745 5.616 2.64l1.557-1.15c-1.285-1.49-2.842-2.641-5.482-2.641zm7.242-11.369h-3.79l-7.917 11.438.067.135c1.962-1.421 3.857-2.368 6.158-2.368 2.03 0 4.128.947 5.414 2.571l.067-.067v-11.709zm-9.88 0v-10.894l-1.422 1.015v11.369h5.481l1.083-1.489h-5.142zm14.143-13.264c-1.422 1.016-2.233 1.557-4.603 1.557-1.354 0-2.978-.609-4.263-1.963l-.136.068v9.88h2.571l6.497-9.475zm-3.249-.609c-1.218 0-2.774-.608-3.789-1.962l-1.692 1.15c1.286 1.557 2.504 2.233 4.399 2.233 1.218 0 2.978-.339 4.805-1.896l.067-.202c-1.15.475-2.571.677-3.79.677zm1.151 11.641h-4.398l-1.015 1.421h3.992v13.128l1.421-1.015zm16.377 18.338-6.226-4.872-1.286 1.421-.541-.542 1.488-1.624v-23.685h-3.925l-.135-.135 2.368-3.52h1.691v-4.533l7.174-7.647.136.136v12.045h5.413l.136.136-2.369 3.519h-3.18v20.505l3.722 2.843 1.421-1.557.541.541zm-4.399-38.641-1.421 1.557v4.128h1.421zm0 32.348v-23.009h-1.421v23.821l5.752 4.467 1.015-1.083z" fill="#231f20"/></svg>