<?xml version="1.0" encoding="UTF-8" standalone="no"?>
<!-- Generator: Adobe Illustrator 20.0.0, SVG Export Plug-In . SVG Version: 6.00 Build 0)  -->

<svg
   xmlns:dc="http://purl.org/dc/elements/1.1/"
   xmlns:cc="http://creativecommons.org/ns#"
   xmlns:rdf="http://www.w3.org/1999/02/22-rdf-syntax-ns#"
   xmlns:svg="http://www.w3.org/2000/svg"
   xmlns="http://www.w3.org/2000/svg"
   xmlns:sodipodi="http://sodipodi.sourceforge.net/DTD/sodipodi-0.dtd"
   xmlns:inkscape="http://www.inkscape.org/namespaces/inkscape"
   version="1.1"
   id="Layer_1"
   x="0px"
   y="0px"
   viewBox="0 0 513.69921 171.49999"
   xml:space="preserve"
   inkscape:version="0.91 r13725"
   sodipodi:docname="National_Public_Radio_logo.svg"
   width="513.69922"
   height="171.5"><metadata
   id="metadata23"><rdf:RDF><cc:Work
       rdf:about=""><dc:format>image/svg+xml</dc:format><dc:type
         rdf:resource="http://purl.org/dc/dcmitype/StillImage" /><dc:title></dc:title></cc:Work></rdf:RDF></metadata><defs
   id="defs21" /><sodipodi:namedview
   pagecolor="#c8c8c8"
   bordercolor="#666666"
   borderopacity="1"
   objecttolerance="10"
   gridtolerance="10"
   guidetolerance="10"
   inkscape:pageopacity="0"
   inkscape:pageshadow="2"
   inkscape:window-width="1536"
   inkscape:window-height="811"
   id="namedview19"
   showgrid="false"
   fit-margin-top="0"
   fit-margin-left="0"
   fit-margin-right="0"
   fit-margin-bottom="0"
   inkscape:zoom="0.63951199"
   inkscape:cx="88.524853"
   inkscape:cy="60.303681"
   inkscape:window-x="-8"
   inkscape:window-y="-8"
   inkscape:window-maximized="1"
   inkscape:current-layer="Layer_1" />
<style
   type="text/css"
   id="style3">
	.st0{fill:#D62021;}
	.st1{fill:#000005;}
	.st2{fill:#237BBD;}
	.st3{fill:#FFFFFF;}
</style>


<path
   style="color:#000000;clip-rule:nonzero;display:inline;overflow:visible;visibility:visible;opacity:1;isolation:auto;mix-blend-mode:normal;color-interpolation:sRGB;color-interpolation-filters:linearRGB;solid-color:#000000;solid-opacity:1;fill:#000000;fill-opacity:1;fill-rule:nonzero;stroke:none;stroke-width:4;stroke-linecap:butt;stroke-linejoin:miter;stroke-miterlimit:4;stroke-dasharray:none;stroke-dashoffset:0;stroke-opacity:1;color-rendering:auto;image-rendering:auto;shape-rendering:auto;text-rendering:auto;enable-background:accumulate"
   d="m 0,0 0,171.5 513.69922,0 0,-171.5 L 0,0 Z m 6.5136719,5.4355469 162.2714881,0 0,160.6269531 -162.2714881,0 0,-160.6269531 z m 170.2011681,0 162.27149,0 0,160.6269531 -162.27149,0 0,-160.6269531 z m 169.19922,0 162.27149,0 0,160.6269531 -162.27149,0 0,-160.6269531 z"
   id="rect3866"
   inkscape:connector-curvature="0" />
<g
   transform="translate(-30.28,-20.630777)"
   id="g11"
   style="fill:#000000">
	<path
   class="st3"
   d="m 135.7,151.4 0,-50.3 c 0,-7.4 -1.4,-12.8 -4.3,-16.3 -2.9,-3.5 -7.5,-5.1 -14,-5.1 -3.4,0.1 -6.6,1 -9.6,2.5 -3.1,1.4 -5.9,3.6 -8,6.3 l 0,63 -20.3,0 0,-87.5 14.7,0 3.8,8.2 c 5.5,-6.4 13.7,-9.6 24.6,-9.6 10.4,0 18.6,3.1 24.6,9.3 6,6.2 9,14.9 9,26 l 0,53.6 -20.5,-0.1 0,0 z"
   id="path13"
   style="fill:#000000"
   inkscape:connector-curvature="0" />
	<path
   class="st3"
   d="m 286.5,153.1 c 13.3,0 23.9,-3.9 31.6,-11.6 7.7,-7.7 11.6,-18.7 11.6,-33 0,-30.7 -13.9,-46 -41.8,-46 -7,-0.2 -13.8,2.4 -18.8,7.3 l 0,-5.8 -20.4,0 0,110.6 20.3,0 0,-25.3 c 5.5,2.6 11.5,3.9 17.5,3.8 l 0,0 z M 282,79.9 c 9.4,0 16.1,2.1 20.2,6.3 4.1,4.2 6.1,11.5 6.1,21.8 0,9.7 -2.1,16.7 -6.1,21.2 -4.1,4.5 -10.8,6.7 -20.2,6.7 -4.7,0.1 -9.3,-1.5 -12.9,-4.5 l 0,-45.8 c 3.3,-3.6 8,-5.6 12.9,-5.7 l 0,0 z"
   id="path15"
   style="fill:#000000"
   inkscape:connector-curvature="0" />
	<path
   class="st3"
   d="m 481.3,83.1 c -3.6,-2.3 -7.7,-3.5 -11.9,-3.4 -4.7,0 -8.9,2.1 -12.5,6.4 -3.7,4.4 -5.7,10 -5.5,15.7 l 0,49.6 -20.4,0 0,-87.4 20.4,0 0,8.4 c 5.7,-6.5 13.2,-9.8 22.7,-9.8 6.9,0 12.2,1.1 15.9,3.2 l -8.7,17.3 0,0 z"
   id="path17"
   style="fill:#000000"
   inkscape:connector-curvature="0" />
</g>
</svg>