<svg id="ProPublica-wordmark" data-name="ProPublica-wordmark" xmlns="http://www.w3.org/2000/svg" viewBox="0 0 574.24 75"><defs><style>.cls-1{fill:#000000;}</style></defs><title>ProPublica wordmark</title><path class="cls-1" d="M66.4,13.48,66,14.91l6.23,11.45,1.15.47L75,26.29V75H50.95A41.2,41.2,0,0,0,62.13,46.88a40.61,40.61,0,0,0-3.39-16.26,45.17,45.17,0,0,1,7.79-4.95l1.69-.2.14-.41L65,18.83H64.5l-.88,1.29c-2.91,1.9-4.67,2.3-8.54,3.79A41.35,41.35,0,0,0,20.46,5.42,39.87,39.87,0,0,0,0,10.91V0H75V8.81ZM57.32,47A37.54,37.54,0,0,1,44.65,75H0V16A37,37,0,0,1,57.32,47ZM43.7,37.06c0-8.13-6-12-17.75-12H7.18v3.66l4.2.95V62.2l-4.2.95v3.73H27.85V63.14l-7.18-.95V50.14h5.15C37.26,50.14,43.7,45.53,43.7,37.06Zm-9.76.27c0,5.15-2.78,8.33-7.25,8.33h-6V29.47H27C31.37,29.47,33.94,32.32,33.94,37.33Z"/><path class="cls-1" d="M116.53,60.07l9.15,1.08v4.2H99.39v-4.2l5.28-1.36v-44l-5.28-1.36V10.41H123c15.31,0,22.9,5.28,22.9,16.13,0,11.18-8.33,17.41-23.1,17.41h-6.3Zm0-21.14h6.84c6.44,0,10.5-4.61,10.5-12.06,0-7.18-3.73-11.45-10.09-11.45h-7.25Z"/><path class="cls-1" d="M200.74,61.15v4.2H185.9l-16-20.6h-2.51v15l5.28,1.36v4.2H150.27v-4.2l5.28-1.36V23.35l-5-1.36V17.93H175.2c10.5,0,17.55,5.08,17.55,12.67,0,8.4-5.76,12.2-11,13.55l13.48,15.79ZM167.41,39.74h4.47c5.76,0,8.81-3.18,8.81-8.88,0-5.35-2.85-7.93-8.81-7.93h-4.47Z"/><path class="cls-1" d="M199.59,41.64c0-14.77,9.82-24.73,25.68-24.73s25.68,10,25.68,24.73-9.82,24.73-25.68,24.73S199.59,56.48,199.59,41.64Zm38.89,0c0-9.69-3.25-19.17-13.21-19.17S212.05,32,212.05,41.64s3.25,19.17,13.21,19.17S238.48,51.33,238.48,41.64Z"/><path class="cls-1" d="M270.79,60.07l9.15,1.08v4.2H253.31v-4.2l5.62-1.36v-44l-5.62-1.36V10.41h24c15.31,0,22.9,5.28,22.9,16.13,0,11.18-8.33,17.41-23.1,17.41h-6.3Zm0-21.14h6.84c6.44,0,10.5-4.61,10.5-12.06,0-7.18-3.73-11.45-10.1-11.45h-7.25Z"/><path class="cls-1" d="M354.26,22l-4.95,1.36V47c0,12.87-7.79,19.38-20.05,19.38-13.62,0-20.73-7.86-20.73-20v-23L303.58,22V17.93h22V22l-5.08,1.36V47.74c0,7.25,4.34,12.06,11.45,12.06,6.84,0,11.25-4.47,11.25-11.31V23.35L338.14,22V17.93h16.12Z"/><path class="cls-1" d="M403.85,52.21c0,8.88-7.11,13.14-22,13.14H357.58v-4.2l5.56-1.36V23.35L358.26,22V17.93h23.92c12.6,0,19.51,3.79,19.51,11.72,0,6.17-4.06,9.08-10.91,9.89v.27C399.31,40.76,403.85,45.1,403.85,52.21ZM375,38.32h5.76c6.1,0,9-2.78,9-7.79,0-5.22-3.12-7.59-9-7.59H375Zm16.8,13.41c0-5.62-3.79-8.67-11.25-8.67H375V60.34h6.64C388.07,60.34,391.79,57.29,391.79,51.74Z"/><path class="cls-1" d="M451.07,48.62l-4.4,16.73H408v-4.2l5.28-1.36V23.35L407.65,22V17.93h22.76V22l-5.28,1.36v37l14.16-.81L447,47.26Z"/><path class="cls-1" d="M475.4,61.15v4.2H453v-4.2l5.28-1.36V23.35L453,22V17.93H475.4V22l-5.28,1.36V59.8Z"/><path class="cls-1" d="M478,41.78c0-15.85,12.13-24.86,27-24.86a35.6,35.6,0,0,1,18.29,5.15l-2,13.21h-4.2l-1.69-9.08a13.23,13.23,0,0,0-10.09-4.13c-9.15,0-14.7,6.57-14.7,18.22,0,13.21,6.84,19.31,15.24,19.31,6.17,0,10.23-3.39,13.41-9.55l4.27,2c-4.27,10-11.65,14.36-21.07,14.36C488.4,66.37,478,56.48,478,41.78Z"/><path class="cls-1" d="M574.24,61.15v4.2H551.48v-4.2L557,60l-2.85-8.13h-16.6l-3.12,8.2,5.42,1.15-.07,4.2-16.53-.07v-4.2l4.27-1.08,14.9-37.33-4-1.29V17.93h13.69L569.3,60Zm-27.57-31-.47-1.56-.47,1.56-6.23,16.73h12.94Z"/></svg>