<svg xmlns="http://www.w3.org/2000/svg" width="341.54" height="119.32" viewBox="0 0 320.193 111.863"><defs><clipPath id="a"><path d="M0 0h612v792H0V0z"/></clipPath></defs><g clip-path="url(#a)" transform="matrix(2.42287 0 0 -2.42287 -187.863 1343.238)"><path fill="#231f20" d="M192.262 534.444h-10.669l2.06 8.682h-3.804l-2.06-8.682h-3.486l-.158-.676h3.486l-4.596-19.224c-.263-1.071-.58-2.198-.58-3.438 0-1.523.951-2.875 3.063-2.875 3.803 0 5.704 5.355 5.916 5.975l-.528.226c-.37-.902-1.849-4.397-3.645-4.397-.739 0-1.056.45-1.056 1.352 0 .564.105 1.128.264 1.748l4.912 20.633h6.972l-4.648-19.224c-.264-1.014-.58-2.254-.58-3.326 0-1.578.95-2.987 3.116-2.987 3.802 0 5.704 5.355 5.915 5.975l-.528.226c-.37-.846-1.9-4.397-3.592-4.397-.95 0-1.109.563-1.109 1.409 0 .564.106 1.07.264 1.69l5.071 21.31zM166.856 510.034c-.951 0-1.162.563-1.162 1.297 0 .563.105 1.183.264 1.803l3.38 13.981c.317 1.297.634 2.424.634 3.946 0 1.691-1.056 3.833-4.067 3.833-3.433 0-5.282-2.988-6.021-4.284l.898 3.833h-7.237l-.211-.676h3.433l-6.021-25.03h3.803l4.12 16.97c.95 3.833 3.169 7.779 5.704 7.779 1.532 0 2.007-1.071 2.007-2.086 0-.902-.264-1.86-.528-2.987l-3.327-13.868c-.212-.902-.581-2.48-.581-3.552 0-1.523.95-2.763 3.063-2.763 3.803 0 5.705 5.355 5.969 5.975l-.528.226c-.529-1.127-1.955-4.397-3.592-4.397M145.2 513.135l5.123 21.309h-3.802l-.635-2.762c-.158.564-.633 3.326-4.014 3.326-4.49 0-6.708-3.946-8.134-7.892-.845-2.368-2.588-8.287-2.693-12.29-.16-4.284 1.795-6.595 4.859-6.595 2.905 0 4.753 3.1 5.44 4.679-.053-.226-.158-1.072-.158-1.692-.053-1.578 1.003-2.987 3.063-2.987 3.962 0 5.705 5.412 5.916 5.975l-.528.226c-.37-.902-1.796-4.397-3.645-4.397-.792 0-1.11.563-1.056 1.522 0 .394.106.958.264 1.578m-3.011 3.72c-1.215-4.114-3.116-7.272-5.387-7.272-1.585 0-2.324 1.015-2.272 3.27.159 5.017 2.906 13.98 3.539 15.954 1.057 3.326 2.536 5.242 4.437 5.242 1.743 0 2.589-1.634 2.536-3.495-.106-2.762-1.321-8.287-2.853-13.698M125.234 510.034c-.792 0-1.056.451-1.056 1.353 0 .564.053 1.071.211 1.747l9.824 40.364h-7.342l-.158-.677h3.433l-9.19-38.277c-.264-1.128-.581-2.312-.581-3.552 0-1.409.792-2.762 2.957-2.762 3.909 0 5.811 5.186 6.075 5.975l-.528.226c-.37-.959-1.955-4.397-3.645-4.397M192.104 544.027c-1.268 0-2.166-1.07-2.166-2.593 0-1.24.793-2.255 1.955-2.255 1.215 0 2.165 1.071 2.165 2.537 0 1.296-.792 2.311-1.954 2.311M204.57 535.008c-4.544 0-6.92-3.44-8.294-7.836-.898-2.82-2.323-7.385-2.323-12.458 0-2.593 1.11-6.483 5.915-6.483 5.018 0 7.183 6.708 7.5 7.497l-.686.339c-.687-1.748-2.536-6.37-5.757-6.37-2.06 0-3.17 1.69-3.17 4.848 0 4.566 1.321 9.3 2.483 13.022 1.426 4.566 2.324 6.708 4.436 6.708 1.374 0 2.22-.676 2.22-1.578 0-1.297-.793-1.917-.793-3.1 0-1.072.74-1.861 1.69-1.861 1.162 0 1.901 1.015 1.901 2.65 0 1.69-.897 4.622-5.123 4.622M114.406 510.034c-.687 0-1.109.451-1.109 1.353 0 .451.106 1.127.264 1.747l4.965 20.633h4.067l.158.676h-4.066l2.112 8.683h-3.803l-2.113-8.682h-3.116l-.158-.676h3.116l-4.595-19.223c-.265-1.072-.581-2.143-.581-3.552 0-1.353.792-2.762 2.957-2.762 4.015 0 5.758 5.242 6.075 5.975l-.528.226c-.37-.902-1.902-4.397-3.645-4.397M81.87 539.912H80.6l3.011 12.571h.528c1.374 0 1.69-.169 1.268-2.706h.317l.74 3.101h-7.078l-.74-3.101h.317c.792 2.143 1.11 2.706 2.536 2.706h.633l-3.01-12.571H77.96l-.106-.395h3.91l.104.395zM84.722 539.518h1.32l1.373 5.637c.37 1.466 1.162 2.763 2.007 2.763.529 0 .688-.395.688-.677 0-.338-.107-.79-.213-1.184l-1.056-4.34c-.052-.17-.211-.902-.211-1.297 0-.564.264-1.071 1.003-1.071 1.374 0 1.955 1.69 2.114 2.085l-.265.112c-.158-.394-.633-1.465-1.214-1.465-.212 0-.318.113-.318.451 0 .282.107.845.16 1.071l1.056 4.228c.106.451.21.902.21 1.41 0 .62-.37 1.352-1.425 1.352-1.11 0-1.85-1.07-2.06-1.409l1.372 5.694h-2.217l-.107-.395h.899l-3.116-12.966zM94.44 539.348c1.743 0 2.588 2.142 2.747 2.593l-.317.17c-.317-.79-1.004-2.086-2.166-2.086-.687 0-1.056.507-1.056 1.41 0 .62.105 1.24.211 1.747 1.637.394 4.384 1.86 4.384 3.89 0 .901-.475 1.521-1.585 1.521-2.06 0-4.278-3.55-4.278-6.934 0-1.24.475-2.31 2.06-2.31m2.218 8.85c.476 0 .634-.226.634-.677 0-1.466-1.426-3.326-3.328-3.89.476 2.368 1.691 4.567 2.694 4.567"/></g><path fill="#231f20" d="M75.506 0L6.016 108.995H.386L0 110.635h17.406l.383-1.64H8.063l26.654-41.794H59.59l-4.431 41.794h-8.192l-.383 1.64h25.339l.385-1.64h-7.167L76.66 0h-1.154zM59.78 65.425H35.85l28.396-44.528h.257l-4.723 44.528z"/></svg>