<?xml version="1.0" encoding="UTF-8" standalone="no"?>
<svg xmlns:dc="http://purl.org/dc/elements/1.1/" xmlns:cc="http://creativecommons.org/ns#" xmlns:rdf="http://www.w3.org/1999/02/22-rdf-syntax-ns#" xmlns:svg="http://www.w3.org/2000/svg" xmlns="http://www.w3.org/2000/svg" xmlns:sodipodi="http://sodipodi.sourceforge.net/DTD/sodipodi-0.dtd" xmlns:inkscape="http://www.inkscape.org/namespaces/inkscape" version="1.1" id="Layer_1" x="0px" y="0px" viewBox="-694.8 667.6 334.29999 37.700881" style="font-size:17.26199913px;line-height:17.26199913px;text-align:center" xml:space="preserve" sodipodi:docname="Layer_1 (6).svg" width="334.29999" height="37.700882" inkscape:version="0.92.1 r15371"><metadata id="metadata9"><rdf:RDF><cc:Work rdf:about=""><dc:format>image/svg+xml</dc:format><dc:type rdf:resource="http://purl.org/dc/dcmitype/StillImage"/><dc:title/></cc:Work></rdf:RDF></metadata><defs id="defs7"/><sodipodi:namedview pagecolor="#ffffff" bordercolor="#666666" borderopacity="1" objecttolerance="10" gridtolerance="10" guidetolerance="10" inkscape:pageopacity="0" inkscape:pageshadow="2" inkscape:window-width="640" inkscape:window-height="480" id="namedview5" showgrid="false" fit-margin-top="0" fit-margin-left="0" fit-margin-right="0" fit-margin-bottom="0" inkscape:zoom="1.3187799" inkscape:cx="167.1" inkscape:cy="9.3499992" inkscape:window-x="0" inkscape:window-y="0" inkscape:window-maximized="0" inkscape:current-layer="Layer_1"/><path class="st0" d="m -664.8,668.60088 h 5 v 14.2 h 12.8 v -14.2 h 3.8 v 35 h -3.8 v -18.8 h -12.8 v 18.8 h -5 z m 55.5,35.1 h 2.8 v -28.1 l 22.1,28.6 v -35.5 h -2.7 v 22.8 l -17.9,-22.8 h -4.3 z m 29.6,0 h 20.6 l 2.6,-5.3 c 0,0 -3.6,2.9 -10.6,2.9 -1.4,0 -7.2,0 -7.2,0 v -16.2 c 0,0 2.3,0 5.2,0 2.9,0 4.1,1.8 4.1,1.8 v -5.2 c -1,1 -1.4,1.3 -4.1,1.3 -2.6,0 -5.2,0 -5.2,0 v -12.3 c 0,0 0.3,0 3.1,0 4,0 6.1,2.1 6.1,2.1 l -1.8,-4.1 h -12.8 z m 177.5,0 h 13.8 l 3.1,-4.2 c 0,0 -2.4,1.9 -8.5,1.9 -1.4,0 -3.4,0 -3.4,0 v -16.5 c 0,0 2.7,0 5.7,0 2.9,0 3.5,1.2 3.5,1.2 v -4.1 c -0.8,0.8 -1.4,1 -3.5,1 -2.6,0 -5.7,0 -5.7,0 v -12.3 c 0,0 1.8,0 4.7,0 4.4,0 6.4,2.1 6.4,2.1 l -1.8,-4.1 h -14.2 z m -236.3,-0.1 h 13.8 l 3.1,-4.2 c 0,0 -2.4,1.9 -8.5,1.9 -1.4,0 -3.4,0 -3.4,0 v -16.4 c 0,0 2.7,0 5.7,0 2.9,0 3.5,1.2 3.5,1.2 v -4.2 c -0.8,0.8 -1.4,1 -3.5,1 -2.6,0 -5.7,0 -5.7,0 v -12.3 c 0,0 1.8,0 4.7,0 4.4,0 6.4,2.1 6.4,2.1 l -1.8,-4.1 h -14.2 z m -40.5,-32.7 c 0,0 1.4,0 4.4,0 4.7,0 6.8,2.1 6.8,2.1 l -1.9,-4.3 h -9.2 -14 l -1.9,4.3 c 0,0 2.1,-2.1 6.8,-2.1 3.1,0 3.2,0 4.2,0 v 32.7 h 5 z m 131.2,33.1 5.3,-11.5 5.4,11.4 15.6,-35.3 h -3.1 l -11.3,25.7 -3.8,-8.3 7.4,-17.4 h -2.6 l -6.2,13.7 -6.5,-13.7 h -5.2 l 8.9,20.3 -2.4,5.4 -11.6,-25.7 h -5.4 z m 55.2,-17.5 c 0,9.4 7.4,18.8 19.9,18.8 12.5,0 19.1,-7.7 19.1,-19.8 0,-9.4 -7.3,-17.9 -19.4,-17.9 -11.7,-0.1 -19.6,8.3 -19.6,18.9 z m 19.4,-17 c 9.5,0 14.4,9.2 14.4,16.4 0,9 -3.9,16.9 -13.5,16.9 -10.5,0 -15.1,-9 -15.1,-17.2 0,-10.8 7.6,-16.1 14.2,-16.1 z m 23.7,34.2 h 5.1 v -33.1 c 0,0 2,0 2.3,0 1.3,0 4.5,0.8 4.5,6.1 0,5.6 -4.6,6.6 -4.6,6.6 v 0.7 c 2.2,0 4.9,0.2 4.9,10.2 0,6.9 2.4,9.9 5.6,9.9 3.2,0 4.6,-2.2 4.8,-2.5 l -0.7,-0.5 c -0.3,0.5 -1.2,1.3 -2.4,1.3 -1.5,0 -3.2,-2.5 -3.2,-9.1 0,-6.7 -1.8,-9.1 -6.8,-9.9 2.7,-0.9 6.8,-2.3 6.8,-7.7 0,-4.6 -3.6,-7.1 -7.9,-7.1 -3.2,0 -8.2,0 -8.2,0 z m 66.4,0 h 5.1 v -33.1 c 0,0 2,0 2.3,0 1.3,0 4.5,0.8 4.5,6.1 0,5.6 -4.6,6.6 -4.6,6.6 v 0.7 c 2.2,0 4.9,0.2 4.9,10.2 0,6.9 2.4,9.9 5.6,9.9 3.2,0 4.6,-2.2 4.8,-2.5 l -0.7,-0.5 c -0.3,0.5 -1.2,1.3 -2.4,1.3 -1.5,0 -3.2,-2.5 -3.2,-9.1 0,-6.7 -1.8,-9.1 -6.8,-9.9 2.7,-0.9 6.8,-2.3 6.8,-7.7 0,-4.6 -3.6,-7.1 -7.9,-7.1 -3.2,0 -8.2,0 -8.2,0 z m -27.3,-11.6 c 0,-8 -1.7,-11.7 -6.7,-12.6 l 9.7,-10.8 h -3.3 l -9.2,10.3 v -10.3 h -5 l -0.1,35 h 5.1 v -23.1 h 1.1 c 0.9,0 2.9,1.2 3.4,2.9 0.7,2.1 0.9,5.3 0.9,9.5 v 1.4 c 0,6.9 2.4,9.9 5.6,9.9 3.2,0 4.6,-2.2 4.8,-2.5 l -0.7,-0.5 c -0.3,0.5 -1.2,1.3 -2.4,1.3 -1.5,0 -3.2,-2.5 -3.2,-9.1 z m -89.4,11.6 v -18.1 l 9.7,-16.9 h -3.2 l -9.3,16.1 -9.3,-16.1 h -3.2 l 9.7,16.9 v 18.1 z" style="font-size:17.26199913px;line-height:17.26199913px;text-align:center" id="path2" inkscape:connector-curvature="0"/></svg>