<svg width="96" height="96" viewBox="0 0 96 96" fill="none" xmlns="http://www.w3.org/2000/svg">
<path d="M51.5469 69C60.5703 69 66.166 64.3418 66.166 56.9004C66.166 51.3047 61.9473 47.1152 56.2051 46.6758V46.4414C60.6875 45.7676 64.1445 41.9004 64.1445 37.2715C64.1445 30.7969 59.1641 26.7246 51.2246 26.7246H32.8262V69H51.5469ZM41.6738 33.3164H48.9395C53.0703 33.3164 55.4434 35.25 55.4434 38.6484C55.4434 42.2227 52.748 44.3027 48.0312 44.3027H41.6738V33.3164ZM41.6738 62.4082V50.1328H49.0859C54.3008 50.1328 57.1426 52.2422 57.1426 56.1973C57.1426 60.2402 54.3887 62.4082 49.291 62.4082H41.6738Z" fill="#3F7C83"/>
<circle cx="48" cy="48" r="45" stroke="#3F7C83" stroke-width="6"/>
</svg>
