<svg xmlns="http://www.w3.org/2000/svg" viewBox="0 0 30 30">
	<defs>
		<style>.cls-1{fill:none;}.cls-2{clip-path:url(#clip-path);}.cls-3{fill:#57ad79;}</style>
		<clipPath id="clip-path">
			<path class="cls-1" d="M22,15.57V19H20V15.57H17V13.43h3V10h2v3.43h3v2.14H22ZM11.51,12L10,17h3ZM6,21L10.39,9h2.22L17,21H14.69l-0.76-2.19H9.07L8.31,21H6Zm9,5.79A11.81,11.81,0,1,0,3.17,15,11.81,11.81,0,0,0,15,26.79ZM15,0A15,15,0,1,1,0,15,15,15,0,0,1,15,0Z"/>
		</clipPath>
	</defs>
	<g class="cls-2"><rect class="cls-3" width="30" height="30"/></g>
</svg>