<svg xmlns="http://www.w3.org/2000/svg" width="30" height="30" viewBox="0 0 30 30">
  <path fill="#57AD79" fill-rule="evenodd" d="M14.977943,-1.77635684e-15 C23.2377189,-1.77635684e-15 29.9572912,6.7197556 29.9572912,14.9793483 C29.9572912,23.2386965 23.23778,29.9583299 14.977943,29.9583299 C6.71841141,29.9583299 -1.24344979e-14,23.2389409 -1.24344979e-14,14.9793483 C-1.24344979e-14,6.7197556 6.71841141,-1.77635684e-15 14.977943,-1.77635684e-15 Z M14.977943,26.7870672 C21.4886151,26.7870672 26.7859674,21.4898371 26.7859674,14.9793483 C26.7859674,8.46885947 21.4886762,3.17132383 14.977943,3.17132383 C8.46751527,3.17132383 3.17138493,8.46885947 3.17138493,14.9793483 C3.17138493,21.4898371 8.46745418,26.7870672 14.977943,26.7870672 Z M8.5,21 L13.4150685,8 L15.890411,8 L20.8054795,21 L18.2232877,21 L17.3684932,18.6315068 L11.9369863,18.6315068 L11.0821918,21 L8.5,21 Z M14.6616438,11.1876712 L12.7739726,16.3520548 L16.5315068,16.3520548 L14.6616438,11.1876712 Z"/>
</svg>
