<svg xmlns="http://www.w3.org/2000/svg" width="30" height="30" viewBox="0 0 30 30">
  <path fill="#264A8C" fill-rule="evenodd" d="M14.977943,-1.77635684e-15 C23.2377189,-1.77635684e-15 29.9572912,6.7197556 29.9572912,14.9793483 C29.9572912,23.2386965 23.23778,29.9583299 14.977943,29.9583299 C6.71841141,29.9583299 -4.08562073e-14,23.2389409 -4.08562073e-14,14.9793483 C-4.08562073e-14,6.7197556 6.71841141,-1.77635684e-15 14.977943,-1.77635684e-15 Z M14.977943,26.7870672 C21.4886151,26.7870672 26.7859674,21.4898371 26.7859674,14.9793483 C26.7859674,8.46885947 21.4886762,3.17132383 14.977943,3.17132383 C8.46751527,3.17132383 3.17138493,8.46885947 3.17138493,14.9793483 C3.17138493,21.4898371 8.46745418,26.7870672 14.977943,26.7870672 Z M14.9826667,21.5 C11.1693333,21.5 8.5,18.588 8.5,15 C8.5,11.308 11.308,8.5 14.9826667,8.5 C17.4093333,8.5 19.472,9.76533333 20.5986667,11.6546667 L18.4493333,13.0066667 C17.7733333,11.7066667 16.5773333,10.892 15,10.892 C12.6773333,10.892 10.9786667,12.712 10.9786667,15 C10.9786667,17.236 12.66,19.0733333 14.9653333,19.0733333 C16.6986667,19.0733333 17.9293333,18.1026667 18.5533333,16.7333333 L20.7893333,17.9293333 C19.7146667,20.044 17.6346667,21.5 14.9826667,21.5 Z"/>
</svg>
