<svg xmlns="http://www.w3.org/2000/svg" width="30" height="30" viewBox="0 0 30 30">
  <path fill="#6A518D" fill-rule="evenodd" d="M14.977943,-1.77635684e-15 C23.2377189,-1.77635684e-15 29.9572912,6.7197556 29.9572912,14.9793483 C29.9572912,23.2386965 23.23778,29.9583299 14.977943,29.9583299 C6.71841141,29.9583299 -4.08562073e-14,23.2389409 -4.08562073e-14,14.9793483 C-4.08562073e-14,6.7197556 6.71841141,-1.77635684e-15 14.977943,-1.77635684e-15 Z M14.977943,26.7870672 C21.4886151,26.7870672 26.7859674,21.4898371 26.7859674,14.9793483 C26.7859674,8.46885947 21.4886762,3.17132383 14.977943,3.17132383 C8.46751527,3.17132383 3.17138493,8.46885947 3.17138493,14.9793483 C3.17138493,21.4898371 8.46745418,26.7870672 14.977943,26.7870672 Z M10.5,21.5 L10.5,8.5 L14.7027397,8.5 C18.8342466,8.5 21.4876712,11.3136986 21.4876712,15 C21.4876712,18.7041096 18.6383562,21.5 14.7561644,21.5 L10.5,21.5 Z M14.5246575,10.8328767 L13.0287671,10.8328767 L13.0287671,19.1493151 L14.5958904,19.1493151 C17.2315068,19.1493151 18.9410959,17.3328767 18.9410959,15 C18.9410959,12.6136986 17.3739726,10.8328767 14.5246575,10.8328767 Z"/>
</svg>
