<svg xmlns="http://www.w3.org/2000/svg" width="30" height="30" viewBox="0 0 30 30">
  <path fill="#AD578E" fill-rule="evenodd" d="M14.977943,0 C23.2377189,0 29.9572912,6.7197556 29.9572912,14.9793483 C29.9572912,23.2386965 23.23778,29.9583299 14.977943,29.9583299 C6.71841141,29.9583299 -4.26325641e-14,23.2389409 -4.26325641e-14,14.9793483 C-4.26325641e-14,6.7197556 6.71841141,0 14.977943,0 Z M14.977943,26.7870672 C21.4886151,26.7870672 26.7859674,21.4898371 26.7859674,14.9793483 C26.7859674,8.46885947 21.4886762,3.17132383 14.977943,3.17132383 C8.46751527,3.17132383 3.17138493,8.46885947 3.17138493,14.9793483 C3.17138493,21.4898371 8.46745418,26.7870672 14.977943,26.7870672 Z M10.5,21.5 L10.5,8.5 L19.2438356,8.5 L19.2438356,10.8684932 L13.0109589,10.8684932 L13.0109589,13.7890411 L19.2438356,13.7890411 L19.2438356,16.1575342 L13.0109589,16.1575342 L13.0109589,21.5 L10.5,21.5 Z"/>
</svg>
