<?xml version="1.0" encoding="iso-8859-1"?>
<!-- Generator: Adobe Illustrator 14.0.0, SVG Export Plug-In . SVG Version: 6.00 Build 43363)  -->
<!DOCTYPE svg PUBLIC "-//W3C//DTD SVG 1.1//EN" "http://www.w3.org/Graphics/SVG/1.1/DTD/svg11.dtd">
<svg version="1.1" id="Layer_1" xmlns="http://www.w3.org/2000/svg" xmlns:xlink="http://www.w3.org/1999/xlink" x="0px" y="0px"
	 width="250px" height="39px" viewBox="0 0 250 39" style="enable-background:new 0 0 250 39;" xml:space="preserve">
<g>
	<path d="M113.92,30.655c-1.812-1.661-4.077-2.717-6.645-2.566l4.833-5.134C115.58,23.709,113.466,28.692,113.92,30.655
		 M137.629,31.109l-4.077-2.266c-0.301-3.926,0-9.363,0.15-13.139l4.229,2.417L137.629,31.109z M115.732,18.122
		c-1.358,1.661-2.718,2.868-4.378,4.53c-0.755,0-1.21-0.905-1.965-1.358l0.152-6.041C111.504,16.309,113.315,17.819,115.732,18.122z
		 M125.095,14.195l-0.151-4.682c-2.114,1.662-4.079,4.38-6.343,6.041c-2.567-0.301-4.832-1.66-6.946-3.021
		c-1.812,1.662-3.776,3.021-6.042,4.079c0.152,2.267-0.301,4.076-0.15,6.343l3.17,2.565c-1.66,2.268-4.983,4.079-4.68,6.948
		c0,0.756,0,1.811,0.755,1.811c-0.454-0.905-0.755-2.87,0.904-3.322c2.417-0.604,4.23,0.907,6.042,2.268
		c1.963-1.512,3.925-3.021,6.041-4.081l0.149-6.643l-3.02-2.265c1.662-1.511,3.02-2.869,4.682-4.531
		c0.454,0,1.208-0.301,1.511,0.152l-0.153,12.231l-0.754,1.812c1.509,1.057,3.325,2.718,4.984,3.474l3.926-3.474
		c1.965,1.209,4.079,2.568,6.191,3.773c2.114-1.961,4.079-3.47,6.495-4.53c-0.303-3.623-0.303-9.36,0-12.835
		c-1.813-1.206-3.776-2.265-5.74-3.171c-1.961,1.813-4.076,3.171-6.342,4.229l-0.15,11.325c-0.906,0.451-1.058,1.661-2.265,1.963
		c-1.059-0.151-1.964-1.056-2.568-1.963c0.151-4.229,0-9.363,0.453-13.439c1.057,0.151,2.719,0.151,3.926,0
		c0-0.303,0.151-0.755-0.15-0.906L125.095,14.195z M79.338,19.329l-0.151,9.967c1.208,1.661,2.568,0.153,3.926-0.302l0.151-7.247
		C82.207,20.688,80.848,19.783,79.338,19.329z M186.708,21.747c1.208,2.265,1.51,5.587,0,7.853c-1.511,1.51-3.775,2.113-6.041,1.963
		l-0.303-13.139C182.933,17.367,185.5,19.48,186.708,21.747z M173.872,26.124c-0.303,0.755-0.303,1.664-1.058,2.115
		c-2.718-2.566-3.474-6.492-3.021-9.815c0.303-2.115,1.661-4.832,3.926-6.191L173.872,26.124z M185.65,12.988
		c-1.359,1.811-3.625,3.321-5.135,4.68l-0.151-7.248C182.329,11.023,184.14,11.93,185.65,12.988z M179.61,31.409
		c-2.416-0.149-4.531-1.358-6.342-2.717c1.962-1.059,3.623-2.568,4.227-4.681c0-4.833,0-9.062,0-14.195
		c0.455-0.756,1.51,0,2.115,0.15V31.409z M181.271,6.191c-4.53,3.776-9.512,6.191-13.892,10.269
		c-2.115,3.323-2.115,6.948-0.604,10.571c2.113,4.833,7.399,7.398,12.686,7.248c2.869-0.905,5.586-2.265,8.002-4.529
		c1.359-1.812,4.684-3.474,3.776-6.646c0.151-3.775-3.172-6.796-6.343-8.002c1.813-1.965,4.681-4.381,6.494-6.192l-0.454-0.454
		l-1.66,1.511C186.556,8.91,183.839,7.853,181.271,6.191z M225.971,18.424l-0.151,12.686c-1.511,0.15-2.717-1.51-4.228-2.115V18.122
		c0.451-0.604,1.207-1.208,1.962-1.51C224.612,16.612,225.519,17.668,225.971,18.424z M218.724,8.759
		c-0.906-0.152-1.661-1.208-2.72-0.907c0.906,0.755,1.51,1.964,1.661,3.02v17.367l-0.603,2.114l6.34,3.775
		c1.813-2.114,4.381-3.474,6.495-4.833c-0.303-3.322-0.15-8.458,0-11.778c-0.604-1.661-2.265-3.475-3.927-3.775l-4.379,3.473
		c-0.454-0.908,0.151-2.266,0-3.473c0.151-2.266-1.058-6.192,1.962-7.249C221.743,6.191,219.931,7.249,218.724,8.759z
		 M209.963,31.563c-1.661-0.605-2.869-1.662-4.378-2.419c0-4.075-0.153-9.211,0.152-12.835l4.226,2.265V31.563z M195.617,8.607
		c-0.905-0.151-1.662-1.057-2.417-1.057c0.152,0.604,0.755,1.208,0.905,1.962l0.154,19.783l-0.907,1.813
		c1.359,1.056,2.719,2.115,4.229,3.02l3.775-3.322c2.114,0.756,4.075,2.418,6.342,3.473c1.813-1.811,3.927-3.624,6.344-4.529
		c-0.304-3.927-0.304-9.063,0-12.987l-5.891-3.171c-1.963,2.113-4.229,3.471-6.645,4.53l0.303,11.929
		c-0.755,0.453-1.512,1.059-2.265,1.209c-2.419-0.303-1.662-2.718-1.814-3.926c0.152-5.587,0.152-10.271,0.152-15.707
		c0.15-2.114-0.302-3.775,1.662-5.133C198.185,6.494,196.523,7.249,195.617,8.607z M240.921,20.236l-4.076,2.868
		c0.15-2.566,0-4.531,0.15-6.796C238.354,17.216,240.015,18.878,240.921,20.236z M244.695,18.424l-5.134-4.983
		c-2.264,1.51-4.228,3.474-6.644,4.53l0.15,2.266c-0.302,2.868,0.454,7.098-0.604,9.814c1.963,1.662,4.38,2.87,6.645,4.078
		c1.963-1.964,4.228-3.625,5.891-5.587c-0.152-0.151,0-0.453-0.305-0.303l-3.171,2.416c-1.66,0.454-3.171-0.905-4.529-1.963
		l-0.15-4.53L244.695,18.424z M51.703,19.48l-4.229,3.172l0.302-6.947C48.984,16.763,50.495,18.273,51.703,19.48z M12.289,26.729
		l-0.453,0.604c-2.87-3.322-3.775-8.608-2.115-12.231l3.021-2.266C13.044,17.97,13.195,21.747,12.289,26.729z M19.084,30.504
		c-1.509,0-3.473-0.754-4.983-1.51c-0.453-0.604-1.208-0.604-1.812-1.206c6.946-4.079,3.322-11.025,4.53-17.216l2.114,0.3
		L19.084,30.504z M29.353,7.097l-1.358-1.51c-0.454,6.795-0.454,14.951-0.454,22.803l-0.302,0.453
		c-2.265,1.36-5.134,2.719-7.551,1.66c0.302-6.645-0.151-12.382,0.152-19.481c1.359,0.152,3.02,0.152,4.38-0.151l3.02-5.285
		l-0.301-0.151c-0.454-0.151-0.454,0.755-0.755,1.058c-2.115,2.265-5.89,0.755-8.457,0.755C13.798,7.097,8.966,5.134,6.399,9.363
		c-0.302,1.359-0.604,3.323,0.906,4.38c-0.151-0.755-0.906-1.21-0.604-2.116c0.151-0.755,0.755-1.66,1.51-1.51
		c2.265-0.3,5.587,0,7.703,0.604c-3.172,1.812-6.646,3.474-9.514,5.89c-1.813,3.321-1.813,6.493-0.302,9.966
		c2.416,4.984,7.853,7.248,13.439,7.096l6.947-3.623l3.322,2.718c1.359,1.058,2.566-1.359,3.474-2.113l-1.812-1.812l0.15-11.326
		c0.907-0.906,1.813-1.813,3.021-1.813c0.755,0.152,1.51,0.907,1.51,1.662v13.288l0.906,1.662c2.568,2.868,4.38-1.964,6.795-2.113
		l5.438,3.47c1.963-1.81,4.378-3.773,6.041-5.435c-1.058-0.301-1.663,1.21-2.568,1.812c-1.207,0.604-1.962,0.453-3.02-0.301
		c-3.171-0.606-2.266-3.776-2.266-6.041l7.854-5.587c-1.663-1.813-3.474-3.474-5.287-4.984c-1.962,1.661-4.077,3.323-6.342,4.38
		v11.625L43.246,29.6c-0.906,0.904-2.265,1.81-3.171,0.301c-0.151-3.624-0.301-9.513,0-12.986l-0.301-1.209
		c-0.755-1.207-1.964-2.567-3.474-2.717c-1.661,1.056-3.17,2.566-4.682,3.473C31.92,12.533,30.41,7.4,33.279,4.681
		C31.468,4.681,30.107,5.587,29.353,7.097z M98.517,30.655l-4.077-2.265c-0.303-4.229-0.152-9.363,0.15-13.138l4.228,2.265
		L98.517,30.655z M97.157,12.533c-2.114,1.965-4.832,3.324-6.795,4.683c0.151,3.622,0.151,7.247-0.15,11.023l-0.604,1.057
		c1.964,1.359,4.229,2.719,6.342,3.929c2.265-1.815,4.379-3.324,6.796-4.532c-0.152-3.926-0.301-9.363,0.301-12.987L97.157,12.533z
		 M147.293,13.592c-0.905-0.604-1.812,1.056-2.869,1.51c-0.906,0.906,0.756,1.509,1.058,2.416l-0.302,11.326
		c-0.152,0.756-0.756,1.36-0.907,1.812l3.774,3.019l2.569-2.265c0-0.905-1.51-1.358-1.813-2.266l0.454-11.476
		c0.756-0.452,1.51-1.51,2.718-1.51c0.755,0.151,1.662,1.059,1.813,1.813c0.151,3.625,0,8.608-0.302,12.685
		c0.453,1.51,1.661,2.569,2.869,3.171c1.662-1.058,3.324-2.566,4.529-3.775c-0.301-0.15-0.754,0.303-1.056,0.604
		c-0.604,1.058-1.661,0.454-2.266-0.151c-0.605-3.625,0.15-8.757,0-12.382c0.454-1.208-0.454-2.417-1.358-3.324
		c-2.266-3.623-4.531,1.51-6.797,2.116C148.803,15.857,148.352,14.498,147.293,13.592z M79.791,7.853
		c-5.285,2.416-2.416,9.515-3.624,13.291c-0.906,2.112-3.322,3.774-5.134,4.83c2.718,0.303,4.983,1.511,7.249,2.719l0.604-16.159
		c0-0.3,0.453-0.451,0.604-0.151c0,2.116,0,4.985,0,6.496c1.51-0.756,3.02-1.662,4.229-3.021
		C83.868,12.686,81.301,10.42,79.791,7.853z M64.388,7.249c-1.208,1.812-1.058,3.623,0,5.437h0.151c0-0.303-0.151-0.453-0.151-0.604
		c-0.604-0.907-0.151-2.115,0.303-2.871c2.415-1.057,5.285-0.301,7.4,0.151c-2.719,1.813-5.287,4.531-4.834,8.004h-2.869
		c-0.755,0.452-1.813,0.906-1.962,1.962c-0.152,0.755-0.302,1.814,0.453,2.266c-0.303-0.757-0.151-1.358,0.151-2.114
		c0.604-0.453,1.51-0.301,2.265-0.453c1.662,0.301,2.567,1.51,1.962,3.02c0.151,1.511-1.056,2.719-1.962,3.473l1.812-0.603
		c5.135-1.963,2.718-7.551,3.625-11.93c0.453-3.171,3.624-5.437,6.191-6.494C72.392,6.645,68.315,3.926,64.388,7.249z
		 M87.644,13.592c-1.057,1.51-2.87,2.113-4.228,3.471c1.358,1.21,3.02,1.964,4.379,3.021c-0.755,2.568-0.454,5.739-0.604,8.155
		c-3.171,1.057-6.645,1.965-8.91,4.682c-4.229-2.114-9.061-5.587-13.742-2.87c-1.057,0.906-1.209,3.021-0.454,4.229
		c-0.755,0.304-0.905-1.207-1.057-1.811c-0.454-1.512,0.755-2.869,1.51-4.229c2.265-3.321,7.551-0.755,8.154-5.738
		c0.303-3.172-0.453-6.947,0.755-9.968c2.417-3.623,6.041-4.982,9.363-7.549C84.473,7.701,86.738,10.42,87.644,13.592z"/>
</g>
</svg>
