<?xml version="1.0" encoding="UTF-8"?>
<svg id="icon-atlantic-wordmark" width="300" height="46.649" text-align="center" version="1.1" viewBox="0 0 300 46.649" xmlns="http://www.w3.org/2000/svg" xmlns:cc="http://creativecommons.org/ns#" xmlns:dc="http://purl.org/dc/elements/1.1/" xmlns:rdf="http://www.w3.org/1999/02/22-rdf-syntax-ns#">
 <metadata>
  <rdf:RDF>
   <cc:Work rdf:about="">
    <dc:format>image/svg+xml</dc:format>
    <dc:type rdf:resource="http://purl.org/dc/dcmitype/StillImage"/>
    <dc:title/>
   </cc:Work>
  </rdf:RDF>
 </metadata>
 <path d="m55.221 18.547c-3.3646 0-6.2105 2.5515-9.8134 7.4582-1.6543 2.2991-3.7852 5.6077-4.7245 7.0096-0.53273 0.71498-0.9533 0.60282-0.6589-0.16823l2.4954-6.3927 8.9162-24.534c0.43459-1.0094-3.1263-2.229-3.7712-1.0094v0.12617c-1.5281 3.2524-4.374 4.3179-9.4629 4.1357-5.089-0.18225-15.323-3.0001-23.062-3.0001-9.7013 0-15.141 5.9722-15.141 13.01 0 3.9534 2.5935 6.5049 6.0843 6.3787a3.1823 3.1823 0 0 0 3.3786-2.5375 1.6823 1.6823 0 0 0-2.187-2.0047c-3.4347 0.71498-4.6123-1.6543-4.6123-3.4908 0-4.374 3.7291-7.6264 11.524-7.6264 2.0047 0 5.9161 0.47665 10.052 0.93928-5.2572 15.842-10.584 30.52-11.888 33.996a2.902 2.902 0 0 1-1.8926 2.0188c-1.8786 0.5888-2.4814 0.64488-3.659 0.93928-1.7804 0.42058-1.486 1.8926-0.23833 1.8365 2.2431-0.12617 5.145-0.42057 7.4442-0.42057 2.8038 0 7.8647 0.23832 8.6358 0.2944 1.4019 0.12617 1.5982-1.5982 0.42058-1.7664-0.82713-0.12617-2.187-0.35048-3.4908-0.53273-1.5421-0.18225-2.0047-0.82713-1.6543-2.0748 0.77105-2.0608 9.8134-28.193 11.594-33.646 2.8038 0.35048 5.2011 0.5888 6.7853 0.70096 3.2665 0.19627 6.4068 0 9.1125-1.9767l-7.1498 20.188-6.2666 17.286c-1.0655 2.8038 2.944 3.0141 3.8412 1.3038a114.45 114.45 0 0 1 10.697-17.328c2.6076-3.7852 5.0329-6.0423 6.7432-6.0423 1.3038 0 2.0608 0.71498 2.0608 2.3132 0 2.1309-0.99536 5.4394-3.0141 11.061-2.6496 7.332-3.659 9.2807-4.5422 9.3368-0.88321 0.05608-2.6076-2.1309-3.5468-2.3692a1.9487 1.9487 0 0 0-2.3132 1.0094c-0.47665 0.82713-0.16823 3.4908 3.8412 3.673 4.7946 0.22431 8.8741-4.6824 11.706-12.533 1.9487-5.3273 2.4253-8.047 2.4253-9.9957 0-3.7852-1.7664-5.5656-4.6684-5.5656zm81.171 25.361c-3.0141-0.70096-4.2058-1.8225-4.2058-3.0141l0.12617-2.4814c0-1.8225 1.4019-28.725 1.7103-32.749 0.23832-2.958-3.1403-2.8038-4.5562-1.0655l-2.8038 3.6029c-3.4487 4.3179-17.314 22.234-24.085 30.632a16.122 16.122 0 0 1-7.2479 5.0189c-1.1215 0.2944-1.0094 1.486 0.23832 1.486 0.99536 0 3.9534-0.35048 6.1404-0.35048 2.187 0 6.2105 0.16823 7.2199 0.22431 1.0094 0.05608 1.4019-1.0655 0-1.4019-2.8038-0.82713-4.2058-1.4019-4.2058-2.1309s0.64488-1.7103 2.187-3.8412c1.1776-1.6543 4.0095-5.3834 7.1498-9.519h13.514c-0.2944 5.6778-0.64488 11.65-0.70095 12.828a1.5982 1.5982 0 0 1-1.3038 1.5982l-3.0141 0.88321c-0.82713 0.23833-1.1916 1.7804 0.11216 1.7244 2.958-0.18225 5.4394-0.42058 6.7432-0.42058 1.9487 0 5.2572 0.42058 6.7993 0.47665 1.5421 0.05608 1.3178-1.1916 0.18225-1.5zm-8.4115-21.688c0 1.0655-0.12617 2.2431-0.18225 3.4908h-11.566c5.3834-7.1077 11.061-14.552 11.538-15.267 0.47665-0.71498 0.93929-0.35048 0.88321 0.18225-0.18225 2.6076-0.47665 7.3881-0.70096 11.594zm-50.763-3.2524c-5.145-0.23833-10.879 5.7338-13.599 14.72-2.6636 8.6919 0.2944 12.295 3.5468 12.295 2.3692 0 6.3226-3.0702 8.5096-6.617 0.77105-1.2477 0.18225-2.5515-0.99536-1.2477-1.486 1.5982-3.4908 3.3085-5.6077 2.902-1.4019-0.23833-2.7197-2.6636-0.64488-8.6919 4.9628-0.23833 10.809-3.0702 12.295-7.7526 1.2898-4.0375-1.3739-5.5516-3.5048-5.6077zm0.53273 4.374c-1.2477 3.659-5.6077 6.7292-8.748 7.5003 3.0141-7.9769 5.9021-10.108 7.7386-10.052 1.0094 0 1.486 1.1496 1.0094 2.5515zm75.619-1.4019h4.7946c1.0655 0 1.5982-0.2944 1.8225-1.0655 0.42058-1.0094 0.18225-1.486-0.8832-1.486h-4.7946l2.3132-6.1404c0.29441-0.82713 0-1.2477-0.47665-1.2477h-2.4814c-0.64488 0-0.88321 0.18225-1.1776 1.0094l-2.4814 6.4208h-3.7852c-0.53273 0-0.95331-0.11215-1.3038 1.486-0.12618 0.77105 0 1.0655 0.77105 1.0655h3.3646l-5.7338 14.958a63.983 63.983 0 0 0-2.3692 6.561c-0.35048 2.0748 0.89723 2.902 2.4253 2.6076 3.0141-0.53273 7.332-3.673 11.215-8.5797 1.0654-1.4019 0.18225-2.2991-0.88321-1.1776a48.226 48.226 0 0 1-5.145 4.4301c-1.5421 1.0094-2.2992 0.2944-1.7664-1.1776zm53.329-1.4019c0.35048-0.82713-0.82713-1.0655-3.5468-1.5842-0.82713-0.18225-1.3038 0.70096-2.7197 3.659a5.6077 5.6077 0 0 0-4.9067-2.0047c-4.3179 0.11215-9.6452 4.0095-14.019 9.9816-3.4908 4.7946-4.5562 8.1031-3.8973 11.65a4.36 4.36 0 0 0 4.3179 3.5328c3.2524 0.11215 6.5049-2.958 9.8134-6.3367l2.0748-2.0748c0.5888-0.5888 1.1215-0.23833 0.75703 0.47665a33.324 33.324 0 0 0-2.6496 5.846c-0.42057 2.0748 0.70096 2.6076 2.2991 2.3692 3.0702-0.40656 7.8648-3.2524 11.538-8.3274 1.0514-1.486 0-2.3132-0.9533-1.1916a37.319 37.319 0 0 1-5.2572 4.6123c-1.5982 1.0655-2.3132 0.77105-1.8365-0.47665 0.23832-0.77105 1.1215-2.902 8.9863-20.132zm-13.655 15.421c-3.7291 3.4347-6.7432 5.9161-8.818 5.9161-1.4019 0-2.0608-0.60282-2.187-1.5982-0.35048-2.6076 2.0188-6.561 3.9674-9.2246 3.3646-4.4301 7.5143-8.1031 10.164-8.1031 1.8365 0 2.8038 0.77105 2.958 1.8926 0.35048 2.0468-3.0702 8.3134-6.0843 11.033zm82.124-17.818c-2.902 0-6.7993 2.0608-10.472 6.1404-1.1776 1.4019-0.29441 2.3132 0.82713 1.3038a28.431 28.431 0 0 1 4.0235-3.0702c1.2477-0.77105 2.0748-0.18225 1.7103 0.93928-0.2944 0.89723-1.1776 3.0842-1.8225 4.5562l-4.0235 9.2246c-1.1215 2.6076-2.187 5.2011-2.4253 5.9161-0.53273 1.8365 0.40655 2.8038 1.8926 2.8038 2.8038 0 6.6871-2.3132 10.402-6.4488 1.1776-1.4019 0.2944-2.2991-0.82713-1.3038a39.254 39.254 0 0 1-4.374 3.3646c-1.2337 0.75703-2.1309 0.16823-1.7103-0.9533 0.2944-0.82713 1.1776-2.7197 1.7664-4.0796l4.0796-9.2246c1.1916-2.7197 2.5515-5.6077 2.8038-6.3787 0.44861-1.7945-0.4346-2.7898-1.8505-2.7898zm3.5468-14.314a3.3506 3.3506 0 0 0-3.5468 3.0141 2.93 2.93 0 0 0 2.5935 3.4347 3.4067 3.4067 0 0 0 3.4908-2.958 2.916 2.916 0 0 0-2.5375-3.4908zm16.374 15.197c-5.2011-0.23833-10.767 5.7899-13.486 14.664-2.7197 8.8741 0.23833 12.295 3.673 12.295 2.3692 0 6.3226-2.8038 8.6919-6.617 0.77106-1.2477 0.18225-2.5515-1.0094-1.2477-1.472 1.5982-3.3646 3.0702-5.3133 2.958-1.9487-0.11215-3.3225-2.8038-1.0654-9.2807 3.3085-9.3368 5.6077-10.402 6.617-10.472 1.0094-0.0701 3.0702 2.6076 4.3179 2.902a1.9066 1.9066 0 0 0 2.2991-0.99536c0.53273-1.0094 0.19627-3.9674-4.7244-4.2057zm-33.576 0.40656h-4.7946l2.2992-6.1404c0.30842-0.82713 0-1.2477-0.46264-1.2477h-2.4954c-0.64488 0-0.8832 0.18225-1.1776 1.0094l-2.4253 6.3787h-3.8412c-0.53273 0-0.93929-0.11215-1.3038 1.486-0.11216 0.77105 0.0701 1.0655 0.77105 1.0655h3.3786l-5.7338 14.958a60.759 60.759 0 0 0-2.3692 6.561c-0.3645 2.0748 0.88321 2.902 2.4253 2.6076 3.0141-0.53273 7.332-3.673 11.215-8.5797 1.0654-1.4019 0.18225-2.2991-0.89723-1.1776a48.128 48.128 0 0 1-5.159 4.4301c-1.5421 1.0094-2.3132 0.2944-1.7804-1.1776l6.603-17.664h4.7946c1.0655 0 1.5982-0.2944 1.8365-1.0655 0.40656-0.96732 0.16823-1.444-0.8832-1.444zm-89.162 16.683a56.413 56.413 0 0 1-5.3273 4.6684c-1.5421 1.0094-2.2991 0.2944-1.7664-1.1776l14.426-38.202c0.23833-0.5888 0.11216-1.4019-0.71497-1.4019a82.152 82.152 0 0 0-8.4115 0.9533c-0.47665 0.11215-0.71498 0.82713-0.18225 0.99536l3.1964 1.1916c0.64488 0.23833 0.71498 0.53273 0.2944 1.5982l-12.393 32.202a60.759 60.759 0 0 0-2.3692 6.561c-0.35048 2.0748 0.8832 2.902 2.4253 2.6076 3.1964-0.53273 7.7386-3.673 11.706-8.8181 1.0655-1.4159 0.18225-2.2991-0.88321-1.1776zm60.829 0.11215 3.4908-7.0096c1.8926-3.8412 2.2571-5.6077 2.2571-6.9114 0-2.5375-1.3038-3.8412-3.9674-3.8412-3.7291 0-6.6871 2.958-11.215 9.3368-1.2477 1.7103-2.0748 3.0141-3.7291 5.145-0.53273 0.6589-0.93928 0.5888-0.64488-0.18225l2.2991-5.7338a23.833 23.833 0 0 0 1.8926-6.2666c0-1.5281-0.64488-2.2431-2.2991-2.2431-2.0188 0-4.5562 1.0655-8.9863 6.6871-1.5982 2.0608 0 2.2991 0.53273 1.6543 0.88321-0.89723 2.8038-2.902 4.0796-4.0235 1.2757-1.1215 2.4113-0.77105 1.9487 0.5888a25.739 25.739 0 0 1-1.1215 3.1403l-7.0096 17.202c-0.95331 2.3692 3.5468 2.902 4.3179 1.1215 2.4253-5.6077 7.7386-12.617 9.9256-15.729 3.1964-4.5562 5.9722-7.6825 7.9769-7.6825 1.0654 0 1.5421 0.5888 1.5421 1.7103a8.1732 8.1732 0 0 1-0.82713 2.8038l-4.9628 10.584c-1.4019 2.8038-2.7197 5.7899-2.958 6.561-0.58881 1.8365 0.42057 2.8038 2.0047 2.8038 2.8038 0 6.6871-2.3132 10.416-6.4488 1.1776-1.4019 0.2944-2.2991-0.82714-1.3038a40.656 40.656 0 0 1-4.374 3.3786c-1.2898 0.82713-2.187 0.16823-1.7664-1.0094 0.2944-0.84115 1.3599-3.0281 2.0047-4.3319z" stroke-width="1.4019"/>
</svg>
