<svg width="32" height="32" viewBox="0 0 32 32" fill="none" xmlns="http://www.w3.org/2000/svg">
<path fill-rule="evenodd" clip-rule="evenodd" d="M15.9992 0C7.17652 0 0 6.87864 0 15.3335C0 23.7884 7.17652 30.6667 15.9992 30.6667C24.8223 30.6667 32 23.7882 32 15.3335C32 6.87864 24.8222 0 15.9992 0ZM15.9993 27.4204C9.0449 27.4204 3.38771 21.9979 3.38771 15.3335C3.38771 8.6691 9.04497 3.24631 15.9993 3.24631C22.954 3.24631 28.6125 8.6691 28.6125 15.3335C28.6125 21.9979 22.9539 27.4204 15.9993 27.4204Z" fill="white"/>
<path d="M14.5156 7.60352L14.7568 16.584H17.2339L17.4844 7.60352H14.5156ZM16 21.269C17.0483 21.269 17.6885 20.6753 17.6885 19.7197C17.6885 18.7549 17.0483 18.1611 16 18.1611C14.9609 18.1611 14.3115 18.7549 14.3115 19.7197C14.3115 20.6753 14.9609 21.269 16 21.269Z" fill="white"/>
</svg>