<svg fill="none" xmlns="http://www.w3.org/2000/svg" viewBox="0 0 78 12"><defs/><path d="M14.205 4.771c-.865 0-1.597.656-2.524 1.919-.426.591-.974 1.442-1.216 1.803-.137.184-.245.155-.17-.043l.643-1.645L13.23.495c.112-.26-.804-.574-.97-.26v.032c-.393.837-1.125 1.11-2.434 1.064C8.518 1.284 5.885.559 3.895.559 1.399.559 0 2.095 0 3.906c0 1.017.667 1.673 1.565 1.64a.819.819 0 00.87-.652.433.433 0 00-.563-.516C.988 4.562.685 3.952.685 3.48c0-1.125.96-1.962 2.965-1.962.515 0 1.521.123 2.585.242a294.782 294.782 0 01-3.058 8.745.746.746 0 01-.487.52c-.483.15-.638.165-.941.241-.458.108-.382.487-.061.472.577-.032 1.323-.108 1.915-.108.72 0 2.023.062 2.221.076.36.032.411-.411.108-.454-.212-.033-.562-.09-.898-.137-.396-.047-.515-.213-.425-.534.198-.53 2.524-7.252 2.982-8.655.721.09 1.338.151 1.746.18.84.05 1.648 0 2.344-.508L9.84 6.79 8.23 11.237c-.275.721.757.775.988.336a29.443 29.443 0 012.751-4.458c.671-.974 1.295-1.554 1.735-1.554.335 0 .53.184.53.595 0 .548-.256 1.4-.775 2.845-.682 1.886-.942 2.388-1.169 2.402-.227.014-.67-.548-.912-.61a.501.501 0 00-.595.26c-.123.213-.043.898.988.945 1.233.058 2.283-1.204 3.011-3.224.501-1.37.624-2.07.624-2.571 0-.974-.454-1.432-1.2-1.432zm20.88 6.524c-.775-.18-1.081-.469-1.081-.775l.032-.639c0-.469.36-7.39.44-8.424.061-.761-.808-.721-1.172-.274l-.721.927c-.887 1.11-4.454 5.72-6.196 7.88a4.148 4.148 0 01-1.864 1.29c-.289.076-.26.383.061.383.256 0 1.017-.09 1.58-.09.562 0 1.597.043 1.857.057.26.015.36-.274 0-.36-.721-.213-1.082-.361-1.082-.548 0-.188.166-.44.563-.989.302-.425 1.03-1.384 1.839-2.448h3.476c-.076 1.46-.166 2.996-.18 3.3a.412.412 0 01-.336.41l-.775.228c-.213.061-.306.458.029.443.76-.047 1.4-.108 1.735-.108.5 0 1.352.108 1.749.123.396.014.339-.307.047-.386zm-2.163-5.579c0 .274-.033.577-.047.898H29.9c1.385-1.828 2.845-3.743 2.968-3.927.122-.184.241-.09.227.047-.047.67-.123 1.9-.18 2.982h.007zm-13.059-.837c-1.323-.061-2.798 1.475-3.498 3.787-.685 2.236.076 3.163.913 3.163.61 0 1.626-.79 2.189-1.703.198-.32.047-.656-.256-.32-.383.41-.898.85-1.443.746-.36-.061-.7-.685-.166-2.236 1.277-.061 2.78-.79 3.163-1.994.332-1.039-.353-1.428-.902-1.443zM20 6.004c-.32.942-1.442 1.731-2.25 1.93.776-2.052 1.518-2.6 1.99-2.586.26 0 .383.296.26.656zm19.453-.36h1.233c.274 0 .411-.076.469-.274.108-.26.047-.383-.227-.383h-1.234l.595-1.58c.076-.212 0-.32-.122-.32h-.639c-.165 0-.227.047-.303.26l-.638 1.651h-.974c-.136 0-.245-.029-.335.383-.032.198 0 .274.199.274h.865l-1.475 3.848a16.455 16.455 0 00-.61 1.687c-.09.534.231.747.624.671.776-.137 1.886-.945 2.886-2.207.274-.36.046-.591-.228-.303-.414.41-.856.791-1.323 1.14-.397.26-.592.075-.455-.303l1.692-4.544zm13.718-.36c.09-.214-.213-.275-.912-.408-.213-.047-.336.18-.7.94a1.442 1.442 0 00-1.262-.515c-1.11.03-2.481 1.032-3.606 2.568-.898 1.233-1.172 2.084-1.003 2.997a1.121 1.121 0 001.11.909c.837.028 1.674-.761 2.525-1.63l.534-.534c.151-.152.288-.062.195.122a8.567 8.567 0 00-.682 1.504c-.108.534.18.67.591.61.79-.105 2.024-.837 2.968-2.142.27-.383 0-.596-.245-.307a9.599 9.599 0 01-1.352 1.186c-.411.274-.595.199-.473-.122.062-.198.289-.747 2.312-5.179zM49.658 9.25c-.959.884-1.734 1.522-2.268 1.522-.36 0-.53-.155-.562-.411-.09-.67.519-1.688 1.02-2.373.866-1.14 1.933-2.085 2.615-2.085.472 0 .721.199.76.487.09.527-.79 2.139-1.565 2.838v.022zm21.126-4.583c-.746 0-1.749.53-2.694 1.58-.303.36-.076.594.213.334a7.31 7.31 0 011.035-.79c.321-.198.534-.046.44.242-.076.231-.303.794-.469 1.172l-1.035 2.373c-.288.671-.562 1.338-.624 1.522-.137.473.105.721.487.721.721 0 1.72-.595 2.676-1.659.303-.36.076-.59-.213-.335-.354.315-.73.604-1.125.866-.317.194-.548.043-.44-.246.076-.212.303-.7.454-1.049l1.05-2.373c.306-.7.656-1.442.721-1.64.115-.462-.112-.718-.476-.718zm.912-3.682a.862.862 0 00-.912.775.753.753 0 00.667.883.876.876 0 00.898-.76.749.749 0 00-.653-.898zm4.213 3.909c-1.338-.062-2.77 1.49-3.47 3.772-.7 2.283.062 3.163.945 3.163.61 0 1.627-.722 2.236-1.703.198-.32.047-.656-.26-.32-.378.41-.865.79-1.366.76-.502-.028-.855-.72-.274-2.387.85-2.402 1.442-2.676 1.702-2.694.26-.018.79.67 1.11.747a.49.49 0 00.592-.256c.137-.26.05-1.021-1.215-1.082zm-8.637.104h-1.234l.592-1.58c.079-.212 0-.32-.12-.32h-.641c-.166 0-.228.047-.303.26l-.624 1.64h-.988c-.137 0-.242-.029-.336.383-.028.198.018.274.199.274h.869L63.21 9.503c-.235.55-.439 1.114-.61 1.687-.093.534.228.747.624.671.776-.137 1.886-.945 2.885-2.207.274-.36.047-.591-.23-.303-.415.41-.859.792-1.328 1.14-.396.26-.595.075-.458-.303l1.699-4.544h1.233c.274 0 .412-.076.473-.274.104-.25.043-.372-.227-.372zM44.336 9.29c-.432.428-.89.83-1.37 1.2-.397.26-.592.076-.455-.302L46.22.36c.062-.152.03-.361-.183-.361-.725.045-1.447.126-2.164.245-.123.03-.184.213-.047.256l.822.307c.166.061.184.137.076.41l-3.188 8.285c-.235.55-.439 1.114-.61 1.687-.09.534.228.747.625.671.822-.137 1.99-.945 3.01-2.268.275-.365.048-.592-.226-.303zm15.647.029l.898-1.804c.487-.988.58-1.442.58-1.777 0-.653-.334-.989-1.02-.989-.959 0-1.72.761-2.885 2.402-.32.44-.533.776-.959 1.324-.137.17-.242.151-.166-.047l.592-1.475a6.13 6.13 0 00.486-1.612c0-.393-.166-.577-.591-.577-.52 0-1.172.274-2.312 1.72-.41.53 0 .592.137.426.228-.231.722-.747 1.05-1.035.328-.289.62-.199.501.151a6.625 6.625 0 01-.288.808l-1.804 4.425c-.245.61.913.746 1.111.288.624-1.442 1.99-3.245 2.553-4.046.823-1.172 1.537-1.976 2.052-1.976.275 0 .397.151.397.44-.027.251-.099.495-.213.721L58.826 9.41c-.361.721-.7 1.49-.761 1.688-.152.472.108.72.515.72.722 0 1.72-.594 2.68-1.658.303-.36.076-.592-.213-.335-.355.314-.73.605-1.125.869-.332.212-.563.043-.454-.26.075-.216.35-.779.515-1.114z" fill="#fff"/></svg>