<svg id="Layer_1" data-name="Layer 1" xmlns="http://www.w3.org/2000/svg" viewBox="0 0 175.02 50"><title>The-COVID-Tracking-Project-logo-bw-website</title><path d="M25,45.5a20.5,20.5,0,0,1,0-41V0a25,25,0,0,0,0,50V45.5Z" style="fill:#fff;fill-rule:evenodd"/><circle cx="25" cy="25" r="16" style="fill:#fff"/><path d="M53,13.14H49.72V11.06h8.69v2.08H55.19v9.6H53v-9.6Z" style="fill:#fff"/><path d="M59.59,10.14h2.19v5a3.06,3.06,0,0,1,2.51-1.23c2,0,3.36,1.34,3.36,3.6v5.22H65.39V17.87a1.72,1.72,0,0,0-1.76-2A1.87,1.87,0,0,0,61.79,18v4.77H59.59V10.14Z" style="fill:#fff"/><path d="M68.76,18.44a4.46,4.46,0,0,1,4.53-4.51,4.3,4.3,0,0,1,4.47,4.43v0.83H70.89A2.4,2.4,0,0,0,73.37,21a2.36,2.36,0,0,0,2.15-1.15l1.81,1.06a4.54,4.54,0,0,1-4,2A4.35,4.35,0,0,1,68.76,18.44Zm2.19-1h4.61a2.18,2.18,0,0,0-2.27-1.67A2.4,2.4,0,0,0,71,17.47Z" style="fill:#fff"/><path d="M82.82,16.91a5.88,5.88,0,0,1,6-6A6,6,0,0,1,94,13.82l-2,1.25a3.46,3.46,0,0,0-3.19-2,3.68,3.68,0,0,0-3.71,3.79,3.67,3.67,0,0,0,3.68,3.76,3.52,3.52,0,0,0,3.31-2.16l2.06,1.1A6,6,0,0,1,82.82,16.91Z" style="fill:#fff"/><path d="M94.68,16.91a6,6,0,1,1,6,6A6,6,0,0,1,94.68,16.91Zm9.7,0a3.71,3.71,0,1,0-3.73,3.78A3.74,3.74,0,0,0,104.38,16.91Z" style="fill:#fff"/><path d="M106.2,11.06h2.38l3.14,8.68,3.17-8.68h2.37l-4.42,11.68h-2.23Z" style="fill:#fff"/><path d="M118.28,11.06h2.29V22.75h-2.29V11.06Z" style="fill:#fff"/><path d="M122.54,11.06h3.78a5.72,5.72,0,0,1,6.1,5.84,5.8,5.8,0,0,1-6.05,5.84h-3.83V11.06Zm2.27,2.1v7.47h1.41a3.67,3.67,0,0,0,3.91-3.73,3.61,3.61,0,0,0-4-3.75h-1.34Z" style="fill:#fff"/><path d="M53,29.14H49.72V27.06h8.69v2.08H55.19v9.6H53v-9.6Z" style="fill:#fff"/><path d="M57.91,30.1h2.18v1.33a2.37,2.37,0,0,1,2.39-1.49,3.22,3.22,0,0,1,1.46.34l-0.8,2.18a2,2,0,0,0-1.15-.3,1.73,1.73,0,0,0-1.87,2v4.56H57.91V30.1Z" style="fill:#fff"/><path d="M63.93,36.35c0-1.79,1.49-2.9,3.89-2.9h2.27V33.34a1.59,1.59,0,0,0-1.87-1.57,2.15,2.15,0,0,0-2,1.14l-2-1a4.83,4.83,0,0,1,4.08-2c2.55,0,4,1.33,4,3.5v5.31H70.11V37.42a3.85,3.85,0,0,1-3.17,1.5C65,38.92,63.93,37.87,63.93,36.35Zm6.18-.82V35.07h-2c-1.31,0-1.84.42-1.84,1.09s0.43,0.94,1.34.94A2.85,2.85,0,0,0,70.11,35.53Z" style="fill:#fff"/><path d="M73.34,34.43a4.56,4.56,0,0,1,8.74-1.76l-2,.82A2.23,2.23,0,0,0,77.9,32a2.42,2.42,0,0,0,0,4.83,2.27,2.27,0,0,0,2.15-1.5l2.06,0.85a4.51,4.51,0,0,1-4.24,2.75A4.45,4.45,0,0,1,73.34,34.43Z" style="fill:#fff"/><path d="M86.62,35.18l-1.33,1.49v2.08H83.1V26.14h2.19v8l3.51-4h2.64l-3.25,3.68,3.41,5H89.07Z" style="fill:#fff"/><path d="M93.67,26.23a1.37,1.37,0,0,1,1.42,1.44,1.42,1.42,0,0,1-2.83,0A1.38,1.38,0,0,1,93.67,26.23ZM92.55,30.1h2.26v8.64H92.55V30.1Z" style="fill:#fff"/><path d="M96.46,30.1h2.21v1.09a3,3,0,0,1,2.53-1.26c2,0,3.35,1.34,3.35,3.6v5.22h-2.26V33.87a1.72,1.72,0,0,0-1.76-2A1.87,1.87,0,0,0,98.68,34v4.77H96.46V30.1Z" style="fill:#fff"/><path d="M105.64,34.41a4.25,4.25,0,0,1,4.19-4.48,3.25,3.25,0,0,1,2.69,1.31V30.1h2.21v8a4.27,4.27,0,0,1-4.53,4.34A5.13,5.13,0,0,1,106,40.73l1.82-1.42a2.66,2.66,0,0,0,2.35,1.17,2.25,2.25,0,0,0,2.39-2.3V37.52a3.31,3.31,0,0,1-2.72,1.36A4.26,4.26,0,0,1,105.64,34.41Zm7,0a2.4,2.4,0,1,0-2.4,2.43A2.39,2.39,0,0,0,112.63,34.39Z" style="fill:#fff"/><path d="M120.36,27.06H125a4.25,4.25,0,1,1,0,8.5h-2.32v3.19h-2.27V27.06Zm2.27,2.06v4.34h2.19a2.17,2.17,0,1,0,0-4.34h-2.19Z" style="fill:#fff"/><path d="M130.23,30.1h2.18v1.33a2.37,2.37,0,0,1,2.39-1.49,3.22,3.22,0,0,1,1.46.34l-0.8,2.18a2,2,0,0,0-1.15-.3,1.73,1.73,0,0,0-1.87,2v4.56h-2.19V30.1Z" style="fill:#fff"/><path d="M135.75,34.43a4.57,4.57,0,1,1,4.56,4.5A4.48,4.48,0,0,1,135.75,34.43Zm6.95,0a2.37,2.37,0,1,0-2.37,2.42A2.38,2.38,0,0,0,142.7,34.41Z" style="fill:#fff"/><path d="M144.34,40.14c1.5,0,1.68-.22,1.68-1.65V30.1h2.26v8.42c0,2.78-.86,3.68-3.63,3.68h-0.3V40.14Zm2.8-13.91a1.37,1.37,0,0,1,1.42,1.44,1.42,1.42,0,0,1-2.83,0A1.38,1.38,0,0,1,147.14,26.23Z" style="fill:#fff"/><path d="M149.4,34.44a4.46,4.46,0,0,1,4.53-4.51,4.3,4.3,0,0,1,4.47,4.43v0.83h-6.87A2.4,2.4,0,0,0,154,37a2.36,2.36,0,0,0,2.15-1.15L158,36.92a4.54,4.54,0,0,1-4,2A4.35,4.35,0,0,1,149.4,34.44Zm2.19-1h4.61a2.18,2.18,0,0,0-2.27-1.67A2.4,2.4,0,0,0,151.59,33.47Z" style="fill:#fff"/><path d="M159.26,34.43A4.56,4.56,0,0,1,168,32.67l-2,.82A2.23,2.23,0,0,0,163.82,32a2.42,2.42,0,0,0,0,4.83,2.27,2.27,0,0,0,2.15-1.5L168,36.17a4.51,4.51,0,0,1-4.24,2.75A4.45,4.45,0,0,1,159.26,34.43Z" style="fill:#fff"/><path d="M168.49,30.1h1.6V28.23L172.26,27V30.1h2.27v2h-2.27v3.55c0,0.91.38,1.23,0.94,1.23a1.14,1.14,0,0,0,.8-0.32l1,1.73a3.42,3.42,0,0,1-2.06.66c-1.81,0-2.87-.86-2.87-3.22V32.06h-1.6v-2Z" style="fill:#fff"/></svg>