<svg data-name="Layer 1" xmlns="http://www.w3.org/2000/svg" viewBox="0 0 175.02 50"><defs/><path d="M25 45.5a20.5 20.5 0 010-41V0a25 25 0 000 50v-4.5z" fill="#fff" fill-rule="evenodd"/><circle cx="25" cy="25" r="16" fill="#fff"/><path d="M53 13.14h-3.28v-2.08h8.69v2.08h-3.22v9.6H53v-9.6zM59.59 10.14h2.19v5a3.06 3.06 0 012.51-1.23c2 0 3.36 1.34 3.36 3.6v5.22h-2.26v-4.86a1.72 1.72 0 00-1.76-2A1.87 1.87 0 0061.79 18v4.77h-2.2V10.14zM68.76 18.44a4.46 4.46 0 014.53-4.51 4.3 4.3 0 014.47 4.43v.83h-6.87A2.4 2.4 0 0073.37 21a2.36 2.36 0 002.15-1.15l1.81 1.06a4.54 4.54 0 01-4 2 4.35 4.35 0 01-4.57-4.47zm2.19-1h4.61a2.18 2.18 0 00-2.27-1.67 2.4 2.4 0 00-2.29 1.7zM82.82 16.91a5.88 5.88 0 016-6A6 6 0 0194 13.82l-2 1.25a3.46 3.46 0 00-3.19-2 3.68 3.68 0 00-3.71 3.79 3.67 3.67 0 003.68 3.76 3.52 3.52 0 003.31-2.16l2.06 1.1a6 6 0 01-11.33-2.65zM94.68 16.91a6 6 0 116 6 6 6 0 01-6-6zm9.7 0a3.71 3.71 0 10-3.73 3.78 3.74 3.74 0 003.73-3.78zM106.2 11.06h2.38l3.14 8.68 3.17-8.68h2.37l-4.42 11.68h-2.23zM118.28 11.06h2.29v11.69h-2.29V11.06zM122.54 11.06h3.78a5.72 5.72 0 016.1 5.84 5.8 5.8 0 01-6.05 5.84h-3.83V11.06zm2.27 2.1v7.47h1.41a3.67 3.67 0 003.91-3.73 3.61 3.61 0 00-4-3.75h-1.34zM53 29.14h-3.28v-2.08h8.69v2.08h-3.22v9.6H53v-9.6z" fill="#fff"/><path d="M57.91 30.1h2.18v1.33a2.37 2.37 0 012.39-1.49 3.22 3.22 0 011.46.34l-.8 2.18a2 2 0 00-1.15-.3 1.73 1.73 0 00-1.87 2v4.56h-2.21V30.1zM63.93 36.35c0-1.79 1.49-2.9 3.89-2.9h2.27v-.11a1.59 1.59 0 00-1.87-1.57 2.15 2.15 0 00-2 1.14l-2-1a4.83 4.83 0 014.08-2c2.55 0 4 1.33 4 3.5v5.31h-2.19v-1.3a3.85 3.85 0 01-3.17 1.5c-1.94 0-3.01-1.05-3.01-2.57zm6.18-.82v-.46h-2c-1.31 0-1.84.42-1.84 1.09s.43.94 1.34.94a2.85 2.85 0 002.5-1.57zM73.34 34.43a4.56 4.56 0 018.74-1.76l-2 .82A2.23 2.23 0 0077.9 32a2.42 2.42 0 000 4.83 2.27 2.27 0 002.15-1.5l2.06.85a4.51 4.51 0 01-4.24 2.75 4.45 4.45 0 01-4.53-4.5zM86.62 35.18l-1.33 1.49v2.08H83.1V26.14h2.19v8l3.51-4h2.64l-3.25 3.68 3.41 5h-2.53zM93.67 26.23a1.37 1.37 0 011.42 1.44 1.42 1.42 0 01-2.83 0 1.38 1.38 0 011.41-1.44zm-1.12 3.87h2.26v8.64h-2.26V30.1zM96.46 30.1h2.21v1.09a3 3 0 012.53-1.26c2 0 3.35 1.34 3.35 3.6v5.22h-2.26v-4.88a1.72 1.72 0 00-1.76-2A1.87 1.87 0 0098.68 34v4.77h-2.22V30.1zM105.64 34.41a4.25 4.25 0 014.19-4.48 3.25 3.25 0 012.69 1.31V30.1h2.21v8a4.27 4.27 0 01-4.53 4.34 5.13 5.13 0 01-4.2-1.71l1.82-1.42a2.66 2.66 0 002.35 1.17 2.25 2.25 0 002.39-2.3v-.66a3.31 3.31 0 01-2.72 1.36 4.26 4.26 0 01-4.2-4.47zm7 0a2.4 2.4 0 10-2.4 2.43 2.39 2.39 0 002.39-2.45zM120.36 27.06H125a4.25 4.25 0 110 8.5h-2.32v3.19h-2.27V27.06zm2.27 2.06v4.34h2.19a2.17 2.17 0 100-4.34h-2.19zM130.23 30.1h2.18v1.33a2.37 2.37 0 012.39-1.49 3.22 3.22 0 011.46.34l-.8 2.18a2 2 0 00-1.15-.3 1.73 1.73 0 00-1.87 2v4.56h-2.19V30.1zM135.75 34.43a4.57 4.57 0 114.56 4.5 4.48 4.48 0 01-4.56-4.5zm6.95 0a2.37 2.37 0 10-2.37 2.42 2.38 2.38 0 002.37-2.44z" fill="#fff"/><path d="M144.34 40.14c1.5 0 1.68-.22 1.68-1.65V30.1h2.26v8.42c0 2.78-.86 3.68-3.63 3.68h-.3v-2.06zm2.8-13.91a1.37 1.37 0 011.42 1.44 1.42 1.42 0 01-2.83 0 1.38 1.38 0 011.41-1.44zM149.4 34.44a4.46 4.46 0 014.53-4.51 4.3 4.3 0 014.47 4.43v.83h-6.87A2.4 2.4 0 00154 37a2.36 2.36 0 002.15-1.15l1.85 1.07a4.54 4.54 0 01-4 2 4.35 4.35 0 01-4.6-4.48zm2.19-1h4.61a2.18 2.18 0 00-2.27-1.67 2.4 2.4 0 00-2.34 1.7zM159.26 34.43a4.56 4.56 0 018.74-1.76l-2 .82a2.23 2.23 0 00-2.18-1.49 2.42 2.42 0 000 4.83 2.27 2.27 0 002.15-1.5l2.03.84a4.51 4.51 0 01-4.24 2.75 4.45 4.45 0 01-4.5-4.49zM168.49 30.1h1.6v-1.87l2.17-1.23v3.1h2.27v2h-2.27v3.55c0 .91.38 1.23.94 1.23a1.14 1.14 0 00.8-.32l1 1.73a3.42 3.42 0 01-2.06.66c-1.81 0-2.87-.86-2.87-3.22v-3.67h-1.6v-2z" fill="#fff"/></svg>