<svg height="32" viewBox="0 0 235 32" width="235" xmlns="http://www.w3.org/2000/svg"><g fill="none" fill-rule="evenodd"><path d="m33.9.8v30.2h-7.2l.5-21.5.1-3-.3 1.1c-.4 1.7-.4 1.9-.8 3.2l-5.7 20.3h-6.5l-5.5-19.5-1.4-5.4c.2 2.4.2 2.9.3 5.8l.4 19.1h-7.3v-30.3h11.1l4.6 17 1.1 4.8c.4-2.1.5-2.3.8-3.7l4.8-18.1h11z" fill="#001826"/><path d="m40.2.8h12.2c5 0 9.4 0 12 3.8 1.2 1.7 1.7 4.2 1.7 6.2 0 1.7-.3 3.3-1 4.7-2.6 5.4-8.2 5.5-12.3 5.6h-5v9.9h-7.6zm7.5 5.6v9.2h4.5c2.8 0 6.3-.1 6.3-4.8 0-4.4-3.8-4.4-6-4.4z" fill="#001826"/><path d="m69.7.8h13.6c3.2 0 7.1.1 9.9 3.1 1.4 1.6 2.4 4 2.4 6.7 0 6.1-4.2 7.6-6.2 8.4l7 12.1h-8.4l-6-10.8h-4.8v10.8h-7.6v-30.3zm7.5 5.7v8.2h6.3c1.1 0 4.5-.1 4.5-4.2 0-3.9-2.8-4-4.4-4z" fill="#001826"/><g fill="#129dc0"><path d="m109.6 3.7c.9-.9 1.4-1.6 3-2.3 1.4-.6 3.3-1.1 5.4-1.1 1.8 0 3.8.3 5.3 1.2 3.1 1.7 3.9 4.3 3.9 9v20.4h-8.7v-16.9c0-2.7-.1-3.7-.4-4.5-.7-1.6-2.2-2.3-3.9-2.3-4.6 0-4.6 3.7-4.6 7.4v16.1h-8.8v-29.6h8.9v2.6z"/><path d="m160.9 23.2c-1 1.5-2.1 3-3.6 4.5-2.6 2.4-6.5 4.2-11.3 4.2-8.9 0-15.1-5.7-15.1-15.4.1-7.2 3.6-16.5 15.4-16.5 1.8 0 6.9.2 10.7 4.3 3.9 4.2 4.1 10 4.2 13.4h-21.2c-.1 3.7 2.1 7.4 6.8 7.4 4.8 0 6.5-3.1 7.5-5.3zm-8.7-11c-.2-1.3-.4-2.9-1.7-4.2-1.1-1.1-2.7-1.7-4.3-1.7-2.1 0-3.6 1-4.5 1.9-1.2 1.3-1.5 2.7-1.8 3.9h12.3z"/><path d="m170.8 1 4.2 20.9 4.5-20.9h9.4l4.1 21 4.7-21h9.1l-8.9 29.8h-9.5l-4.4-19.9-4.5 19.9h-9.7l-8.3-29.8z"/><path d="m211.3 20.8c2.4 2.3 5.4 4.1 8.7 4.1 2.1 0 5.3-.7 5.3-2.9 0-1-.6-1.4-1.1-1.7-1.3-.7-3.4-.9-5.1-1.1-1.3-.2-2.7-.5-4-.9-1.8-.5-3.7-1.3-5-2.6s-2.2-3.4-2.2-5.6c0-4.9 4.2-10 12.6-10 7 0 11.3 3 13.3 4.5l-5.4 5c-2.8-2.2-5.4-3-7.5-3-3.4 0-4.2 1.4-4.2 2.2 0 1.7 1.9 2.1 4.7 2.6 6 1.1 13 2.7 13 9.8 0 7-7.1 10.5-14.1 10.5-8.3 0-12.6-4-14.5-5.8z"/></g></g></svg>