<?xml version="1.0" encoding="UTF-8"?>
<svg fill="none" viewBox="0 0 30 30" xmlns="http://www.w3.org/2000/svg">
<rect x="1.5" y="1.5" width="27" height="27" rx="1.5" stroke="#6164BA" stroke-width="3"/>
<path d="m3 8.9062v2.0364h10v-2.0364h-10zm-2-3c-0.55228 0-1 0.44771-1 1v6.0364c0 0.5523 0.44772 1 1 1h14c0.5523 0 1-0.4477 1-1v-6.0364c0-0.55228-0.4477-1-1-1h-14z" clip-rule="evenodd" fill="#6164BA" fill-rule="evenodd"/>
<path d="m3 13.965v2.0365h17v-2.0365h-17zm-2-3c-0.55228 0-1 0.4478-1 1v6.0365c0 0.5523 0.44772 1 1 1h21c0.5523 0 1-0.4477 1-1v-6.0365c0-0.5522-0.4477-1-1-1h-21z" clip-rule="evenodd" fill="#6164BA" fill-rule="evenodd"/>
<path d="m3 19.058v2.0365h5v-2.0365h-5zm-2-3c-0.55228 0-1 0.4477-1 1v6.0365c0 0.5522 0.44772 1 1 1h9c0.5523 0 1-0.4478 1-1v-6.0365c0-0.5523-0.4477-1-1-1h-9z" clip-rule="evenodd" fill="#6164BA" fill-rule="evenodd"/>
</svg>
