<svg width="9" height="11" viewBox="0 0 9 11" fill="none" xmlns="http://www.w3.org/2000/svg">
<path d="M5.70193 5.45165C5.84859 5.30227 5.87616 5.13484 5.87616 5.04678C5.87616 4.94849 5.84943 4.79267 5.70193 4.64244L0.905843 0.145333C0.686362 -0.0604873 0.344749 -0.0460928 0.142776 0.177345C-0.0593019 0.400997 -0.0446418 0.748829 0.174311 0.954434L4.53812 5.04695L0.174311 9.13933C-0.0452746 9.34537 -0.0591964 9.69331 0.142776 9.91653C0.344749 10.14 0.686362 10.1544 0.905843 9.94865L5.70193 5.45165Z" fill="#5667AD"/>
<path d="M8.70193 5.45165C8.84859 5.30227 8.87616 5.13484 8.87616 5.04678C8.87616 4.94849 8.84943 4.79267 8.70193 4.64244L3.90584 0.145333C3.68636 -0.0604873 3.34475 -0.0460928 3.14278 0.177345C2.9407 0.400997 2.95536 0.748829 3.17431 0.954434L7.53812 5.04695L3.17431 9.13933C2.95473 9.34537 2.9408 9.69331 3.14278 9.91653C3.34475 10.14 3.68636 10.1544 3.90584 9.94865L8.70193 5.45165Z" fill="#5667AD"/>
</svg>
