<svg width="14" height="13" fill="none" xmlns="http://www.w3.org/2000/svg"><path d="M12.8 11.77L9.606 8.578a5.316 5.316 0 00-.481-7.009A5.305 5.305 0 005.346 0a5.305 5.305 0 00-3.781 1.57 5.35 5.35 0 000 7.56 5.305 5.305 0 003.78 1.57 5.26 5.26 0 003.228-1.088l3.21 3.174A.714.714 0 0012.3 13a.744.744 0 00.517-.214c.268-.268.268-.731-.018-1.016zM5.362 9.255A3.915 3.915 0 012.6 8.114c-1.516-1.516-1.516-3.995 0-5.528a3.884 3.884 0 012.764-1.142c1.052 0 2.015.41 2.764 1.142.75.73 1.141 1.712 1.141 2.764 0 1.052-.41 2.015-1.14 2.764a3.84 3.84 0 01-2.765 1.141z" fill="#F2F2F2"/></svg>