<?xml version="1.0" encoding="UTF-8" standalone="no"?>
<!-- Created with Inkscape (http://www.inkscape.org/) -->
<svg xmlns:dc="http://purl.org/dc/elements/1.1/" xmlns:cc="http://creativecommons.org/ns#" xmlns:rdf="http://www.w3.org/1999/02/22-rdf-syntax-ns#" xmlns:svg="http://www.w3.org/2000/svg" xmlns="http://www.w3.org/2000/svg" xmlns:sodipodi="http://sodipodi.sourceforge.net/DTD/sodipodi-0.dtd" xmlns:inkscape="http://www.inkscape.org/namespaces/inkscape" id="svg2855" version="1.1" inkscape:version="0.47 r22583" width="243" height="157.85001" xml:space="preserve" sodipodi:docname="CBS_NEWS_LOGO.svg"><metadata id="metadata2861"><rdf:RDF><cc:Work rdf:about=""><dc:format>image/svg+xml</dc:format><dc:type rdf:resource="http://purl.org/dc/dcmitype/StillImage"/></cc:Work></rdf:RDF></metadata><defs id="defs2859"><inkscape:perspective sodipodi:type="inkscape:persp3d" inkscape:vp_x="0 : 0.5 : 1" inkscape:vp_y="0 : 1000 : 0" inkscape:vp_z="1 : 0.5 : 1" inkscape:persp3d-origin="0.5 : 0.33333333 : 1" id="perspective2863"/><clipPath clipPathUnits="userSpaceOnUse" id="clipPath2873"><path d="M 0,1262.8 0,0 l 1944,0 0,1262.8 -1944,0 z" id="path2875"/></clipPath></defs><sodipodi:namedview pagecolor="#ffffff" bordercolor="#666666" borderopacity="1" objecttolerance="10" gridtolerance="10" guidetolerance="10" inkscape:pageopacity="0" inkscape:pageshadow="2" inkscape:window-width="1440" inkscape:window-height="817" id="namedview2857" showgrid="false" inkscape:zoom="0.23838384" inkscape:cx="382.5" inkscape:cy="495" inkscape:window-x="-3" inkscape:window-y="-3" inkscape:window-maximized="1" inkscape:current-layer="g2865"/><g id="g2865" inkscape:groupmode="layer" inkscape:label="ink_ext_XXXXXX" transform="matrix(1.25,0,0,-1.25,0,157.85)"><g id="g2867" transform="scale(0.1,0.1)"><g id="g2869"><g id="g2871" clip-path="url(#clipPath2873)"><path d="M 291.484,792.711 C 171.781,793.227 74.4531,872.469 22.9141,967.469 74.9766,1061.95 172.812,1138.57 291.484,1138.57 c 120.75,0 217.563,-76.1 268.578,-171.101 -51.015,-95 -146.777,-175.285 -268.578,-174.758 l 0,0 z m 0,466.579 C 130.504,1259.29 0,1127.69 0,965.363 0,803.051 130.504,671.438 291.484,671.438 c 160.996,0 291.485,131.613 291.485,293.925 0,162.327 -130.489,293.927 -291.485,293.927 l 0,0" style="fill:#231f20;fill-opacity:1;fill-rule:evenodd;stroke:none" id="path2877"/><path d="m 291.484,816.18 c 81.719,0 147.965,66.793 147.965,149.183 0,82.407 -66.246,149.197 -147.965,149.197 -81.699,0 -147.949,-66.79 -147.949,-149.197 0,-82.39 66.25,-149.183 147.949,-149.183 l 0,0" style="fill:#231f20;fill-opacity:1;fill-rule:evenodd;stroke:none" id="path2879"/><path d="m 738.992,966.508 c 0,213.142 61.25,289.262 133.395,289.262 102.086,0 157.913,-153.63 175.593,-213.14 l 0,206.22 c -17.68,-13.84 -25.86,-20.76 -44.89,-20.76 -19.086,0 -47.66,9.69 -61.274,18 -13.609,8.3 -40.832,15.22 -68.062,15.22 -89.844,0 -246.387,-120.42 -246.387,-294.802 0,-206.223 138.844,-294.801 246.387,-294.801 27.23,0 57.164,11.078 70.781,19.383 13.602,8.301 39.469,19.375 58.555,19.375 19.03,0 27.21,-6.922 44.89,-20.766 l 0,207.61 C 1033.02,817.039 974.473,677.25 872.387,677.25 c -29.262,0 -69.426,13.84 -87.793,33.215 -5.653,5.969 -45.602,34.609 -45.602,256.043 l 0,0" style="fill:#231f20;fill-opacity:1;fill-rule:evenodd;stroke:none" id="path2881"/><path d="m 1339.94,684.398 -82.2,0 0,1.332 8.11,0 0,299.911 78.43,0 c 57.71,-1.411 103.9,-29.559 103.9,-152.032 0,-122.464 -41.86,-149.211 -108.24,-149.211 z m 86.59,430.752 c 0,-118.259 -39.67,-123.873 -77.18,-123.873 l -83.5,0 0,254.783 62.56,0 c 50.51,0 98.12,-12.67 98.12,-130.91 z m -36.05,-126.689 c 112.52,23.929 132.69,73.199 132.69,125.279 0,69.68 -79.35,137.95 -193.32,137.95 l -268.35,0 0,-5.63 89.45,0 0,-561.662 -89.45,0 0,-5.632 281.34,0 c 85.12,0 209.22,53.492 209.22,163.293 0,109.793 -118.33,140.765 -161.58,146.402" style="fill:#231f20;fill-opacity:1;fill-rule:evenodd;stroke:none" id="path2883"/><path d="m 1889.45,1043.72 7.41,0 -0.93,214.46 -6.48,0 c 0,0 -18.48,-20.34 -44.37,-20.34 -25.88,0 -65.64,24.96 -108.15,24.96 -42.52,0 -154.37,-45.3 -154.37,-173.79 0,-128.49 85.97,-150.666 126.64,-167.311 40.68,-16.637 168.24,-43.445 168.24,-128.488 0,-85.051 -60.1,-114.629 -110.93,-114.629 -50.84,0 -112.77,36.977 -146.97,113.699 -34.2,76.727 -35.14,112.781 -35.14,112.781 l -8.32,0 0,-219.082 6.48,0 c 0,0 14.8,20.336 36.05,20.336 21.26,0 93.37,-37.902 150.68,-37.902 57.3,0 174.71,59.168 174.71,188.574 0,129.414 -97.99,144.212 -132.19,156.222 -34.2,12.02 -169.16,35.13 -169.16,131.27 0,96.14 98.89,130.34 157.14,88.74 58.24,-41.6 87.81,-158.07 89.66,-189.5" style="fill:#231f20;fill-opacity:1;fill-rule:evenodd;stroke:none" id="path2885"/><path d="m 1616.15,596.633 -130.56,0 0,-16.602 57.95,0 -126.8,-412.269 -122.36,412.269 63.02,0 0,16.602 -209.69,0 0,-16.602 36.78,0 54.21,-174.09 -72.79,-239.769 -120.36,413.859 48.36,0 0,16.602 -753.793,0 0,-16.602 64.571,0 0,-362.812 -231.055,379.414 -168.54706,0 0,-16.602 64.09766,0 0,-544.4099 -64.09766,0 0,-14.2422 142.43406,0 0,14.2422 -60.9262,0 0,491.2069 305.4372,-504.6678 23.739,0 0,557.8708 114.734,0 0,-544.4099 -64.102,0 0,-14.2422 445.516,0 0,180.4101 -11.094,0 c 0,0 -21.367,-101.289 -66.469,-133.7304 -24.5,-17.6289 -48.48,-27.2774 -65.328,-32.4375 l -135.66,0 0,284.8589 c 9.09,0 26.598,0 42.731,0 22.949,0 43.519,-5.546 63.3,-25.324 19.782,-19.781 36.403,-91.008 36.403,-91.008 l 12.668,0 0,248.469 -12.668,0 c 0,0 -8.699,-32.437 -20.571,-68.047 -11.871,-35.601 -56.976,-49.851 -78.339,-49.851 -15.254,0 -33.965,-0.399 -43.524,-0.625 l 0,245.937 123.449,0 c 25.161,-7.273 59.684,-20.644 77.539,-42.746 30.075,-37.183 37.985,-82.293 37.985,-82.293 l 12.656,0 0,125.039 49.051,0 L 1108.14,0 1129.5,0 1246.62,378.254 1359.77,0 l 22.15,0 181.07,580.031 53.16,0 0,16.602 z m 195.66,-242.645 c -34.2,12.012 -169.16,35.106 -169.16,131.25 0,96.141 98.89,130.352 157.14,88.739 58.24,-41.59 87.81,-158.067 89.66,-189.5 l 7.41,0 -0.93,214.468 -6.48,0 c 0,0 -18.48,-20.347 -44.37,-20.347 -25.88,0 -65.64,24.968 -108.15,24.968 -42.52,0 -154.37,-45.3 -154.37,-173.781 0,-128.492 85.97,-150.68 126.64,-167.324 40.68,-16.629 168.24,-43.43 168.24,-128.492 0,-85.0276 -60.1,-114.6096 -110.93,-114.6096 -50.84,0 -112.77,36.9726 -146.97,113.6916 -34.2,76.719 -35.14,112.781 -35.14,112.781 l -8.32,0 0,-219.082 6.48,0 c 0,0 14.8,20.332 36.05,20.332 21.26,0 93.37,-37.90231 150.68,-37.90231 57.3,0 174.71,59.16011 174.71,188.57031 0,129.422 -97.99,144.227 -132.19,156.238" style="fill:#231f20;fill-opacity:1;fill-rule:evenodd;stroke:none" id="path2887"/></g></g></g></g></svg>