<svg enable-background="new 0 0 200 92" viewBox="0 0 200 92" xmlns="http://www.w3.org/2000/svg"><path d="m0 0h200v92h-200z" fill="#9e0b0f"/><g fill="#fff"><path d="m24.8 69.4v-8.3h7.3v-32.4h-7.3v11.4h-8.4v-19.6h44.3v19.7h-8.3v-11.5h-7.6v32.4h7.3v8.3z"/><path d="m90.8 61.1v8.3h-25.8v-8.3h6.2v-32.4h-6.2v-8.3h25.8c6 0 10.6 1.4 13.9 4.2s4.9 6.6 4.9 11.4c0 2.7-.6 5.2-1.7 7.4s-2.6 3.9-4.4 5.1-3.8 2-6.2 2.4c-2.3.4-5.2.7-8.7.7h-4.6v9.5zm-6.8-17.6h1.9c4.4 0 7.2-.7 8.4-2.1 1.3-1.4 1.9-3.2 1.9-5.3 0-1.8-.4-3.3-1.3-4.6s-1.9-2-3-2.3-3-.4-5.5-.4h-2.4z"/><path d="m112.9 69.4v-8.3h6.3v-32.4h-6.3v-8.3h24.5l10.7 28.6 10.8-28.6h25v8.3h-6.3v32.4h6.3v8.3h-24.6v-8.3h5.9v-32.4h-1.2l-15.2 40.6h-5.3l-15.3-40.6h-1.2v32.4h6.4v8.3z"/></g></svg>