<svg xmlns="http://www.w3.org/2000/svg" width="30" height="30" viewBox="0 0 30 30">
  <path fill="#5B666B" fill-rule="evenodd" d="M20.2138182,15.9447514 L22.3042006,15.9447514 L21.2946833,13.281768 L21.228837,13.281768 L20.2138182,15.9447514 Z M22.8194314,17.3038674 L19.6957796,17.3038674 L19.1819527,18.6519337 L17.5461538,18.6519337 L20.7559172,10.6187845 L21.8014793,10.6187845 L25,18.6519337 L23.3304734,18.6519337 L22.8194314,17.3038674 Z M14.977943,1.77635684e-15 C23.2377189,1.77635684e-15 29.9572912,6.7197556 29.9572912,14.9793483 C29.9572912,23.2386965 23.23778,29.9583299 14.977943,29.9583299 C6.71841141,29.9583299 -3.01980663e-14,23.2389409 -3.01980663e-14,14.9793483 C-3.01980663e-14,6.7197556 6.71841141,1.77635684e-15 14.977943,1.77635684e-15 Z M14.977943,26.7870672 C21.4886151,26.7870672 26.7859674,21.4898371 26.7859674,14.9793483 C26.7859674,8.46885947 21.4886762,3.17132383 14.977943,3.17132383 C8.46751527,3.17132383 3.17138493,8.46885947 3.17138493,14.9793483 C3.17138493,21.4898371 8.46745418,26.7870672 14.977943,26.7870672 Z M7.56272189,13.6850829 L7.56272189,18.6519337 L6,18.6519337 L6,10.6187845 L7.11863905,10.6187845 L11.0197487,15.5966851 L11.0872781,15.5966851 L11.0872781,10.6187845 L12.6443787,10.6187845 L12.6443787,18.6519337 L11.5313609,18.6519337 L7.63037475,13.6850829 L7.56272189,13.6850829 Z M17.8047337,10 L14.6343195,20 L13.0715976,20 L16.2420118,10 L17.8047337,10 Z"/>
</svg>
