<svg xmlns="http://www.w3.org/2000/svg" width="30" height="30" viewBox="0 0 30 30">
  <path fill="#3F7C83" fill-rule="evenodd" d="M14.977943,-1.77635684e-15 C23.2377189,-1.77635684e-15 29.9572912,6.7197556 29.9572912,14.9793483 C29.9572912,23.2386965 23.23778,29.9583299 14.977943,29.9583299 C6.71841141,29.9583299 -1.24344979e-14,23.2389409 -1.24344979e-14,14.9793483 C-1.24344979e-14,6.7197556 6.71841141,-1.77635684e-15 14.977943,-1.77635684e-15 Z M14.977943,26.7870672 C21.4886151,26.7870672 26.7859674,21.4898371 26.7859674,14.9793483 C26.7859674,8.46885947 21.4886762,3.17132383 14.977943,3.17132383 C8.46751527,3.17132383 3.17138493,8.46885947 3.17138493,14.9793483 C3.17138493,21.4898371 8.46745418,26.7870672 14.977943,26.7870672 Z M10.5,21.5 L10.5,8.5 L15.8780822,8.5 C18.7630137,8.5 20.3835616,9.8 20.3835616,12.1328767 C20.3835616,13.3260274 19.8493151,14.2164384 18.8876712,14.7684932 C19.9739726,15.3205479 20.5794521,16.3 20.5794521,17.6534247 C20.5794521,20.2178082 18.7986301,21.5 15.9136986,21.5 L10.5,21.5 Z M15.8424658,15.9972603 L12.9753425,15.9972603 L12.9753425,19.2383562 L15.9493151,19.2383562 C17.3205479,19.2383562 18.0328767,18.6150685 18.0328767,17.6 C18.0328767,16.5849315 17.4273973,15.9972603 15.8424658,15.9972603 Z M15.9315068,10.7260274 L12.9753425,10.7260274 L12.9753425,13.7356164 L15.9671233,13.7356164 C17.3027397,13.7356164 17.8726027,13.0767123 17.8726027,12.1863014 C17.8726027,11.2780822 17.2493151,10.7260274 15.9315068,10.7260274 Z"/>
</svg>
