<svg xmlns="http://www.w3.org/2000/svg" width="2500" height="1154" viewBox="0 0 677.436 312.807"><path d="M214.542.158c0-.141-58.296 0-58.296 0C69.955.158 0 70.113 0 156.404 0 242.695 69.955 312.65 156.246 312.65l109.61-.092c27.537 0 49.86-22.149 49.86-49.687l.058-95.298 75.761 119.495c10.246 15.507 27.834 25.737 47.812 25.737 31.626 0 57.266-25.639 57.266-57.266l-.017-87.967 75.761 119.495c10.246 15.507 27.834 25.737 47.812 25.737 31.626 0 57.266-25.639 57.266-57.266L677.418.017h-38.982v255.524c0 10.088-8.178 18.266-18.266 18.266-6.305 0-11.864-3.193-15.146-8.053L470.177 53.35a6.911 6.911 0 0 0-12.606 3.917l.043 198.275c0 10.088-8.178 18.266-18.266 18.266-6.305 0-11.863-3.193-15.146-8.053L289.355 53.35a6.912 6.912 0 0 0-12.607 3.917l-.03 205.606c0 5.999-4.862 10.86-10.861 10.86l-109.61-.082C91.494 273.65 39 221.156 39 156.404 39 91.652 91.494 39.157 156.246 39.157l58.296-.043V.158z"/><path d="M220.826 223.569a5.554 5.554 0 0 0 5.554-5.554l.015-160.75C226.394 25.64 252.033 0 283.659 0c20.049 0 37.693 10.304 47.923 25.905l75.498 118.434.136-87.073C407.216 25.64 432.854 0 464.481 0c20.049 0 37.692 10.304 47.923 25.905l75.497 118.434V.017h39.25l-.07 255.524a6.912 6.912 0 0 1-12.441 4.146L479.627 47.053C476.345 42.195 470.786 39 464.481 39c-10.088 0-18.266 8.178-18.266 18.266l.044 198.275a6.913 6.913 0 0 1-12.442 4.146L298.806 47.053C295.523 42.195 289.965 39 283.659 39c-10.087 0-18.265 8.178-18.265 18.266l.082 199.846a5.554 5.554 0 0 1-5.554 5.554l-103.676-.021c-58.482 0-105.892-47.759-105.892-106.24 0-58.482 47.41-106.242 105.892-106.242 0 0 58.296-.227 58.296 0v39.393l-58.296-.044c-36.943 0-66.892 29.949-66.892 66.893 0 36.942 29.949 67.24 66.892 67.24l64.58-.076z"/></svg>