<svg xmlns="http://www.w3.org/2000/svg" viewBox="0 0 16 16"><defs><style>.a{fill:#802509;}</style></defs><title>sync</title><path class="a" d="M7,13H9V7.33H7V13ZM7.06,5.28a1.33,1.33,0,0,0,2.28-.94,1.33,1.33,0,0,0-2.28-.94,1.28,1.28,0,0,0-.39.94,1.28,1.28,0,0,0,.39.94h0ZM2.34,2.34A7.71,7.71,0,0,1,8,0a7.71,7.71,0,0,1,5.66,2.34A7.71,7.71,0,0,1,16,8a7.71,7.71,0,0,1-2.34,5.66A7.71,7.71,0,0,1,8,16a7.71,7.71,0,0,1-5.66-2.34A7.71,7.71,0,0,1,0,8,7.71,7.71,0,0,1,2.34,2.34h0Z" transform="translate(0 0)"/></svg>