<svg xmlns="http://www.w3.org/2000/svg" viewBox="0 0 16 16"><path fill="#264a8c" d="M0.8,6.61A7.1,7.1,0,0,1,3.31,2.36,7.11,7.11,0,0,1,8,.67a7.1,7.1,0,0,1,4.94,1.92l2.48-2.5A0.43,0.43,0,0,1,15.67,0L15.8,0a0.33,0.33,0,0,1,.2.31V6.67a0.32,0.32,0,0,1-.33.33H9.33A0.32,0.32,0,0,1,9,6.8a0.34,0.34,0,0,1,.07-0.37l2-1.94A4.46,4.46,0,0,0,8,3.33a4.49,4.49,0,0,0-2.83,1A4.64,4.64,0,0,0,3.5,6.76,0.29,0.29,0,0,1,3.19,7H1.13A0.31,0.31,0,0,1,.87,6.89,0.44,0.44,0,0,1,.8,6.61M15.2,9.39a7.14,7.14,0,0,1-2.53,4.26A7.09,7.09,0,0,1,8,15.33a7.1,7.1,0,0,1-4.95-1.93l-2.48,2.5A0.43,0.43,0,0,1,.33,16L0.2,16A0.32,0.32,0,0,1,0,15.67V9.33A0.32,0.32,0,0,1,.09,9.09,0.33,0.33,0,0,1,.33,9H6.67A0.32,0.32,0,0,1,7,9.2a0.34,0.34,0,0,1-.08.37l-2,1.94A4.46,4.46,0,0,0,8,12.67a4.51,4.51,0,0,0,2.83-1A4.66,4.66,0,0,0,12.5,9.24,0.29,0.29,0,0,1,12.81,9h2.06a0.27,0.27,0,0,1,.26.13,0.35,0.35,0,0,1,.07.26"/></svg>