<svg width="32" height="32" viewBox="0 0 32 32" fill="none" xmlns="http://www.w3.org/2000/svg">
<circle cx="16" cy="16" r="16" fill="white"/>
<path d="M12.9108 25.8888C21.2125 25.8888 25.7551 19.0044 25.7551 13.0444C25.7551 12.8507 25.7551 12.6571 25.7463 12.4634C26.6266 11.8295 27.3926 11.0284 28 10.1216C27.1901 10.4826 26.3185 10.7203 25.403 10.8347C26.3361 10.2801 27.0492 9.39096 27.3926 8.33453C26.521 8.85394 25.5526 9.22369 24.5226 9.42617C23.6951 8.54582 22.5242 8 21.2301 8C18.7387 8 16.7139 10.0248 16.7139 12.5162C16.7139 12.8683 16.7579 13.2117 16.8283 13.5462C13.078 13.3613 9.7503 11.5566 7.52301 8.82753C7.13565 9.4966 6.91557 10.2713 6.91557 11.0988C6.91557 12.6659 7.71669 14.048 8.92277 14.8579C8.18327 14.8315 7.4878 14.6291 6.88035 14.2945C6.88035 14.3121 6.88035 14.3297 6.88035 14.3561C6.88035 16.5394 8.43858 18.3705 10.4986 18.7843C10.12 18.89 9.72389 18.9428 9.31012 18.9428C9.01961 18.9428 8.7379 18.9164 8.46499 18.8635C9.03721 20.6595 10.7099 21.9624 12.6819 21.9976C11.1325 23.2125 9.18688 23.9344 7.07403 23.9344C6.71309 23.9344 6.35214 23.9168 6 23.8728C7.9896 25.1405 10.3665 25.8888 12.9108 25.8888Z" fill="#31347A"/>
</svg>

