<svg width="502.32028" height="53.770003" xmlns="http://www.w3.org/2000/svg">
 <defs>
  <style>.cls-1{fill:#ee703a;}</style>
 </defs>
 <metadata id="metadata7">image/svg+xml</metadata>
 <g>
  <title>background</title>
  <rect fill="none" id="canvas_background" height="402" width="582" y="-1" x="-1"/>
 </g>
 <g>
  <title>Layer 1</title>
  <g id="layer1">
   <g id="g4218">
    <polygon id="polygon4143" points="41.73029327392578,27.05999755859375 41.73029327392578,43.6700439453125 32.80029296875,43.6700439453125 32.80029296875,1 32.80029296875,1 57.38029479980469,1 57.38029479980469,8.7900390625 41.73029327392578,8.7900390625 41.73029327392578,19.260009765625 56.24029541015625,19.260009765625 56.24029541015625,27.05999755859375 "/>
    <path id="path4145" d="m62.780293,36.400022l4.66,0l0,-17.65l-4.66,0l0,-7.22l13,0l0,24.87l4.44,0l0,7.22l-17.44,0l0,-7.22zm4.67,-35.4l8.36,0l0,8l-8.36,0l0,-8z"/>
    <polygon id="polygon4147" points="101.75028991699219,11.530029296875 110.11030578613281,11.530029296875 110.11030578613281,27.6199951171875 103.45028686523438,43.6700439453125 91.74029541015625,43.6700439453125 85.08030700683594,27.6199951171875 85.08030700683594,27.6199951171875 85.08030700683594,11.530029296875 93.4403076171875,11.530029296875 93.4403076171875,25.52001953125 97.20028686523438,35.99005126953125 97.99029541015625,35.99005126953125 101.75028991699219,25.52001953125 "/>
    <path id="path4149" d="m141.960293,43.670022l-13,0c-8.19,0 -12.12,-3.47 -12.12,-11.49l0,-9.16c0,-7.57 3.87,-12.06 12.57,-12.06c9.33,0 12.57,4.27 12.57,13.2l0,6.54l-16.8,0l0,2c0,2.62 1.31,3.7 3.75,3.7l13,0l0,7.22l0.03,0.05zm-16.78,-19.06l8.42,0l0,-2.21c0,-2.62 -1.14,-4.84 -4.21,-4.84c-2.79,0 -4.21,1.59 -4.21,4.84l0,2.16l0,0.05z"/>
    <polygon id="polygon4151" points="155.05029296875,43.6700439453125 155.05029296875,8.7900390625 155.05029296875,8.7900390625 145.3802947998047,8.7900390625 145.3802947998047,1 173.65029907226562,1 173.65029907226562,8.7900390625 163.9803009033203,8.7900390625 163.9803009033203,43.6700439453125 "/>
    <path id="path4153" d="m187.410293,43.670022l-8.36,0l0,-42.67l8.36,0l0,14.62a8.3,8.3 0 0 1 7.74,-4.66c6.26,0 9.16,3.13 9.16,10.81l0,21.9l-8.36,0l0,-21.62c0,-3.13 -1.37,-4.44 -4.27,-4.44c-2.9,0 -4.27,1.31 -4.27,4.44l0,21.62z"/>
    <path id="path4155" d="m211.130293,36.400022l4.66,0l0,-17.65l-4.66,0l0,-7.22l13,0l0,24.87l4.44,0l0,7.22l-17.44,0l0,-7.22zm4.67,-35.4l8.36,0l0,8l-8.36,0l0,-8z"/>
    <path id="path4157" d="m235.420293,43.670022l0,-32.14l8.08,0l0,4.15a7.63,7.63 0 0 1 7.22,-4.15l2.6,0l0,7.23l-5.75,0c-2.84,0 -3.75,1.19 -3.75,4.15l0,20.76l-8.4,0z"/>
    <path id="path4159" d="m278.770293,43.670022l-6.09,0c-7.11,0 -10.81,-3.36 -10.81,-10.81l0,-14.11l-4.89,0l0,-7.22l4.89,0l0,-8.25l8.36,0l0,8.25l8.53,0l0,7.23l-8.53,0l0,14.38c0,2.22 1.14,3.3 3.87,3.3l4.66,0l0,7.23l0.01,0z"/>
    <polygon id="polygon4161" points="298.34027099609375,35.70001220703125 302.0903015136719,25.52001953125 302.0903015136719,11.530029296875 310.4503173828125,11.530029296875 310.4503173828125,27.6199951171875 298.22027587890625,54.760009765625 288.7802734375,54.760009765625 288.7802734375,54.760009765625 293.39031982421875,45.260009765625 285.4302978515625,27.6199951171875 285.4302978515625,11.530029296875 293.790283203125,11.530029296875 293.790283203125,25.52001953125 297.540283203125,35.70001220703125 "/>
    <polygon id="polygon4163" points="327.63031005859375,25.9200439453125 327.63031005859375,35.87005615234375 343.5602722167969,35.87005615234375 343.5602722167969,43.6700439453125 318.7003173828125,43.6700439453125 318.7003173828125,1 318.7003173828125,1 343.5602722167969,1 343.5602722167969,8.7900390625 327.63031005859375,8.7900390625 327.63031005859375,18.1199951171875 342.14031982421875,18.1199951171875 342.14031982421875,25.9200439453125 "/>
    <path id="path4165" d="m349.930293,36.400022l4.66,0l0,-17.65l-4.66,0l0,-7.22l13,0l0,24.87l4.44,0l0,7.22l-17.44,0l0,-7.22zm4.67,-35.4l8.36,0l0,8l-8.36,0l0,-8z"/>
    <path id="path4167" d="m369.670293,49.920022l0,-1.7l17,0c2,0 2.56,-0.4 2.56,-1.48l0,-0.34c0,-1.08 -0.57,-1.48 -2.56,-1.48l-13.59,0l0,-3l4.61,-6.94c-5.29,-1.48 -7.45,-5.23 -7.45,-10.81l0,-1.2c0,-7.56 3.75,-12.06 13.31,-12.06a22.37,22.37 0 0 1 5.92,0.74l3.64,-5.46l5.58,3.47l-3.81,5.75a12.91,12.91 0 0 1 2,7.56l0,1.2c0,7 -3.47,11.15 -12.17,11.49l-2,3l6.26,0c5.92,0 8.82,2.9 8.82,8l0,0.11c0,5.06 -2.9,8 -8.82,8l-13,0c-4.32,0 -6.26,-1.65 -6.26,-4.84m18.94,-25.14l0,-2.39c0,-3.3 -1.42,-4.89 -5.06,-4.89c-3.64,0 -5.06,1.59 -5.06,4.89l0,2.33c0,3.3 1.42,4.89 5.06,4.89c3.64,0 5.06,-1.59 5.06,-4.89"/>
    <path id="path4169" d="m412.320293,43.670022l-8.4,0l0,-42.67l8.4,0l0,14.62a8.3,8.3 0 0 1 7.74,-4.66c6.26,0 9.16,3.13 9.16,10.81l0,21.9l-8.36,0l0,-21.62c0,-3.13 -1.37,-4.44 -4.27,-4.44c-2.9,0 -4.27,1.31 -4.27,4.44l0,21.62z"/>
    <path id="path4171" d="m456.320293,43.670022l-6,0c-7.11,0 -10.81,-3.36 -10.81,-10.81l0,-14.11l-4.89,0l0,-7.22l4.89,0l0,-8.25l8.36,0l0,8.25l8.45,0l0,7.23l-8.53,0l0,14.38c0,2.22 1.14,3.3 3.87,3.3l4.66,0l0,7.23z"/>
   </g>
  </g>
 </g>
</svg>